<?xml version='1.0' encoding='UTF-8'?>
<svg xmlns="http://www.w3.org/2000/svg" version="1.1" viewBox="0 0 640 480">
  <defs>
    <style>
      .cls-1 {
        font-size: 9px;
      }

      .cls-1, .cls-2, .cls-3, .cls-4, .cls-5 {
        isolation: isolate;
      }

      .cls-1, .cls-2, .cls-4, .cls-5 {
        font-family: ArialMT, Arial;
      }

      .cls-6 {
        fill: none;
      }

      .cls-6, .cls-7, .cls-8, .cls-9 {
        stroke: #000;
        stroke-miterlimit: 10;
      }

      .cls-7, .cls-9 {
        fill: gray;
      }

      .cls-10, .cls-8 {
        fill: #fff;
      }

      .cls-2 {
        font-size: 7px;
      }

      .cls-9 {
        stroke-width: 3px;
      }

      .cls-4 {
        font-size: 8px;
      }

      .cls-5 {
        font-size: 10px;
      }
    </style>
  <marker id="dynamic-arrow" markerWidth="20" markerHeight="20" refX="10.0" refY="20" markerUnits="strokeWidth"><image xmlns:ns0="http://www.w3.org/1999/xlink" ns0:href="..\Assets\location_symbol-removebg.png" x="0" y="0" width="20" height="20" preserveAspectRatio="xMidYMid meet"/></marker></defs>
  <!-- Generator: Adobe Illustrator 28.6.0, SVG Export Plug-In . SVG Version: 1.2.0 Build 709)  -->
  <g>
    <g id="Layer_1">
      <g id="Layer_1-2" data-name="Layer_1">
        <g>
          <g id="Layer_1-2">
            <path class="cls-8" d="M106.1,162.4"/>
            <path class="cls-8" d="M127.9,186s0-23,.7-40.5"/>
            <path class="cls-8" d="M228.2,162.4"/>
            <path class="cls-8" d="M228.2,323.9"/>
            <path class="cls-8" d="M105.9,323"/>
            <path class="cls-8" d="M534.7,120.7"/>
            <path class="cls-8" d="M128.6,145.5h-22.7v-7.5l.2-17.3"/>
            <path class="cls-8" d="M228.2,323.9"/>
            <path class="cls-8" d="M105.9,323"/>
            <path class="cls-8" d="M347.6,72.8v47.9l187.1,1.6.2,21.6h-16v42h-32v-24l-54,1,.3,94.4h50.7l.5,11.5h-51.2l1.2,54.9c45.5.1,48.9-.9,48.9-.9l-.4-29h34l.4,38.7,17.6.3-.2,26.5-186.3,1-.2,46.3"/>
            <path class="cls-8" d="M127.9,186h37v-24h63v103h-40.1l-.3,26.9h40.5l.3,14v19.3s-61.3.9-61.9,0,0-34.4,0-34.4h-40.2v38.3h-19.2l.5,30.3,204.1-.4.4.5v46.4"/>
            <path class="cls-8" d="M311.5,312.6l-.9-150.6h-48.3l.9,150.6h48.3Z"/>
            <line class="cls-6" x1="396.8" y1="312.6" x2="395.9" y2="162"/>
            <path class="cls-8" d="M396.6,162.7h-48.3l-.6,118.9h24.5"/>
            <path class="cls-8" d="M371.5,311.4v-30.2c-.1,0,0,30.2,0,30.2Z"/>
            <line class="cls-6" x1="396.8" y1="312.4" x2="372.2" y2="312.1"/>
            <path class="cls-8" d="M106.1,120.7c68,0,136.1-.3,204.1-.4"/>
            <line x1="310.2" y1="120.3" x2="310.2" y2="120.3" stroke="black" stroke-width="1"/>
            <line x1="310.2" y1="120.3" x2="310.8" y2="72.8" stroke="black" stroke-width="1"/>
          </g>
          <g id="Layer_3">
            <path class="cls-8" d="M192,120.3"/>
            <path class="cls-8" d="M462.5,162"/>
            <rect class="cls-8" x="303.9" y="90.5" width="13.6" height="7.5"/>
            <rect class="cls-8" x="237.7" y="113.8" width="7.5" height="13.6"/>
            <rect class="cls-8" x="350.7" y="113.8" width="7.5" height="13.6"/>
            <rect class="cls-8" x="375.9" y="113.8" width="7.5" height="13.6"/>
            <rect class="cls-8" x="414.1" y="113.5" width="7.5" height="13.6"/>
            <rect class="cls-8" x="497.4" y="113.5" width="7.5" height="13.6"/>
            <rect class="cls-8" x="134" y="350.1" width="7.5" height="13.6"/>
            <rect class="cls-8" x="234.3" y="352.3" width="7.5" height="13.6"/>
            <rect class="cls-8" x="263.1" y="352.3" width="7.5" height="13.6"/>
            <rect class="cls-8" x="283.7" y="352.3" width="7.5" height="13.6"/>
            <rect class="cls-8" x="351.3" y="352.3" width="7.5" height="13.6"/>
            <rect class="cls-8" x="376.5" y="352.3" width="7.5" height="13.6"/>
            <rect class="cls-8" x="402.7" y="352.1" width="7.5" height="13.6"/>
            <rect class="cls-8" x="498.9" y="352.1" width="7.5" height="13.6"/>
            <g class="cls-3">
              <g class="cls-3">
                <text class="cls-4" transform="translate(133.7 373.2)">
                  <tspan x="0" y="0">004</tspan>
                </text>
              </g>
            </g>
            <g class="cls-3">
              <g class="cls-3">
                <text class="cls-4" transform="translate(232 373.2)">
                  <tspan x="0" y="0">003</tspan>
                </text>
              </g>
            </g>
            <g class="cls-3">
              <g class="cls-3">
                <text class="cls-4" transform="translate(260.9 373.2)">
                  <tspan x="0" y="0">002</tspan>
                </text>
              </g>
            </g>
            <g class="cls-3">
              <g class="cls-3">
                <text class="cls-4" transform="translate(280.7 373.2)">
                  <tspan x="0" y="0">001</tspan>
                </text>
              </g>
            </g>
            <g class="cls-3">
              <g class="cls-3">
                <text class="cls-4" transform="translate(287.5 96.6)">
                  <tspan x="0" y="0">012</tspan>
                </text>
              </g>
            </g>
            <g class="cls-3">
              <g class="cls-3">
                <text class="cls-4" transform="translate(348.7 110.9)">
                  <tspan x="0" y="0">013</tspan>
                </text>
              </g>
            </g>
            <g class="cls-3">
              <g class="cls-3">
                <text class="cls-4" transform="translate(373.4 110.9)">
                  <tspan x="0" y="0">014</tspan>
                </text>
              </g>
            </g>
            <g class="cls-3">
              <g class="cls-3">
                <text class="cls-4" transform="translate(496.2 110.9)">
                  <tspan x="0" y="0">015</tspan>
                </text>
              </g>
            </g>
            <g class="cls-3">
              <g class="cls-3">
                <text class="cls-4" transform="translate(436.1 179.9)">
                  <tspan x="0" y="0">016</tspan>
                </text>
              </g>
            </g>
            <g class="cls-3">
              <g class="cls-3">
                <text class="cls-4" transform="translate(372.2 197.2)">
                  <tspan x="0" y="0">017</tspan>
                </text>
              </g>
            </g>
            <g class="cls-3">
              <g class="cls-3">
                <text class="cls-4" transform="translate(442.3 223.5)">
                  <tspan x="0" y="0">018(A)</tspan>
                </text>
              </g>
            </g>
            <g class="cls-3">
              <g class="cls-3">
                <text class="cls-4" transform="translate(380.2 288.1)">
                  <tspan x="0" y="0">020</tspan>
                </text>
              </g>
            </g>
            <rect class="cls-8" x="213.8" y="311.3" width="6.5" height="10.2"/>
            <rect class="cls-8" x="257.1" y="290.2" width="14.3" height="6.5"/>
            <rect class="cls-8" x="180.8" y="273.9" width="10.2" height="6.5"/>
            <rect class="cls-8" x="221" y="254.4" width="11.9" height="6.1"/>
            <rect class="cls-8" x="221" y="228.2" width="11.9" height="6.1"/>
            <rect class="cls-8" x="221" y="216.9" width="11.9" height="6.1"/>
            <rect class="cls-8" x="257.1" y="191.1" width="11.9" height="6.1"/>
            <rect class="cls-8" x="214.1" y="159.8" width="6.1" height="11.9"/>
            <rect class="cls-8" x="389.6" y="290.3" width="14.3" height="6.5"/>
            <rect class="cls-8" x="389.6" y="191.1" width="11.9" height="6.1"/>
            <rect class="cls-8" x="427.3" y="228.2" width="11.9" height="6.1"/>
            <rect class="cls-8" x="427.3" y="216.9" width="11.9" height="6.1"/>
            <rect class="cls-8" x="436.1" y="159.7" width="6.1" height="11.9"/>
            <rect class="cls-8" x="436.1" y="306.7" width="6.1" height="11.9"/>
            <rect class="cls-8" x="344.5" y="200.1" width="11.9" height="6.1"/>
            <g class="cls-3">
              <g class="cls-3">
                <text class="cls-4" transform="translate(200.8 222.8)">
                  <tspan x="0" y="0">009B</tspan>
                </text>
              </g>
            </g>
            <g class="cls-3">
              <g class="cls-3">
                <text class="cls-4" transform="translate(201 233.6)">
                  <tspan x="0" y="0">009A</tspan>
                </text>
              </g>
            </g>
            <g class="cls-3">
              <g class="cls-3">
                <text class="cls-4" transform="translate(204.9 260.5)">
                  <tspan x="0" y="0">008</tspan>
                </text>
              </g>
            </g>
            <g class="cls-3">
              <g class="cls-3">
                <text class="cls-4" transform="translate(163.7 280.4)">
                  <tspan x="0" y="0">007</tspan>
                </text>
              </g>
            </g>
            <g class="cls-3">
              <g class="cls-3">
                <text class="cls-4" transform="translate(275.2 296.8)">
                  <tspan x="0" y="0">006</tspan>
                </text>
              </g>
            </g>
            <g class="cls-3">
              <g class="cls-3">
                <text class="cls-4" transform="translate(200.2 319)">
                  <tspan x="0" y="0">005</tspan>
                </text>
              </g>
            </g>
            <g class="cls-3">
              <g class="cls-3">
                <text class="cls-4" transform="translate(272.8 197.2)">
                  <tspan x="0" y="0">010</tspan>
                </text>
              </g>
            </g>
            <g class="cls-3">
              <g class="cls-3">
                <text class="cls-4" transform="translate(212.1 179.5)">
                  <tspan x="0" y="0">011</tspan>
                </text>
              </g>
            </g>
            <g class="cls-3">
              <g class="cls-3">
                <text class="cls-4" transform="translate(360.5 270.7)">
                  <tspan x="0" y="0">026</tspan>
                </text>
              </g>
            </g>
            <g class="cls-3">
              <g class="cls-3">
                <text class="cls-4" transform="translate(496.5 373.3)">
                  <tspan x="0" y="0">022</tspan>
                </text>
              </g>
            </g>
            <g class="cls-3">
              <g class="cls-3">
                <text class="cls-4" transform="translate(401.5 373.2)">
                  <tspan x="0" y="0">023</tspan>
                </text>
              </g>
            </g>
            <g class="cls-3">
              <g class="cls-3">
                <text class="cls-4" transform="translate(373.7 373.4)">
                  <tspan x="0" y="0">024</tspan>
                </text>
              </g>
            </g>
            <g class="cls-3">
              <g class="cls-3">
                <text class="cls-4" transform="translate(349 373.6)">
                  <tspan x="0" y="0">025</tspan>
                </text>
              </g>
            </g>
            <g class="cls-3">
              <g class="cls-3">
                <text class="cls-4" transform="translate(358.8 206.2)">
                  <tspan x="0" y="0">027</tspan>
                </text>
              </g>
            </g>
            <g class="cls-3">
              <g class="cls-3">
                <text class="cls-4" transform="translate(435.6 303.7)">
                  <tspan x="0" y="0">021</tspan>
                </text>
              </g>
            </g>
            <g class="cls-3">
              <g class="cls-3">
                <text class="cls-5" transform="translate(255 86)">
                  <tspan x="0" y="0">Auditorium 1</tspan>
                </text>
              </g>
            </g>
            <rect class="cls-8" x="448.7" y="114.9" width="7.5" height="13.6"/>
            <g class="cls-3">
              <g class="cls-3">
                <text class="cls-1" transform="translate(224.8 217.2) rotate(90)">
                  <tspan x="0" y="0">B</tspan>
                </text>
              </g>
            </g>
            <g class="cls-3">
              <g class="cls-3">
                <text class="cls-1" transform="translate(224.8 228.2) rotate(90)">
                  <tspan x="0" y="0">B</tspan>
                </text>
              </g>
            </g>
            <g class="cls-3">
              <g class="cls-3">
                <text class="cls-1" transform="translate(430.8 228.2) rotate(90)">
                  <tspan x="0" y="0">B</tspan>
                </text>
              </g>
            </g>
            <g class="cls-3">
              <g class="cls-3">
                <text class="cls-1" transform="translate(436.1 223.8) rotate(-90)">
                  <tspan x="0" y="0">G</tspan>
                </text>
              </g>
            </g>
            <g class="cls-3">
              <g class="cls-3">
                <text class="cls-4" transform="translate(442.4 233.6)">
                  <tspan x="0" y="0">018(B)</tspan>
                </text>
              </g>
            </g>
            <rect class="cls-8" x="436.7" y="250.4" width="5.6" height="9.2"/>
            <rect class="cls-8" x="447.6" y="250.2" width="5.6" height="9.2"/>
            <rect class="cls-8" x="458.6" y="250.2" width="5.6" height="9.2"/>
            <rect class="cls-8" x="468.6" y="250.2" width="5.6" height="9.2"/>
            <rect class="cls-8" x="478.6" y="250.2" width="5.8" height="9.2"/>
            <rect class="cls-8" x="435.6" y="268.3" width="5.6" height="9.2"/>
            <rect class="cls-8" x="446.5" y="268" width="5.6" height="9.2"/>
            <rect class="cls-8" x="457.5" y="268" width="5.6" height="9.2"/>
            <rect class="cls-8" x="467.5" y="268" width="5.6" height="9.2"/>
            <rect class="cls-8" x="477.5" y="268" width="5.8" height="9.2"/>
            <rect class="cls-8" x="344.5" y="265.7" width="11.9" height="6.1"/>
            <rect class="cls-8" x="305.5" y="225.7" width="11.9" height="6.1"/>
            <rect class="cls-8" x="305.5" y="237.7" width="11.9" height="6.1"/>
            <rect class="cls-8" x="305.5" y="250.7" width="11.9" height="6.1"/>
            <rect class="cls-8" x="305.5" y="263.7" width="11.9" height="6.1"/>
            <g class="cls-3">
              <g class="cls-3">
                <text class="cls-2" transform="translate(264.2 222.9)">
                  <tspan x="0" y="0">Sankar</tspan>
                </text>
              </g>
              <g class="cls-3">
                <text class="cls-2" transform="translate(264.2 231.3)">
                  <tspan x="0" y="0">Vishwanathan</tspan>
                </text>
              </g>
            </g>
            <g class="cls-3">
              <g class="cls-3">
                <text class="cls-2" transform="translate(264 242.7)">
                  <tspan x="0" y="0">G Vishwanathan</tspan>
                </text>
              </g>
            </g>
            <rect class="cls-8" x="198.1" y="159.8" width="6.1" height="11.9"/>
            <rect class="cls-8" x="190" y="309.8" width="6.1" height="11.9"/>
            <rect class="cls-8" x="304.5" y="183.7" width="11.9" height="6.1"/>
            <g class="cls-3">
              <g class="cls-3">
                <text class="cls-4" transform="translate(273.1 270.8)">
                  <tspan x="0" y="0">Store 03</tspan>
                </text>
              </g>
            </g>
            <g class="cls-3">
              <g class="cls-3">
                <text class="cls-4" transform="translate(274.4 189.8)">
                  <tspan x="0" y="0">Store 04</tspan>
                </text>
              </g>
            </g>
            <rect class="cls-9" x="347.6" y="281.6" width="23.9" height="31"/>
            <g class="cls-3">
              <g class="cls-3">
                <text class="cls-2" transform="translate(274 251)">
                  <tspan x="0" y="0">Ramasai</tspan>
                </text>
              </g>
              <g class="cls-3">
                <text class="cls-2" transform="translate(274 259.4)">
                  <tspan x="0" y="0">Balswami</tspan>
                </text>
              </g>
            </g>
            <g class="cls-3">
              <g class="cls-3">
                <text class="cls-4" transform="translate(486.8 265.8)">
                  <tspan x="0" y="0">019</tspan>
                </text>
              </g>
            </g>
          </g>
          <g id="Layer_2">
            <rect class="cls-8" x="171" y="307.8" width="13" height="25"/>
            <rect class="cls-8" x="171" y="311.8" width="13" height="17"/>
            <rect class="cls-8" x="171" y="316.8" width="13" height="9"/>
            <rect class="cls-8" x="171" y="318.8" width="13" height="5"/>
            <g class="cls-3">
              <g class="cls-3">
                <text class="cls-1" transform="translate(167.5 302.5)">
                  <tspan x="0" y="0">Stairs</tspan>
                </text>
              </g>
            </g>
            <rect class="cls-8" x="463.5" y="312.4" width="13" height="25"/>
            <rect class="cls-8" x="463.5" y="316.4" width="13" height="17"/>
            <line x1="463.5" y1="330.4" x2="463.5" y2="321.4" stroke="black" stroke-width="1"/>
            <line x1="463.5" y1="321.4" x2="476.5" y2="321.4" stroke="black" stroke-width="1"/>
            <line x1="476.5" y1="321.4" x2="476.5" y2="330.4" stroke="black" stroke-width="1"/>
            <path class="cls-8" d="M476.5,328.4v-5h-13v5l12.5.4"/>
            <g class="cls-3">
              <g class="cls-3">
                <text class="cls-1" transform="translate(457 307.1)">
                  <tspan x="0" y="0">Stairs</tspan>
                </text>
              </g>
            </g>
            <rect class="cls-8" x="170.5" y="159.2" width="13" height="25"/>
            <line class="cls-6" x1="170.5" y1="168.2" x2="183.5" y2="168.2"/>
            <path class="cls-8" d="M170.5,175.2l12.5.4"/>
            <g class="cls-3">
              <g class="cls-3">
                <text class="cls-1" transform="translate(168 194.8)">
                  <tspan x="0" y="0">Stairs</tspan>
                </text>
              </g>
            </g>
            <path d="M170.5,179.8l13-.5-13,.5Z"/>
            <path d="M183.5,171.9h-12.5,12.5Z"/>
            <path d="M183.5,163.7h-12.5,12.5Z"/>
            <path class="cls-8" d="M472.5,156.6v25h-13v-25l12.5.3"/>
            <line class="cls-6" x1="459.5" y1="165.6" x2="472.5" y2="165.6"/>
            <path class="cls-8" d="M459.5,172.6l12.5.4"/>
            <g class="cls-3">
              <g class="cls-3">
                <text class="cls-1" transform="translate(457 192.2)">
                  <tspan x="0" y="0">Stairs</tspan>
                </text>
              </g>
            </g>
            <path d="M459.5,177.2l13-.5-13,.5Z"/>
            <path d="M472.5,169.3h-12.5,12.5Z"/>
            <path d="M472.5,161.1h-12.5,12.5Z"/>
            <g class="cls-3">
              <g class="cls-3">
                <text class="cls-1" transform="translate(522.9 318.7)">
                  <tspan x="0" y="0">Lift</tspan>
                </text>
              </g>
            </g>
            <g class="cls-3">
              <g class="cls-3">
                <text class="cls-1" transform="translate(105.6 313.3)">
                  <tspan x="0" y="0">Lift</tspan>
                </text>
              </g>
            </g>
            <polygon class="cls-10" points="119.8 304.4 119.8 301.5 119.8 298.7 124.3 298.7 124.3 301.5 124.3 304.4 119.8 304.4"/>
            <path d="M136.1,254.6"/>
            <path d="M125,240.8"/>
            <polygon class="cls-7" points="117 307.1 117 302.2 117 297.3 134.5 297.3 134.5 302.2 134.5 307.1 117 307.1"/>
            <path class="cls-8" d="M134.2,302.2h-17.5"/>
            <polygon class="cls-10" points="119.5 323.2 119.5 320.3 119.5 317.5 124 317.5 124 320.3 124 323.2 119.5 323.2"/>
            <polygon class="cls-7" points="116.6 325.9 116.6 321 116.6 316.1 134.1 316.1 134.1 321 134.1 325.9 116.6 325.9"/>
            <path class="cls-8" d="M133.8,321h-17.5"/>
            <polygon class="cls-10" points="489.5 304.2 489.5 301.3 489.5 298.5 494 298.5 494 301.3 494 304.2 489.5 304.2"/>
            <polygon class="cls-7" points="507.6 306.9 507.6 302 507.6 297.1 525.1 297.1 525.1 302 525.1 306.9 507.6 306.9"/>
            <path class="cls-8" d="M525.8,302h-17.5"/>
            <polygon class="cls-7" points="507.1 329.9 507.1 325 507.1 320.1 524.6 320.1 524.6 325 524.6 329.9 507.1 329.9"/>
            <path class="cls-8" d="M525.3,325h-17.5"/>
            <g class="cls-3">
              <g class="cls-3">
                <text class="cls-1" transform="translate(497.9 123.8)">
                  <tspan x="0" y="0">T</tspan>
                </text>
              </g>
            </g>
            <g class="cls-3">
              <g class="cls-3">
                <text class="cls-1" transform="translate(500.4 363)">
                  <tspan x="0" y="0">T</tspan>
                </text>
              </g>
            </g>
            <g class="cls-3">
              <g class="cls-3">
                <text class="cls-1" transform="translate(135.4 362)">
                  <tspan x="0" y="0">T</tspan>
                </text>
              </g>
            </g>
            <g>
              <rect class="cls-10" x="298" y="296.8" width="26" height="13"/>
              <path d="M323.5,297.3v12h-25v-12h25M324.5,296.3h-27v14h27v-14h0Z"/>
            </g>
            <line x1="320.0" y1="310.3" x2="320.0" y2="297.3" stroke="black" stroke-width="1"/>
            <line x1="320.0" y1="297.3" x2="316.5" y2="297.1" stroke="black" stroke-width="1"/>
            <line x1="316.5" y1="297.1" x2="316.5" y2="310.3" stroke="black" stroke-width="1"/>
            <line class="cls-6" x1="303.1" y1="297.3" x2="303" y2="310.8"/>
            <g class="cls-3">
              <g class="cls-3">
                <text class="cls-1" transform="translate(290.8 294.3)">
                  <tspan x="0" y="0">Stairs</tspan>
                </text>
              </g>
            </g>
            <line class="cls-6" x1="297.5" y1="310.3" x2="324.5" y2="310.3"/>
            <line class="cls-6" x1="306.8" y1="297" x2="306.8" y2="310.3"/>
            <line class="cls-6" x1="311.7" y1="297" x2="311.8" y2="310.3"/>
            <g class="cls-3">
              <g class="cls-3">
                <text class="cls-2" transform="translate(347.8 291.6)">
                  <tspan x="0" y="0" xml:space="preserve"> Waiting</tspan>
                </text>
              </g>
              <g class="cls-3">
                <text class="cls-2" transform="translate(347.8 300)">
                  <tspan x="0" y="0">Area</tspan>
                </text>
              </g>
            </g>
            <g>
              <g class="cls-3">
                <g class="cls-3">
                  <text class="cls-1" transform="translate(107.7 167.2)">
                    <tspan x="0" y="0">Lift</tspan>
                  </text>
                </g>
              </g>
              <polygon class="cls-7" points="119 161 119 156.2 119 151.3 136.5 151.3 136.5 156.2 136.5 161 119 161"/>
              <path class="cls-8" d="M136.2,156.2h-17.5"/>
              <polygon class="cls-7" points="118.7 179.8 118.7 174.9 118.7 170.1 136.1 170.1 136.1 174.9 136.1 179.8 118.7 179.8"/>
              <path class="cls-8" d="M135.9,174.9h-17.5"/>
            </g>
          </g>
          <g id="Path">
            <line x1="133.8" y1="165.7" x2="153.1" y2="165.6" stroke="black" stroke-width="1" visibility="hidden"/>
            <line x1="153.1" y1="165.6" x2="153.1" y2="140.1" stroke="black" stroke-width="1" visibility="hidden"/>
            <line x1="153.1" y1="140.1" x2="177.5" y2="140.1" stroke="black" stroke-width="1" visibility="hidden"/>
            <line x1="177.5" y1="140.1" x2="177.5" y2="171.5" stroke="black" stroke-width="1" visibility="hidden"/>
            <line x1="201.2" y1="165.7" x2="201.3" y2="140.1" stroke="black" stroke-width="1" visibility="hidden"/>
            <line x1="201.3" y1="140.1" x2="177.5" y2="140.1" stroke="black" stroke-width="1" visibility="hidden"/>
            <line x1="217.2" y1="165.7" x2="216.9" y2="140.1" stroke="black" stroke-width="1" visibility="hidden"/>
            <line x1="216.9" y1="140.1" x2="201.3" y2="140.1" stroke="black" stroke-width="1" visibility="hidden"/>
            <line x1="241.4" y1="120.6" x2="241.4" y2="140.1" stroke="black" stroke-width="1" visibility="hidden"/>
            <line x1="241.4" y1="140.1" x2="216.9" y2="140.1" stroke="black" stroke-width="1" visibility="hidden"/>
            <line x1="263.1" y1="194.2" x2="243.8" y2="194.2" stroke="black" stroke-width="1" visibility="hidden"/>
            <line x1="243.8" y1="194.2" x2="243.8" y2="140.1" stroke="black" stroke-width="1" visibility="hidden"/>
            <line x1="243.8" y1="140.1" x2="241.4" y2="140.1" stroke="black" stroke-width="1" visibility="hidden"/>
            <line x1="228.0" y1="220.4" x2="243.8" y2="220.0" stroke="black" stroke-width="1" visibility="hidden"/>
            <line x1="243.8" y1="220.0" x2="243.8" y2="194.2" stroke="black" stroke-width="1" visibility="hidden"/>
            <line x1="226.5" y1="231.9" x2="243.8" y2="231.2" stroke="black" stroke-width="1" visibility="hidden"/>
            <line x1="243.8" y1="231.2" x2="243.8" y2="220.0" stroke="black" stroke-width="1" visibility="hidden"/>
            <line x1="226.9" y1="257.4" x2="245.2" y2="257.4" stroke="black" stroke-width="1" visibility="hidden"/>
            <line x1="245.2" y1="257.4" x2="243.8" y2="231.2" stroke="black" stroke-width="1" visibility="hidden"/>
            <line x1="185.9" y1="277.2" x2="243.8" y2="277.4" stroke="black" stroke-width="1" visibility="hidden"/>
            <line x1="243.8" y1="277.4" x2="245.2" y2="257.4" stroke="black" stroke-width="1" visibility="hidden"/>
            <line x1="264.3" y1="293.5" x2="243.8" y2="293.0" stroke="black" stroke-width="1" visibility="hidden"/>
            <line x1="243.8" y1="293.0" x2="243.8" y2="277.4" stroke="black" stroke-width="1" visibility="hidden"/>
            <line x1="217.0" y1="316.4" x2="217.2" y2="337.4" stroke="black" stroke-width="1" visibility="hidden"/>
            <line x1="217.2" y1="337.4" x2="243.8" y2="337.4" stroke="black" stroke-width="1" visibility="hidden"/>
            <line x1="243.8" y1="337.4" x2="243.8" y2="293.0" stroke="black" stroke-width="1" visibility="hidden"/>
            <line x1="177.5" y1="318.5" x2="177.5" y2="337.4" stroke="black" stroke-width="1" visibility="hidden"/>
            <line x1="177.5" y1="337.4" x2="217.2" y2="337.4" stroke="black" stroke-width="1" visibility="hidden"/>
            <line x1="217.2" y1="337.4" x2="237.7" y2="337.4" stroke="black" stroke-width="1" visibility="hidden"/>
            <line x1="237.7" y1="337.4" x2="238.0" y2="359.1" stroke="black" stroke-width="1" visibility="hidden"/>
            <line x1="193.0" y1="315.7" x2="193.0" y2="337.4" stroke="black" stroke-width="1" visibility="hidden"/>
            <line x1="193.0" y1="337.4" x2="217.2" y2="337.4" stroke="black" stroke-width="1" visibility="hidden"/>
            <line x1="133.8" y1="312.1" x2="150.4" y2="312.1" stroke="red" stroke-width="1" visibility="visible"/>
            <line x1="150.4" y1="312.1" x2="150.4" y2="337.4" stroke="red" stroke-width="1" visibility="visible"/>
            <line x1="150.4" y1="337.4" x2="177.5" y2="337.4" stroke="black" stroke-width="1" visibility="hidden"/>
            <line x1="138.1" y1="356.6" x2="138.1" y2="337.4" stroke="red" stroke-width="1" visibility="visible"/>
            <line x1="138.1" y1="337.4" x2="150.4" y2="337.4" stroke="red" stroke-width="1" visibility="visible"/>
            <line x1="266.8" y1="359.1" x2="266.8" y2="337.4" stroke="black" stroke-width="1" visibility="hidden"/>
            <line x1="266.8" y1="337.4" x2="243.8" y2="337.4" stroke="black" stroke-width="1" visibility="hidden"/>
            <line x1="287.5" y1="359.1" x2="287.3" y2="337.4" stroke="black" stroke-width="1" visibility="hidden"/>
            <line x1="287.3" y1="337.4" x2="266.8" y2="337.4" stroke="black" stroke-width="1" visibility="hidden"/>
            <line x1="306.8" y1="304.4" x2="328.4" y2="304.4" stroke="black" stroke-width="1" visibility="hidden"/>
            <line x1="328.4" y1="304.4" x2="328.4" y2="337.4" stroke="black" stroke-width="1" visibility="hidden"/>
            <line x1="328.4" y1="337.4" x2="287.3" y2="337.4" stroke="black" stroke-width="1" visibility="hidden"/>
            <line x1="287.3" y1="337.4" x2="354.5" y2="337.4" stroke="black" stroke-width="1" visibility="hidden"/>
            <line x1="354.5" y1="337.4" x2="355.0" y2="359.1" stroke="black" stroke-width="1" visibility="hidden"/>
            <line x1="311.4" y1="266.7" x2="327.8" y2="266.7" stroke="black" stroke-width="1" visibility="hidden"/>
            <line x1="327.8" y1="266.7" x2="328.4" y2="304.4" stroke="black" stroke-width="1" visibility="hidden"/>
            <line x1="311.9" y1="253.7" x2="328.4" y2="253.7" stroke="black" stroke-width="1" visibility="hidden"/>
            <line x1="328.4" y1="253.7" x2="328.4" y2="269.8" stroke="black" stroke-width="1" visibility="hidden"/>
            <line x1="328.4" y1="269.8" x2="327.8" y2="266.7" stroke="black" stroke-width="1" visibility="hidden"/>
            <line x1="310.4" y1="240.7" x2="328.4" y2="240.7" stroke="black" stroke-width="1" visibility="hidden"/>
            <line x1="328.4" y1="240.7" x2="328.4" y2="253.7" stroke="black" stroke-width="1" visibility="hidden"/>
            <line x1="311.4" y1="228.9" x2="328.4" y2="228.9" stroke="black" stroke-width="1" visibility="hidden"/>
            <line x1="328.4" y1="228.9" x2="328.4" y2="240.7" stroke="black" stroke-width="1" visibility="hidden"/>
            <line x1="350.4" y1="203.2" x2="328.4" y2="203.2" stroke="black" stroke-width="1" visibility="hidden"/>
            <line x1="328.4" y1="203.2" x2="328.4" y2="228.9" stroke="black" stroke-width="1" visibility="hidden"/>
            <line x1="310.4" y1="186.7" x2="328.4" y2="186.0" stroke="black" stroke-width="1" visibility="hidden"/>
            <line x1="328.4" y1="186.0" x2="328.4" y2="203.2" stroke="black" stroke-width="1" visibility="hidden"/>
            <line x1="243.8" y1="140.1" x2="328.4" y2="140.1" stroke="black" stroke-width="1" visibility="hidden"/>
            <line x1="328.4" y1="140.1" x2="328.4" y2="186.0" stroke="black" stroke-width="1" visibility="hidden"/>
            <line x1="310.8" y1="94.2" x2="328.4" y2="94.2" stroke="black" stroke-width="1" visibility="hidden"/>
            <line x1="328.4" y1="94.2" x2="328.4" y2="140.1" stroke="black" stroke-width="1" visibility="hidden"/>
            <line x1="328.4" y1="140.1" x2="355.0" y2="140.1" stroke="black" stroke-width="1" visibility="hidden"/>
            <line x1="355.0" y1="140.1" x2="354.5" y2="120.6" stroke="black" stroke-width="1" visibility="hidden"/>
            <line x1="379.6" y1="120.6" x2="380.2" y2="140.1" stroke="black" stroke-width="1" visibility="hidden"/>
            <line x1="380.2" y1="140.1" x2="355.0" y2="140.1" stroke="black" stroke-width="1" visibility="hidden"/>
            <line x1="417.9" y1="120.3" x2="417.9" y2="140.1" stroke="black" stroke-width="1" visibility="hidden"/>
            <line x1="417.9" y1="140.1" x2="380.2" y2="140.1" stroke="black" stroke-width="1" visibility="hidden"/>
            <path class="cls-6" d="M417.9,140.1"/>
            <line x1="432.9" y1="220.5" x2="417.9" y2="220.0" stroke="black" stroke-width="1" visibility="hidden"/>
            <line x1="417.9" y1="220.0" x2="417.9" y2="194.6" stroke="black" stroke-width="1" visibility="hidden"/>
            <line x1="417.9" y1="220.0" x2="418.2" y2="231.4" stroke="black" stroke-width="1" visibility="hidden"/>
            <line x1="418.2" y1="231.4" x2="434.0" y2="231.4" stroke="black" stroke-width="1" visibility="hidden"/>
            <line x1="380.2" y1="359.1" x2="380.2" y2="337.4" stroke="black" stroke-width="1" visibility="hidden"/>
            <line x1="380.2" y1="337.4" x2="354.5" y2="337.4" stroke="black" stroke-width="1" visibility="hidden"/>
            <line x1="354.5" y1="337.4" x2="328.4" y2="337.4" stroke="black" stroke-width="1" visibility="hidden"/>
            <line x1="328.4" y1="337.4" x2="328.4" y2="269.8" stroke="black" stroke-width="1" visibility="hidden"/>
            <line x1="328.4" y1="269.8" x2="350.4" y2="268.7" stroke="black" stroke-width="1" visibility="hidden"/>
            <path class="cls-6" d="M418.2,231.4"/>
            <line x1="406.4" y1="358.9" x2="406.7" y2="337.4" stroke="black" stroke-width="1" visibility="hidden"/>
            <line x1="406.7" y1="337.4" x2="380.2" y2="337.4" stroke="black" stroke-width="1" visibility="hidden"/>
            <line x1="406.7" y1="337.4" x2="418.2" y2="338.8" stroke="black" stroke-width="1" visibility="hidden"/>
            <line x1="418.2" y1="338.8" x2="418.2" y2="293.5" stroke="black" stroke-width="1" visibility="hidden"/>
            <line x1="470.0" y1="324.9" x2="470.9" y2="338.8" stroke="black" stroke-width="1" visibility="hidden"/>
            <line x1="470.9" y1="338.8" x2="439.5" y2="338.8" stroke="black" stroke-width="1" visibility="hidden"/>
            <line x1="439.5" y1="338.8" x2="439.2" y2="312.6" stroke="black" stroke-width="1" visibility="hidden"/>
            <line x1="502.7" y1="358.9" x2="501.1" y2="338.8" stroke="black" stroke-width="1" visibility="hidden"/>
            <line x1="501.1" y1="338.8" x2="470.9" y2="338.8" stroke="black" stroke-width="1" visibility="hidden"/>
            <line x1="513.0" y1="312.6" x2="500.4" y2="313.3" stroke="black" stroke-width="1" visibility="hidden"/>
            <line x1="500.4" y1="313.3" x2="501.1" y2="338.8" stroke="black" stroke-width="1" visibility="hidden"/>
            <path class="cls-6" d="M418.2,231.4"/>
            <line x1="439.2" y1="165.6" x2="438.4" y2="140.1" stroke="black" stroke-width="1" visibility="hidden"/>
            <line x1="438.4" y1="140.1" x2="417.9" y2="140.1" stroke="black" stroke-width="1" visibility="hidden"/>
            <line x1="417.9" y1="140.1" x2="417.9" y2="194.6" stroke="black" stroke-width="1" visibility="hidden"/>
            <line x1="417.9" y1="194.6" x2="395.5" y2="194.2" stroke="black" stroke-width="1" visibility="hidden"/>
            <line x1="452.4" y1="121.7" x2="453.2" y2="140.1" stroke="black" stroke-width="1" visibility="hidden"/>
            <line x1="453.2" y1="140.1" x2="438.4" y2="140.1" stroke="black" stroke-width="1" visibility="hidden"/>
            <line x1="466.0" y1="169.1" x2="465.7" y2="140.1" stroke="black" stroke-width="1" visibility="hidden"/>
            <line x1="465.7" y1="140.1" x2="453.2" y2="140.1" stroke="black" stroke-width="1" visibility="hidden"/>
            <line x1="501.1" y1="120.3" x2="501.1" y2="140.1" stroke="black" stroke-width="1" visibility="hidden"/>
            <line x1="501.1" y1="140.1" x2="465.7" y2="140.1" stroke="black" stroke-width="1" visibility="hidden"/>
            <path class="cls-6" d="M-171.1,194.8"/>
            <line x1="418.2" y1="338.8" x2="439.5" y2="338.8" visibility="hidden"/>
            <line x1="481.5" y1="254.7" x2="481.5" y2="262.4" visibility="hidden"/>
            <line x1="471.4" y1="254.7" x2="471.4" y2="262.4" stroke="black" stroke-width="1" visibility="hidden"/>
            <line x1="471.4" y1="262.4" x2="418.2" y2="262.4" stroke="black" stroke-width="1" visibility="hidden"/>
            <line x1="418.2" y1="262.4" x2="481.5" y2="262.4" stroke="black" stroke-width="1" visibility="hidden"/>
            <line x1="481.5" y1="262.4" x2="481.5" y2="272.6" stroke="black" stroke-width="1" visibility="hidden"/>
            <line x1="461.4" y1="272.9" x2="461.4" y2="262.4" visibility="hidden"/>
            <line x1="449.3" y1="254.7" x2="449.3" y2="262.4" stroke="black" stroke-width="1" visibility="hidden"/>
            <line x1="449.3" y1="262.4" x2="418.2" y2="262.4" stroke="black" stroke-width="1" visibility="hidden"/>
            <line x1="418.2" y1="262.4" x2="461.4" y2="262.4" stroke="black" stroke-width="1" visibility="hidden"/>
            <line x1="461.4" y1="262.4" x2="461.4" y2="254.7" stroke="black" stroke-width="1" visibility="hidden"/>
            <line x1="449.3" y1="272.6" x2="449.3" y2="262.4" visibility="hidden"/>
            <line x1="439.5" y1="255.0" x2="439.3" y2="262.4" stroke="black" stroke-width="1" visibility="hidden"/>
            <line x1="439.3" y1="262.4" x2="418.2" y2="262.4" stroke="black" stroke-width="1" visibility="hidden"/>
            <line x1="418.2" y1="262.4" x2="418.2" y2="231.4" stroke="black" stroke-width="1" visibility="hidden"/>
            <line x1="418.2" y1="231.4" x2="418.2" y2="293.5" stroke="black" stroke-width="1" visibility="hidden"/>
            <line x1="418.2" y1="293.5" x2="396.8" y2="293.5" stroke="black" stroke-width="1" visibility="hidden"/>
            <line x1="439.3" y1="272.6" x2="439.3" y2="262.4" visibility="hidden"/>
          </g>
        </g>
      </g>
      <path class="cls-6" d="M470.9,272.6l.5-10.2"/>
    </g>
  </g>
<line x1="150.4" y1="312.1" x2="133.8" y2="312.1" stroke="red" stroke-width="0.8" marker-end="url(#dynamic-arrow)"/></svg>
