<?xml version="1.0" encoding="UTF-8"?>
<svg xmlns="http://www.w3.org/2000/svg" version="1.1" xmlns:inkscape="http://www.inkscape.org/namespaces/inkscape" xmlns:sodipodi="http://sodipodi.sourceforge.net/DTD/sodipodi-0.dtd" xmlns:svg="http://www.w3.org/2000/svg" xmlns:xlink="http://www.w3.org/1999/xlink" viewBox="0 0 595.3 841.9">
  <defs>
    <style>
      .cls-1 {
        clip-path: url(#clippath-34);
      }

      .cls-2 {
        fill-opacity: 0;
      }

      .cls-2, .cls-3, .cls-4, .cls-5, .cls-6 {
        stroke: #000;
      }

      .cls-2, .cls-7, .cls-8, .cls-9 {
        fill: #fff;
      }

      .cls-2, .cls-5 {
        stroke-miterlimit: 11.3;
        stroke-width: .8px;
      }

      .cls-10 {
        clip-path: url(#clippath-38);
      }

      .cls-11 {
        clip-path: url(#clippath-21);
      }

      .cls-12 {
        clip-path: url(#clippath-6);
      }

      .cls-13 {
        clip-path: url(#clippath-7);
      }

      .cls-14 {
        clip-path: url(#clippath-17);
      }

      .cls-3 {
        stroke-miterlimit: 10;
      }

      .cls-3, .cls-4, .cls-15, .cls-5, .cls-6 {
        fill: none;
      }

      .cls-16 {
        clip-path: url(#clippath-31);
      }

      .cls-7, .cls-8, .cls-4, .cls-5, .cls-17, .cls-6, .cls-9 {
        isolation: isolate;
      }

      .cls-7, .cls-8, .cls-4, .cls-5, .cls-6, .cls-9 {
        font-family: ArialMT, Arial;
      }

      .cls-7, .cls-5 {
        font-size: 14px;
      }

      .cls-18 {
        clip-path: url(#clippath-15);
      }

      .cls-19 {
        clip-path: url(#clippath-33);
      }

      .cls-20 {
        clip-path: url(#clippath-18);
      }

      .cls-21 {
        clip-path: url(#clippath-47);
      }

      .cls-22 {
        clip-path: url(#clippath-4);
      }

      .cls-23 {
        clip-path: url(#clippath-22);
      }

      .cls-24 {
        clip-path: url(#clippath-23);
      }

      .cls-25 {
        clip-path: url(#clippath-9);
      }

      .cls-26 {
        clip-path: url(#clippath-10);
      }

      .cls-27 {
        clip-path: url(#clippath-42);
      }

      .cls-28 {
        clip-path: url(#clippath-43);
      }

      .cls-29 {
        clip-path: url(#clippath-25);
      }

      .cls-30 {
        clip-path: url(#clippath-27);
      }

      .cls-8, .cls-4 {
        font-size: 13.9px;
      }

      .cls-4 {
        stroke-width: .3px;
      }

      .cls-31 {
        clip-path: url(#clippath-11);
      }

      .cls-32 {
        clip-path: url(#clippath-36);
      }

      .cls-33 {
        clip-path: url(#clippath-35);
      }

      .cls-34 {
        clip-path: url(#clippath-48);
      }

      .cls-35 {
        clip-path: url(#clippath-28);
      }

      .cls-36 {
        clip-path: url(#clippath-1);
      }

      .cls-37 {
        clip-path: url(#clippath-45);
      }

      .cls-38 {
        clip-path: url(#clippath-46);
      }

      .cls-39 {
        clip-path: url(#clippath-40);
      }

      .cls-40 {
        clip-path: url(#clippath-5);
      }

      .cls-41 {
        clip-path: url(#clippath-20);
      }

      .cls-42 {
        clip-path: url(#clippath-8);
      }

      .cls-43 {
        clip-path: url(#clippath-41);
      }

      .cls-44 {
        clip-path: url(#clippath-3);
      }

      .cls-45 {
        clip-path: url(#clippath-26);
      }

      .cls-46 {
        clip-path: url(#clippath-12);
      }

      .cls-6 {
        stroke-width: .2px;
      }

      .cls-6, .cls-9 {
        font-size: 14.1px;
      }

      .cls-47 {
        clip-path: url(#clippath-14);
      }

      .cls-48 {
        clip-path: url(#clippath-30);
      }

      .cls-49 {
        clip-path: url(#clippath-19);
      }

      .cls-50 {
        clip-path: url(#clippath-32);
      }

      .cls-51 {
        clip-path: url(#clippath-39);
      }

      .cls-52 {
        clip-path: url(#clippath-16);
      }

      .cls-53 {
        clip-path: url(#clippath-2);
      }

      .cls-54 {
        clip-path: url(#clippath-29);
      }

      .cls-55 {
        clip-path: url(#clippath-49);
      }

      .cls-56 {
        clip-path: url(#clippath-37);
      }

      .cls-57 {
        clip-path: url(#clippath-13);
      }

      .cls-58 {
        clip-path: url(#clippath-24);
      }

      .cls-59 {
        clip-path: url(#clippath);
      }

      .cls-60 {
        clip-path: url(#clippath-44);
      }
    </style>
    <clipPath id="clippath">
      <path class="cls-15" d="M-.4,35.6v64.4c.5.4,1,.7,1.6.9h.2c.6,0,1.2,0,1.8-.1.4-.2.8-.2,1.1,0h2.9c1.7,0,2.2-.4,1.5,2.3,0,.2,0,.4-.1.4h0c0,.2-1.6.5-1.7.5-1,.2-1.9.2-2.9.2v.7c.4.1.8.2,1.1.3,2.6.7,2,3.2-.7,2.6-.5,0-1-.2-1.5-.4-.5.6-1.2,1.1-1.9,1.5,0,.2-.2.3-.3.5.2.1.4.2.7.4,1.9,1.1,1.3,2.9-.2,2.7v3.2c0,1.3,0,2.5.4,3.7.5,1.2,1.1,2.5.9,3.8-.3.8-.6,1.6-1.2,2.2,0,.5.6,1,.8,1.5.4.8.4,1.8.5,2.7,0,1.9.3,3.8,0,5.7-.3,1.8-.9,3.6-1.1,5.5v5.4c0,1.8,0,3.7.1,5.5,0,1.8.2,3.6.4,5.4,0,1.5,0,3-.8,4.4-.6,1.6-.4,3.4-.2,5.1.4,2.5.9,5,1.5,7.5.4,2.2.8,4.4,1.3,6.6.6,2.1-1.1,3-2.1,1.8,0,1.1.2,2.3.3,3.4h.2c0,0,0,.2,0,.3v3.4c0,1.6.2,3.3.3,4.9.2,5,.5,10,.4,15,0,3.2-.5,6.3-1.3,9.4,0,.8,0,1.6-.1,2.4.4.3.7.8.8,1.7.3,3.5.5,7,.6,10.6h0c0,3.2.2,6.2.2,9.3v11.1c.2.6.2,1.3.2,1.9.2,1.6.2,3.3.2,4.9,0,1.2,0,2-1.2,1.6,0,.7-.2,1.3-.4,2-.3,1.4-.3,2.9-.4,4.3.2,1.2.4,2.5.6,3.7.7,5,.2,10-.8,14.9,0,.2-.1.5-.2.7,0,2.8,0,5.6.4,8.3.5,3.9.8,7.7,1.1,11.6.2,3.6.3,7.2.3,10.8v.6c.4,1,.4,2,.3,2.9.4.3.7.9.7,1.7v3.7c0,1.6.2,3.3.4,4.9.2,1.8.8,3.5.3,5.4-.2.4-.4.7-.7.9v4c0,3.2-.4,6.5-.6,9.7,0,2.3-.5,4.6-1.6,6.6-.2.3-.4.5-.6.7.1,2.2.3,4.4.4,6.6.2,3.3.3,6.7.4,10,0,2.4.2,4.7.5,7,.3,2.4.4,4.9.3,7.3,0,2.2-.4,4.4-.7,6.5v6.3c-.1,2.5-.4,4.9-.8,7.3,0,.4-.2.9-.3,1.3.6.2,1.1.8,1.1,2v17.3c-.2,2.8-.3,5.6-.7,8.4-.3,1.6-.5,3.3-.6,4.9,0,1.3.2,2.6.2,4,.4,2.9.8,5.7,1.2,8.5.2,1.1-.2,1.8-.7,2.1.2,1.6.4,3.3.4,5s0,4,.1,6v7.4c0,2.4-2.2,2.7-2.6.7v69.5h73.4c0-.4,0-.8.2-1.3.3-1.1.6-2.1,1-3.2.6-1.8,1.6-2.5,2.6-2.6,1.4,0,2.5,1.6,1.7,4.2,0,.4-.2.7-.3,1.1h.8c1.5-.4,2.9-1,4.4-1.5.3,0,.5,0,.8,0v-1.9c0-2.3,1.2-3.4,2.3-3.4s2.3,1.1,2.3,3.4v5.4h62.2v-.4c0-2.5-.4-3,.4-3.1v-.4c.3-2.3,1.6-3.4,2.7-3.4s2.1,1.1,1.9,3.4v.5c.5,0,1.1,0,1.6.2,1.1,0,2.1.2,3.1.5-.3-2.3.8-3.6,2-3.6s2.3,1,2.6,3.1c.2,1,.3,2.1.5,3.1h37.4v-.2c0-1.8.9-2.8,1.8-3.1v-.3c.5-1.7,1.4-2.5,2.3-2.6.5-.7,1.2-1.1,1.9-1.1,1.3,0,2.4,1.4,1.9,3.9,0,.4-.2.9-.2,1.3.9,0,1.8-.2,2.7-.3,1.5-.2,2.9-.8,4.3-1,3.3-.5,4.6,1.8,3.2,3.4h35.5v-1.5c.1-1.5.2-3,.6-4.5.5-1.9,1.6-2.8,2.6-2.8s1.3.4,1.7,1c.2,0,.3-.2.4-.2,1.3,0,2.5,1.3,2.1,3.8-.2,1-.5,2-1,2.9,1-.3,2-.5,3-.8.9-.2,1.8-.3,2.7-.3,2.3,0,3.5,1.1,3.5,2.3h31.7c0-.9.2-1.8,0-2.7v-4.3c0-2.3,1.1-3.4,2.3-3.4s2.3,1.1,2.3,3.4v3.8c.1-.4.3-.9.6-1.4.4-.4.7-.8,1.1-1.1.8-.4,1.5-.4,2.2-.2v-.4c0-2.3,1.2-3.4,2.3-3.4s1.8.8,2.1,2.3h.1c.5,0,1,.3,1.4.7.4.3.8.9.8,1.8v4.7h33.7v-2.3c-.2-2.3,1-3.4,2.2-3.4s2.5,1.1,2.4,3.4v.4c1.8-1.4,3.4-.9,5.4-.7-.1-1.2-.2-2.3-.1-3.5,0-2.3,1.3-3.4,2.5-3.4s1,.3,1.4.7c1.1,0,2.3,1.1,2.3,3.4v5.4h92.8c0-.7.3-1.4.4-2.1,1.6-2.4,4.1-3.3,6.8-3.5,0-.8,0-1.5-.2-2.4-.6-2.5.6-3.9,1.9-3.9h.3v-1.1c0-2.3,1.2-3.4,2.3-3.4s2.3,1.1,2.3,3.4v9.4c.1,0,.3.2.4.2,1,.6.5.3,1.5.9,1.2.8,1.8,1.7,1.9,2.5h62.9c.2,0,.4-.3.6-.4-.5-.8-.7-1.6-.7-2.7.2-2.3,1.3-3.4,2.4-3.4s.8.2,1.1.5c.4-.3.8-.5,1.3-.5,1.1,0,2.2,1.1,2.1,3.4v1.1c.5,0,1,0,1.5,0,.9,0,1.9-.2,2.8-.2,2.3,0,3.4,1.2,3.4,2.3h37.9v-73c-.2-.1-.4-.3-.6-.4-.6-.9-.7-2-.8-3v-.4c-1.2-.3-2.1-1.1-2.6-2.3,0-1.5.7-2.2,2-2.5h.2c-1.2-.3-2.4-.6-3.7-.7-2.6-.1-2.3-2.7,0-2.7h.2c.6,0,1.1.2,1.7.3-.2-.5-.4-.9-.6-1.4-.7-1.5,0-2.6.9-2.6s.8.2,1.2.8c-.2-1.8-.4-3.5-.5-5.3v-3.1c-.6-1.7-1.2-3.4-1.7-5.1-.4-1.5.2-2.3,1-2.3s.5,0,.7.2c0-2.7,0-5.4.2-8.1.2-4.4.5-8.8.5-13.2v-5.2c0-1.3,0-2.6-.2-3.8-.3-2.8-.8-5.5-1-8.3-.3-2.5,0-5,0-7.6,0-2.4,0-4.7.3-7.1,0-1.8.5-3.5.9-5.2v-21.2c-.4.7-.9,1.1-1.6.9-.6-.1-.9-.7-1.4-1.1-.7-2.4-.2-5,.2-7.4.4-2,.6-4,1.2-6,0-.8-.2-1.9-.3-3-.2-.5-.2-1-.3-1.4-.3-4,0-7.9.5-11.9,0-1.8,0-3.6,0-5.4,0-1.6.4-3.1.8-4.7.3-2.7.6-5.4,1-8.1v-.6c-.2-2.4,0-4.9,0-7.3v-1.2c-.4-2-.7-4-1.1-5.9-.7-3.2-1.5-6.4-1.7-9.8v-1.3c-.3-1.3-.3-2.6,0-4,0-.2,0-.4,0-.5,0-1.3,0-2.7,0-4,.2-2.6.5-5.2.7-7.7,0-1,0-2,0-3v-.8h.9c0-1.5,0-3-.2-4.4-.7-.2-1.4-.4-1.9-.9-.4-.5-.5-3.8-.4-4.2,0-3.9.9-7.7,1.6-11.5,0-1.1-.3-2.2-.2-3.3v-.8c-.5-3.8,0-7.6.3-11.3v-8.8c-.3-1.2-.6-2.3-.8-3.5-.3-1.2.2-2,.8-2.1-.5-2.2-.8-4.5-1.1-6.8-.3-2.8-.5-5.6-.6-8.4-.2-2.6,0-5.2,1-7.7.8-1.9,1-4,1.2-6.1.2-2.1.3-4.2.3-6.2s0-3.7-.8-5.4c0-.2-.2-.3-.3-.5-.9-1.4-.2-2.5.7-2.5s.4,0,.5.1c0-1,0-2,0-3,0-2.5,0-5.1,0-7.6,0-1.9.3-3.7.6-5.6,0-.3.2-.7.3-1v-6.4c.2-2,.4-4,.6-6.1,0-1.9.2-3.8.2-5.6v-1.7c-.5-1.8-1.1-3.5-1.4-5.3-.2-1.3-.2-2.7-.2-4-.3-1.2-.6-2.4-.9-3.5-.7-3.2-.7-6.4-.8-9.7v-7.1c0-2.6,0-5.2-.2-7.8-.9,0-1.3-1-.8-1.9-1.5-.8-1.3-2.4.3-2.4h.4v-1.5c0-.1,0-.3,0-.3h1.1c.4,0,.6,0,1.6-.1,0,0,0,.2,0,.3v1.7h.6c.4-.2.7-.3,1.1-.5v-61.3h-29.1c0,1.5-1.5,2.8-4,1.8-.5-.2-.2,0-.9-.2-.9,0-1.8-.3-2.6,0,0,.6-.3,1.2-.5,1.8-.8,1.6-2.3,3.2-4.3,2.8-.4,0-.8-.4-1.2-.5-1.9-1.9-1.4-3.7,0-5.5h-90c1,1.3,0,3.4-2.9,3.5h-3.5c-1.6,0-3.2.2-4.8,0-.3.3-.5.6-.8.9-.7.1-1.5.7-2.2.4-1.4-.6-2.3-2.7-2-4.2,0-.2.1-.5.2-.7h-86.8c.4,3.4-2.3,4.5-3.8,2.5h-.4c-1,0-2-.3-3-.4-.3,2-1.3,4.2-3.7,4.1-.5,0-.9-.3-1.3-.5-1.1-.9-1.4-1.8-1.3-3.2,0-.3.2-.6.2-.9s-.1-.8-.2-1.2v-.4h-37.2c1.1,1.4,0,3.4-3,3.4h-5.4c-.6,0-1.3,0-1.9-.2-1.1,2.3-4.2,1.6-4.2-2.1v-1.1h-123.8c1.2,1.3.4,3.5-2.7,3.7-2,.1-4.1.4-6.1.1-2-.3-3.9-.8-5.3-2.3-.3-.5-.6-1-.8-1.5h-41.8c0,2-1.3,3-2.4,2.8-.5.2-1,.3-1.4.4h-1.4c-2.1.1-4.2,0-6.3-.2-.7,0-2.5-.1-2.9-.7-.7-1-1-1.8-1-2.4h-51.7c1.2,1.4-6,2.6-3.2,3.5.2,0,.4,0,.6.2h-.2c-.2,0-.3,0-.5-.1-.7-.1-1.5,0-2.1-.1-1.7,0-3.3,0-5-.2-1.1,0-2.3-.2-3.4-.4.5-.5.3-.6.2-.7,0,.5-.6.3-2.3,0-2.9.3-2.3.6-2.3-2.3H-.4ZM299.2,35.9v.2h0v-.2ZM447.5,36.6h-.1q0,.2.1,0ZM553.4,37.3c-.2.1-.4.5,0,0ZM347.7,37.7c-.3.3-.2.6,0,0ZM101.6,37.8c0,0-.3,0-.4.1,0,0,.2,0,.4-.1ZM-.4,103.6v.3h.4c-.1-.1-.3-.2-.4-.3ZM89.9,109c1.2,0,1.9,1.3,1.2,3.6-.5,1.6-1.4,3.1-2.3,4.5.3,0,.5.1.9.2,1.9.2,3.8.5,5.5,1.4,4.1,2,1.8,6.5-2.1,4.1-1.3-.8-2.9-.6-4.3-1-1-.2-2-.5-2.9-.9-1,.8-2.2,1.4-3.5,1.9-1,.3-2.2.6-3.4.7h0c-.7,0-1.2,0-1.7,0,0,.7-.3,1.5-.7,2.2-1.3,1.2-1.2,1.6-3.8.6-.4-.2-.5-.8-.8-1.1-1.3-1.9.6-1.5,2.4-1.1,0-.5-.2-.8,0-.8v-.9c-.6,0-1.2.3-1.6.9v.2s0,.2,0,.1v-.2c.2-.9,0-1.8,0-2.6,0-1.8.7-2.8,1.5-3.2v-.6c0-2.3,1.1-3.4,2.3-3.4s2.3,1.1,2.3,3.4v2.1h.3v-1c0-1.6.4-3.3.3-4.9,0-2.3,1.1-3.4,2.2-3.4s2.3,1.1,2.4,3.4v2.4h.3c.7-1.2,1.4-2.3,2-3.6.9-1.9,2.3-2.8,3.3-2.7v-.4ZM74.3,123.3c0,.8.2,1.1,1.4.7v-.5c-.9-.1-1.3-.3-1.5-.2h0ZM75.7,124v.4c1,.2,1.5.1.9-.7-.3,0-.6.2-.8.3h0ZM108.2,112.4c.7,0,1.4.7,1.6,2,.2,1.3.3,2.7.5,4,.5-.8,1.8-.8,2.6.8.5,1.2.6,2.4-.6,3.2-1.6.8,1.8,3.2-3,2.2,0-.2-.3-.5-.4-.7h-1.1c-1.2-.4-2.4-.2-3.4-1.1,0-.5,0-.9,0-1.3-1.7-1.4-.4-3.3,1.1-2.6.3-.3.5-.6.8-.8v-.2c0-1.1.5-1.7,1.1-1.9,0-.5,0-1.1-.2-1.6-.2-1.3.4-2,1.1-2h0ZM78.9,119.1v.8l.2.2v-.8s0,0-.2-.2ZM79.1,120.1h0v.2-.2ZM79.1,120.2h0c0-.1,0-.1-.2-.1v.6s0,0,.2,0c0,.2,0-.2,0-.5h0ZM110.8,120h0c0,.1,0,0,0,0ZM79.1,120.6h0c.3.2.5.2.6,0-.2,0-.4-.1-.5-.2v.2ZM-.4,121.7v1.5c0-.2.2-.5.2-.7,0-.3-.1-.5-.2-.8ZM-.4,128.3v7.2c0-.2,0-.5.2-.7.3-1.7.1-3.4,0-5,0-.5,0-1-.2-1.4H-.4ZM298.8,130.3c1.9,0,3.8,1.9,3.9,5.7,0,2.1.2,4.3.3,6.4,0,1,.2,2,.2,3,.4-.3.8-.5,1.3-.7.7-.2,1.5-.1,2.3-.2,2.5,1.2,2,.9,3.4,2.2.8.6,1.4,1.4,2.1,2,1.2,1.2,1.8,2.3,2.1,3.9,1,5.1-3.7,0-6.3-1.4,0,0-.1.2-.3.3,0,.1-.2.3-.3.5-.3.6-.5,1.2-.7,1.8v.6l-.2-.2c-.2.7-.4,1.5-.5,2.3,0,1.4,0,4.4-1.6,5.2-3.7,1.9-3.8,1.1-6-.7-1.3-2.2-1.8-4.7-2.3-7.1-.6-3.6-.8-7.3-1.1-10.9-.1-2.3-.3-4.5-.4-6.8,0-3.8,1.9-5.7,3.8-5.7l.3-.2ZM308,151.5c.1-.2.2-.3.2-.3-.9-.5-1.6-.5-1.5.7.3,0,.5,0,.8-.2.2,0,.4-.2.5-.3h0ZM519.7,135.6h0c1,0,2.2.9,2.8,2.7.4,1.3.8,2.6,1.3,3.9.7,1.6,1.1,3.2,1.2,4.9v1.8c.4,3.9-3.1,4.7-4.3,1.9h-.4c-1.2-.1-2.5-.2-3.7-.4-1.2,0-2.4.2-3.6.3-1.8,0-3.3-.4-4.4-1.9,0,0-.2-.2-.3-.4h-.3c-.5,0-1.3.3-1.8.4-.4,0-1.2.5-1.6.4-1,1.8-.8,3.1-3.3,3.7-.6-.2-1.3-.3-1.9-.6-1.4-.8-1.2-3-1.3-4.3v-4.3c0-2.3,1.2-3.4,2.3-3.4s2.3,1.1,2.3,3.4v1.5c1.4-.7,2.9-1,4.5-1.3,2.3-.4,3.8.3,5.2,2.1l.2.2c.2,0-.2,0,0-.2h.3c1.4-.1,2.7-.3,4.1-.3,1.2.1,2.4.2,3.5.4-.2-.7-.4-1.4-.7-2.1-.6-1.5-1-3-1.5-4.5-.8-2.4.3-3.9,1.6-3.9h-.2ZM29.4,135.9c.9,0,1.9.3,2.7.6,1.2.5,2.4,1.3,3.7,1.2,2.7,0,2.7,2.6,0,2.7-1.5,0-2.9-.6-4.2-1.2.5.5.9,1,1.2,1.7,1.2,2.4-1.2,3.3-2.5,1,0-.1-.2-.3-.3-.5,0,.5.2.9.3,1.4.3,1.5.1.7.4,2.2,0,.6,0,1-.2,1.3,1,2.2-1.3,3.3-2.5,1-.8-1.5-1.6-3.1-2-4.8-.2-1.6-.1-3.2,1-4.1v-.6c.2-.3.3-.7.6-1,.6-.6,1.2-.8,1.9-.9h0ZM483,138h0c1.6,0,3.1,1.3,3.6,3.8h.1c1.9.1,3.7.4,4.8,2,.1.4.3.8.4,1.2.2,1.3-.6,2.4-1,3.5-.7,1.8-1.5,3.1-3.1,3.6.8,1.6,1.4,3.2,2.2,4.8,1.3,3.5,2.5,6.4,1.6,10.2-.6,3.3-1.3,9.4-6.2,8.9.1,1.5.2,2.9.3,4.4v9.1c0,3,.1,5.9.3,8.9.2,2.9.5,5.8.4,8.7,0,3.2,0,6.5.1,9.7,0,3,.2,6.1-.2,9.1-.3,3-.7,6-.7,9v9.2c0,3.5.1,6.9.4,10.3.2,2.6.4,5.1.5,7.7.1,1.9.3,3.7.7,5.5.5,2.7.6,5.4.4,8.2v2.6c0,2.5.2,4.9.6,7.4.9,3.9,1.8,7.8,2,11.8.5,5.2.7,10.4.6,15.6s-3.7,6.7-5.9,4.8h0v1.5c-.4,6.3-6.6,6.7-7.7,2.5h-1.4c-7.6.2-7.5-8.5,0-7.7h1s.2,0,.3-.1c0-1.1-.1-2.1,0-3.2,0-3.8,2-5.7,3.9-5.7s1.5.3,2.2.9c0-2.7-.3-5.4-.5-8-.2-3.7-1-7.2-1.9-10.8-.3-1.4-.4-2.8-.5-4.2-.2,0-.4.1-.6.2-3,.8-4.7-.5-4.7-2.2-1.1-.4-2.1-1.7-1.9-4,0-.9.2-1.9.3-2.8.4-2.4,1.6-4.1,4-4.8.7-.1,1.3-.2,2-.2h.3v-.6c-.4-2.1-.6-4.2-.8-6.3,0-2.6-.4-5.2-.5-7.7-.1-2.2-.2-4.3-.2-6.5-.3,0-.4,0-1.3.2-2.7.3-4.2-.9-4.3-2.3-.7-.7-1-1.8-.7-3.3.1-.7.9-1.4,1.3-1.9.4-.3.6-.6.7-1.1.4-2.1,1.6-3.1,2.8-3.2.5,0,.9,0,1.3.3v-2.3c0-3.3.3-6.6.7-9.9.3-2.7.2-5.4.2-8.1s0-6.6-.1-9.8c0-2.7-.2-5.5-.4-8.2-.2-3.1-.3-6.2-.3-9.3v-9.2c-.2-2.5-.4-5-.5-7.5-.1-2.9-.2-5.7-.2-8.6s0-5.3.1-7.9c.2-2.6.7-5.1,1.2-7.6.4-1.7.5-3.5.5-5.2,0-3.8,1.9-5.7,3.8-5.7v.3ZM487.5,145h0v.3-.2h0ZM508.5,148.3h-.1c.1,0,.4.1.3,0h-.2,0ZM502.6,149.2v.4c.1.4,0,0,0-.4ZM487.3,149.3c0,.6.2.4,0,0ZM30,154.6c.9,0,1.7.2,2.5.3,2.7.4,2,2.8-.7,2.6-.7,0-1.6-.4-2.4-.2.6,1.2,1,2.4.8,3.8-.4,1.4-.4,2.7-.2,4.2.2.8,0,.5.3,1.1.8,2.6-1.9,3.3-2.6.7-.3-.9-.1-.4-.3-1.5-.3-1.7-.3-3.3.2-5h-.3c-1,.2-1.2-2.1-1.1-2.6v-.7c-.1-.7-.1-1.4.2-1.5h.6c.2-.2.3-.4.5-.6.7-.6,1.5-.7,2.4-.7h.1ZM305.1,156.5h0v.3c.1,0,.1-.2,0-.3ZM569.1,157.2h.6c5,.2,5.3,4.8,1.1,5.4.8.7,1.3,1.7,1.4,2.7,3.3.4,3.5,4.3-.9,5.5-1.1.3-2.3.6-3.4,1-4.1,1.3-5.9-1.8-3.9-3.9-.8,0-1.1-.2-1-.9v-1.3c0-1.9.6-3.1,1.4-3.6-1.8-1.4-1-4.4,2.8-4.7.6,0,1.2,0,1.8-.1h.1ZM174.8,170.3c2.1,0,4.2,2.4,3.5,6.6-.5,2.9-1,5.8-1.4,8.7-.3,1.9-.6,3.8-.7,5.6,2.8,3-6.5,2.2-7.1,3.7.2.3.5.6.9,1.1.2.2,1.1.8.6.4-1.2-.7-1.6-1.2-1.5-1.6-.5-.7-.4-.9-.6-2.2,0-2.8.5-5.6.9-8.4.5-3.1,1-6.2,1.6-9.3.6-3.3,2.3-4.8,4-4.8l-.2.2ZM-.4,173.6v1.4h.2c.1,0,0,0,.1,0v-.4c0-.3-.2-.7-.2-1h0ZM568.1,178.4c1.6,0,3.1,1.6,2.5,3.9.7,0,1.3,0,1.8.3h0c1.3-.8,2.5-1.1,3.5-1,2.4,0,3.3,2.3.4,4.9-1.2,1.1-2.8,1.8-4.1,2.6-1,.6-.6.3-1.4.8-3.4,2.2-5.9.1-5-2.2v-.4c-.2,0-.4-.2-.5-.3-.4-.3-.7-.8-1.1-1.1-.2-2-.6-2.1.2-3.4.3-.4.7-.8.9-1.3.5-1.9,1.7-2.8,2.8-2.8h-.1ZM116.8,178.6c.7,0,1,.3,1.7.9,2,1.8-4.5.1-2.2,1.6.4.2.4.4.6.3.3-.2.4-.4.4-.5,0,0,0,.6.2,1.6.2.7.5,1.4.7,2.2,1.7-.4,3.3-.9,4.9-1.4,2.5-.9,3,1.8.4,2.7-1.4.5-2.9.9-4.4,1.3.4.3.6.7.6,1.3h1.8c2.5,0,2.7,2.3.5,2.7h0c-1.9,1.9-2.2,2-2.7.8-.2,0-.4,0-.7,0-.2.3-.6,1.1-1,1.1-1.3-.2-1.9-.6-2.1-1.1h-2c-1.8,0-2.3-1.4-1.6-2.2-3-1.4-.5-3.8,2-4.2.5-.1,1-.3,1.5-.4-.2-.7-.4-1.3-.6-2-.3-1.3-.9-3.2.5-4.2.3-.2.7-.3,1.1-.4h.3v-.2ZM430.5,179.4h0c1.2,0,2.3,1.4,2,3.7-.2,1.1,0,.5-.3,1.6v.2c.2.6.5,1.2.6,1.8v1.4c2.8.8,5.3,2.1,7.9,3.2,4,1.8,8,3.6,12.2,5.1.4.1.6.2.9.3.2,0,.6,0,.5.2,1,.4.3.8-.9,3.5-.6,3.1-.5,3.9-1.4,3.8h-.3c-.5-.1-.9-.3-1.4-.4-.8-.2-1.7-.4-2.5-.6-1.2-.3-2.3-.5-3.5-.8-7-1.5-14-2.7-20.9-4.2,0,.6-.6.9-2.1.9s-1.4.3-2.1,0c-1.1-.5-2.2-1.2-3.1-2.1s-.4-.5-.5-.8c-4.6-2.2-3.4-7.3,1.9-7.1.2-.2.5-.5.8-.7,1.7-1.2,3.8-1.6,5.9-1.6s1.3,0,2,0c.2-.4.4-.9.8-1.4.2-.3.3-.5.5-.8,0-.1,0-.3-.1-.4-.4-1-.3-1.9-.1-2.9.1-.8.4-1.2.8-1.2s.4.3.6.4c.5-1.1,1.3-1.6,2.1-1.6l-.3.4ZM113.1,188.8h-.2c0,.1,0,0,0,0h0ZM118.2,192.4h0c-.2.4,0,.1,0,0ZM422.7,194.9h0c-.2,0-.8.3-.6.4h.3l.3-.3h0ZM594.9,220h0v2h0v.4-2.5h0ZM115.8,225.5c.8,0,1.5.9,1,2.3v.2c.4.2.8.6,1,1.3,0,.2,0,.3.2.5h1.9c2.7,0,2.6,2.2,0,2.7h-1.6c0,.7-.2,1.5-.6,2.2,0,.1-.2.2-.3.3,1.4.3,2.8.1,4.3.2,2.7.1,2.7,2.7,0,2.7s-3.4,0-5.1-.3c-1.4-.3-2.3-1.2-2.9-2.3-.4-.7-.6-1.4-.7-2.2,0-1.8.2-3.5.9-5.1.3-.8.2-.4.4-1,.3-1.1,1-1.6,1.6-1.6h-.1ZM475.5,241.7c-.2,0-.5,0-.7.2.3,0,.7-.1,1-.2h-.4.1ZM-.4,259.2v.3c0,.4.2.8.3,1.3C0,260.5,0,260.3,0,260c0,0-.2,0-.2-.1,0,0,0-.3-.2-.7h0ZM173.3,270.6c1.1,0,2.2,1,2.5,3.1.1,1,0,.5.2,1.4.1,1,.3,1.9.4,2.9,1.6-.8,3.3-1.3,2.8.8-.1.7-.4,1.4-.7,2.1,2.1,1.8,1.3,5.1-2.8,6.1.3.2.4.3.7.5,1.2.2,2.4.2,3.6.5,7.3,2.2,5.7,8.4-1.9,7.4-1.6-.2-3.2-.4-4.8-.8-1.4-.4-2.7-1.1-4.1-1.8-2.4-1.3-3.5-2.9-3.6-4.4-.2-.2-.5-.3-.7-.4-.4-1.6-1.6-3.2-1.2-4.8.6-3.2,5.1-3.3,8.2-3.4-.1-1.3-.3-2.7-.5-4-.1-1,0-.5-.2-1.6-.3-2.4.9-3.7,2.1-3.7h0ZM480.2,275.2h-1.5c.1.4.4-.5.4.3s-.2,1.6-.2,2.4v.5c.1,0,.3,0,.4-.1.4-.1.7-.3,1.1-.4v-2.7h-.2ZM174.7,278.1h0c-.8.9-.7,1.1-.3.9.2-.5.5-1,.4-1h0ZM176.1,283.9h-.3c.5.1.5.3.3,0ZM429.8,284.9h1.3c1,.1,5.7.2,6.1,1,.9,1.7,1.2,3.7,1.7,5.5,1.5.7,2.8,1.8,2.8,3.4,0,3.8-1.3,3.9-3.5,5-.9.3-1.8.3-2.7.4,2.6.6,2.7,3.6-1,4.5-1.5.3-3,.5-4.5.5-3.9,0-4.4-3.4-1.7-4.4-.2-.1-.4-.2-.6-.3-2-.1-4.1-.2-6.1-.4-.1,0-2.6-.3-2.9-.6-1-.7-1.8-1.6-2.7-2.5.2-1.4.3-2.8.6-4.2.3-1,3.6-3,4.6-3.4.9-.4,1.9-.8,2.9-1.2.3-.2.6-.4,1.2-.6,0-1.6,1.5-3,4.3-3l.2.3ZM430.8,300.8h-1.3,1.4-.2,0ZM-.4,302.3v2.6s0,0,.2.1c0-.9-.1-1.8-.2-2.7ZM107.5,318.5h1.4c2.7,0,2.7,2.7,0,2.7.2.4.3.9.2,1.6,0,.7-.2.8-.2,1,.5.2.9.9.9,1.9s0,1.2-.2,1.9h.5c.7-.2,1.3-.4,1.9-.7.4-.1.7-.2,1.1-.2,1.3,0,1.8,1.2,1,2.1,0,.7-.5,1.5-1.9,1.5h-1.7c-1,.3-2,.5-3.1.6h-.9c-2.7.3-2.9-2.4-.2-2.6h.3c-.7-1.5-.7-3-.4-4.6.2-.9,0-.5.3-1.4,0-.5.3-.8.5-1.1-2.1-.4-1.9-2.7.6-2.7h-.1ZM107,327.1h0c0,.1,0,0,0-.1h0ZM1.1,327.2c-.2.4-.5.7-.7,1.1,0,.4.1.9,0,1.2.3,0,.7,0,1-.1v-1.6c-.1,0-.2-.2-.2-.4v-.2ZM594.7,328.5c0,.4,0,.9,0,1.3h.2c0-.4,0-.9,0-1.3h0ZM1.4,339.9c-.3,1.4-.6,2.8-.7,4.2,0,1.7,0,3.4-.1,5.2,0,.7.2,1.5.3,2.2.2-2.8.4-5.6.5-8.4v-3.1h0ZM173.1,352.7c.7,0,1.4.2,2.3.6.6.3,1.1.6,1.8.7,4.5.1,3.4,4.9-1.1,4.5h-.4c.7.6,1.5,1.2,2.2,1.8,3.2,2.9,2.7,5.5.7,8,0,3-2.3,4.6-4.4,4.1-1.6,1.1-3.2,1.5-5.9,1.3-3.7-.6-5.6-1.6-6.1-6-.1-1.2,1-3,1.6-4,.8-1.1,1.8-2.3,3-3.2-1.6-2.8-.3-5.4,2.4-5.5.6,0,1.2.1,1.9.4-.4-1.3.4-2.5,1.9-2.6h.1ZM168.2,365.5c-.1,0,0,.2.6.4-.2-.2-.4-.3-.5-.3h-.1ZM481.9,375h1c4,0,5,3.1,3,4.6,0,.5,0,1-.5,1.6,1.4,1.3.8,3.8-2.6,4.7-1.4.3-2.7.7-4.1,1-3.1.6-4.8-1-4.5-2.6-.2-.1-.3-.2-.5-.3-.5-.4-.7-1.8-.9-2.5,0-.3,0-.6-.1-1-.3-2.8,1.1-4.3,2.5-4.3s.2.1.4.1c.6-.6,1.6-1.1,3.1-1.2h3.2ZM430.9,382.5h0c1.5,0,2.5.7,3.8,2.1.2.3.4.7.6,1h.4c2,0,3,1.8,1.9,3.7.5.9,1.1,1.8,1.7,2.6,2.4,3.7-.2,6.2-2.9,4.6,2.4,1.8,1.6,5.6-3.4,6.8-3.5.8-5.8.6-8.2-2.2-.5-.6-1.8-2.2-2.6-3.6-2.6-1.6-2.3-4.7.8-6-.8-1.6.6-3.7,4-3.5.8,0,1.6.1,2.3-.1.3,0,.6-.1.9-.2,0,0,0-.1.1,0,.6-.2,1.2-.4,1.7-.6-1.2-1.2-6.5-3.6-2.7-4.3.6-.1,1.2-.2,1.7-.2h0ZM25,384.5h4.2c2.7,0,2.7,2.7,0,2.7h-1.3c.9,1.1.7,3-1.7,4.3.5.2.9.4,1.2.7,4.1.5,4.3,4.2.8,5.1-.2.2-.4.4-.6.7-.7.6-1.5.8-2.3,1.1-1.8.5-2.7-.7-2.2-1.6-.7,0-1.4-.1-2.1-.3-.3-.1-.6-.2-.9-.3-1.2-.5-2-1.2-2.4-1.9-.2,0-.5-.1-.7-.2-2.7-1.1-2.5-2.6-.9-5.3.3-.6,2.2-.6,2.8-.7,1.3,0,1.9-.4,2.9-1,1.2-.6.6-.3,1.8-.9-1.1-.7-.6-2.3,1.5-2.3h0ZM26.6,404.6c.6,0,1.1,0,1.8.2,5.2,1.3,4,6.2-1.3,5.3-.1.7,0,1.4,0,2.1v.7h4.4c5.4,0,5.4,5.4,0,5.4h-4.9c-3,0-4.3-1.7-4-3.2-.5-.7-.8-1.6-.8-2.9s0-3.6.9-5.1c1.2-1.6,2.4-2.5,4.1-2.5h-.2ZM566.6,406.4h.2c2.8.1,3.1,3.1,0,5,.2.3.3.6,0,.6-.7.2,2.6.2,2.7.2h.8c.2,0,2.1,0,2.2.2.8,4.7,1.1,4.4-1.4,4.7-1.2.1-2.4.3-3.5.5.5.3,1,.7,1.4,1.1,3.2,3.2,0,6.3-3.3,3.3-.4-.3-.8-.6-1.2-.8-1.5-.9-2.1-2-2-3-3.1-.3-3.5-3.5.2-4.5-.3-.5-.7-1.1-1.1-1.6-1.6-1.2-1.3-4.1,2.1-5.1.3,0,.6-.2.9-.3.7-.2,1.3-.3,1.9-.3h0ZM344.8,409.2c1.9,0,3.8,1.9,3.8,5.7v8.4c0,2.7,0,5.4-.3,8.1-1,7.5-8.6,6.5-7.6-1,.3-2.2.2-4.4.2-6.6-.4.8-.8,1.5-1.5,2.6-.5.8-1.9.2-2.9.2h-.4c-.1,0-.3.1-.3.2-1.5.8-1,3.8-1.8,5.3-.6.9-1,2-1.9,2.6-3.2,2.1-6.1-.5-7.9-2.9-.9-1.3-1.8-2.8-3.1-3.7-1.3-.7-2.5-1.1-3.9-1.5h-17.8c-1.3.8-2.4,1.7-3.4,2.9-2,2.2-4,4.5-6.6,6.1-2.3,1.5-4.7,2.8-7.5,2.9h-1.9c-4-.7-6-3.3-6.3-7.2-.1-2.9,0-5.9,0-8.8s1.9-5.7,3.8-5.7,3.2,1.3,3.7,3.9c.8-.5,1.6-1,2.5-1.4,2.7-1.1,5.2-1.6,8.2-.9,2,.3,4,.4,5.9.5.5-.3,1.1-.5,1.6-.7,3.6-1.5,7.4-1.4,11.2-1.1,2.6.3,5.3,1,7.8,1.7h8.2c5.5,0,2.7,0,7.7.1h.9c1.3-.3,2.6-.4,4.1-.2.8.4,1.4.6,1.8.9v-4.8c0-3.8,1.9-5.7,3.8-5.7h-.1ZM26.5,410h.3-.3ZM83.5,413.8c1.1,0,2.3,1.1,2.3,3.4v8.5c2.1-.5,3.4.3,3.7,1.4.9.5,1.5,1.9.7,3.9,0,.3-.2.6-.3.9-1.4,2.6-3.3,3.6-6.1,2.4-.4-.3-.8-.6-1.2-1-.3-.3-.5-.6-.6-.9-.6-.1-1.3-.4-2-.9-1.5-1.1-2.9-2.4-4.8-2.7-.7,0-1.4,0-2.2.2-.3.5-.6.9-1,1.4-2.2,1.8-5,.6-4.6-2.5,0-1,.8-1.5,1.4-2.1.3-.2.6-.4.9-.5.4-.9.5-1.3.8-1.6.3-1.5,1.2-2.2,2.2-2.2s2.1.9,2.3,2.7h.3c2.3.1,4.1,1.3,5.8,2.6v-9.5c0-2.3,1.1-3.4,2.3-3.4h0ZM98.5,417.6c.7,0,1.4.7,1.4,2v3.3c.2-.1.4-.2.6-.3,0,0,.2.1.3.1v-.4c0-1.3.7-2,1.4-2s1.4.7,1.4,2v6.6c0,2.6-2.5,2.7-2.7.3-.4,1.5-.8,3.1-1.1,4.6-.6,2-.4,3.5-3.3,2,0,0,0-1.5,0-1.6v-4.7c0-1.2.4-1.9,1-2.1v-1.9c-.5-.2-.9-.8-.9-1.9v-2.2c0-1,.4-1.5.9-1.8v-.2c0-1.3.7-2,1.4-2l-.3.2ZM563.8,425.1c1.6,0,2.4,1.2,2,2.7.8-.2,1.6-.3,2.4-.4h.9c4.5.1,4.9,4.8,0,5.4-1.1.1-2.2.3-3.3.6,0,0,.2.2.2.3.7,1.1.4.6.9,1.4,2.7,4.6-2,7.4-4.7,2.7-.3-.6-.2-.3-.4-.8-1-1.5-2.9-2.2-3.2-4.2-.4-2.5.2-4.8,2.3-6.5,1.1-.8,2-1.2,2.9-1.2h0ZM288.9,425.8c-.8,0-1.4.1-2.4.6-1.1.6-2.1,1.3-3.2,1.9-.7.4-1.4.7-2.1.8v2.1c0-.1.3-.1.7-.2,1.2-.2,2.2-1,3.3-1.7,1.5-.9,2.8-2.2,3.9-3.5h-.2,0ZM337.4,426.2h0c.1,0,.2,0,.4.1,0-.1-.1-.2-.3-.2h-.1ZM68.9,427.1l-.2.2.2-.2ZM86.4,430.3h0c0,.3.3.4.3.3,0,0,0-.2,0-.3h-.1ZM96.6,434.8v.3-.3ZM488.9,443.9c1.9,0,3.1,2,1.3,4.8-.4.7-.8,1.4-1,2.2.1.8.2,1.6.4,2.4.6,3-.9,4.7-2.4,4.5-1.3.9-2.8,1-4.4.7-3.7-.8-1-5.8.6-6.7,0-.2,0-.3.1-.5,0-.3.2-.5.3-.8,0-.7-.2-1.3-.2-2-.3-2.7.9-4,2.2-4s.8.1,1.1.3c.7-.6,1.5-.9,2.1-.9h-.1ZM518.1,447.4c1.2,0,2.2,1.1,2.1,3.4,0,1.2,0,2.4.4,3.6.7,3.1-.9,4.5-3.8,5-2.6,0-4.1-.9-5-3.1-1.4.2-2.7,0-4.1-.6,0,.5-.4,0-.7-.2.1.1-.2.3-.4.5-1.5,1-3.3,1.2-5,1.2-1,2.2-3.4,1.9-4-.4,0,0-.1,0-.2-.1-2.5-1.8-1.7-.5-.5-4.5.2,0,.4-.1.7-.2,0-.2.1-.3.3-.3v-.5c.3-2.1,1.5-3.1,2.6-3,1.2,0,2.3,1.4,1.9,3.8v.6c.6,0,1.3-.1,1.7-.4,1.8-1.3,3.5-1.8,5.5-.7,1,.6,2,.2,3.1,0,1.3,0,2.4.3,3,1.1v-1.8c0-2.3,1.4-3.4,2.5-3.4h0ZM497.9,451.9h-.3c0,.1.1.5.2.7v-.8h0ZM515.8,454.7h0l.2.2v-.2h-.2ZM506.9,455.4h0s.2,0,.3.2c0,0-.3,0-.3-.1h0ZM516.2,455.6c0,.2.3,1,0,0ZM593.8,468v.3s0-.1,0-.2h0c0-.1,0,0,0,0ZM593.5,468.3h0c0,.1,0,0,0,0ZM593.6,468.8c0,.3-.2.6-.3.7,0,0,0-.1,0-.3,0-.2.2-.3.2-.5h0ZM594.8,473c-.6.3,0,.6,0,.2v-.2ZM311.1,545.9h0l-.2.3v.3s.2-.2.2-.3v-.2h0ZM465.6,546.3h0s.1,0,.2.2c0,0-.1,0-.3-.2h0ZM308.8,547v.6h.2c0-.2-.2-.3-.2-.5h0ZM357.8,547.6v.3c.1,0,.2-.2,0-.3Z"/>
    </clipPath>
    <clipPath id="clippath-1">
      <path class="cls-15" d="M172.8,149v22.1c.6-.5,1.3-.8,2-.8,2.1,0,4.2,2.4,3.5,6.6-.5,2.9-1,5.8-1.4,8.7-.3,1.9-.6,3.8-.7,5.6,1.7,1.7-.8,2.2-3.3,2.5v76.9h.5c1.1,0,2.2,1,2.5,3.1.1,1,0,.5.2,1.4.1,1,.3,1.9.4,2.9,1.6-.8,3.3-1.3,2.8.8-.1.7-.4,1.4-.7,2.1,2.1,1.8,1.3,5.1-2.8,6.1.3.2.5.3.8.5,1.1.2,2.3.2,3.4.5,7.3,2.2,5.7,8.4-1.9,7.4-1.6-.2-3.2-.4-4.8-.8-.2,0-.4-.1-.5-.2v58.1h.4c.7,0,1.4.2,2.3.6.6.3,1.1.6,1.8.7,4.5.1,3.4,4.9-1.1,4.5h-.4c.7.6,1.5,1.2,2.2,1.8,3.2,2.9,2.7,5.5.7,8,0,3-2.3,4.6-4.4,4.1-.5.3-1,.6-1.6.8v52.6h100.7v-3.1c0-3.8,1.9-5.7,3.8-5.7s3.2,1.3,3.7,3.9c.8-.5,1.6-1,2.5-1.4,2.7-1.1,5.2-1.6,8.2-.9,2,.3,4,.4,5.9.5.5-.3,1.1-.5,1.6-.7,3.6-1.5,7.4-1.4,11.2-1.1,2.6.3,5.3,1,7.8,1.7h8.2c5.5,0,2.7,0,7.7.1h.9c1.3-.3,2.6-.4,4.1-.2.7.4,1.4.6,1.8.9v-4.9c0-3.8,1.9-5.7,3.8-5.7s3.8,1.9,3.8,5.7v10.7h82.3v-21.9c-2.4.3-4.3-.3-6.2-2.6-.5-.6-1.8-2.2-2.6-3.6-2.6-1.6-2.4-4.8.7-6.1-.7-1.6.7-3.6,4-3.4.8,0,1.6.1,2.3-.1.3,0,.6-.1.9-.2,0,0,0-.1.1,0,.3,0,.5-.1.8-.2v-1.2c-1.9-1.3-4.9-2.9-1.8-3.6.6-.1,1.2-.2,1.7-.2h.1v-77.1h-.8c-3.9,0-4.4-3.4-1.7-4.4-.2-.1-.4-.2-.6-.3-2-.1-4.1-.2-6.1-.4-.1,0-2.6-.3-2.9-.6-1-.7-1.8-1.6-2.7-2.5.2-1.4.3-2.8.6-4.2.3-1,3.6-3,4.6-3.4.9-.4,1.9-.8,2.9-1.2.3-.2.6-.4,1.2-.6,0-1.6,1.5-3,4.3-3h1.2v-85c-2.6-.5-5.1-1-7.6-1.5,0,.6-.6.9-2.1.9s-1.4.3-2.1,0c-1.1-.5-2.2-1.2-3.1-2.1-.2-.2-.4-.5-.5-.8-4.6-2.2-3.4-7.3,1.9-7.1.2-.2.5-.5.8-.7,1.7-1.2,3.8-1.6,5.9-1.6s1.3,0,2,.1c.2-.4.4-.9.8-1.4.2-.3.3-.5.5-.8,0,0,0-.3-.1-.4-.4-1-.3-1.9-.1-2.9.1-.8.4-1.2.8-1.2s.4.1.6.3c.5-1,1.3-1.5,2.1-1.5h.4v-30.5h-118.3c1,1,1.5,2.1,1.8,3.6,1,5.1-3.7,0-6.3-1.4,0,0-.1.2-.3.3.1-.2.2-.3.2-.3-.9-.5-1.6-.5-1.5.7.3,0,.5,0,.8-.2.2,0,.3-.2.5-.3,0,.1-.2.3-.3.5-.3.6-.5,1.2-.7,1.8v.6l-.2-.2c-.2.7-.4,1.5-.5,2.3,0,1.4,0,4.4-1.6,5.2-3.7,1.9-3.8,1.1-6-.7-1.3-2.2-1.8-4.7-2.3-7.1-.3-1.6-.4-3.1-.6-4.7h-123.1l.3.5ZM305.1,156.5h0v.3c.1,0,.1-.2,0-.3ZM422.7,194.9h0c-.2,0-.8.3-.6.4h.3l.3-.3h0ZM174.7,278.1h0c-.8.9-.7,1.1-.3.9.2-.5.5-1,.4-1h0ZM176.1,283.9h-.3c.5.1.5.2.3,0ZM429.4,300.8h1.4-1.5,0ZM340.9,423.9h0ZM340.9,423.9c-.3.6-.5,1-.9,1.7h.9v-1.7Z"/>
    </clipPath>
    <clipPath id="clippath-2">
      <path class="cls-15" d="M409.5,284.6v22.2h42.9v-22.2h-42.9ZM427.5,295.4c.8,0,1.7.4,2.6,1.3.7.6,1.5.8,2.4,1.2.9.5,1.4,1.3,1.8,2.2,0,0,0,.2.1.3h.3c3.5,0,4,3.6,0,4.6-1.5.3-3,.5-4.5.5-3.8,0-4.4-3.4-1.7-4.3-.3-.2-.6-.4-.9-.7-.2-.2-.4-.3-.6-.5-2.5-2.1-1.4-4.5.6-4.5h0ZM429.7,300.5c-.2,0-.3,0-.3.3h1.4c-.5-.2-.9-.3-1.2-.3h0Z"/>
    </clipPath>
    <clipPath id="clippath-3">
      <path class="cls-15" d="M405.7,178.5v22.2h42.9v-22.2h-42.9ZM445.5,179.4c1.2,0,2.3,1.4,2,3.7-.2,1.1,0,.5-.3,1.6.2.7.5,1.3.6,2,.5,3.6-2.2,5-3.7,3.2-2.6,1.7-4.6-.9-2.2-4.2.2-.3.3-.5.5-.8,0-.1,0-.2-.1-.4-.4-1-.3-1.9-.1-2.9.1-.8.4-1.2.8-1.2s.4,0,.6.3c.5-1,1.3-1.5,2.1-1.4h-.2Z"/>
    </clipPath>
    <clipPath id="clippath-4">
      <path class="cls-15" d="M406.5,381.8v22.2h42.9v-22.2h-42.9ZM430.9,382.5c1.5,0,2.5.7,3.8,2.1.2.3.5.7.7,1h.3c2,0,3,1.8,1.9,3.6.5.9,1.1,1.8,1.7,2.7,2.9,4.5-1.6,7.3-4.6,2.9-.5-.8-1-1.6-1.5-2.4-.9.3-1.8.6-2.7.8-1.3.3-2.6.3-3.9.2-5.4-.3-5-5.8.3-5.4.8,0,1.6.1,2.3-.1.3,0,.6-.1.8-.2-.2-.2-.1-.1,0,0,.6-.2,1.2-.4,1.8-.6-1.3-1.2-6.5-3.5-2.8-4.3.6-.1,1.2-.2,1.7-.2h.2Z"/>
    </clipPath>
    <clipPath id="clippath-5">
      <path class="cls-15" d="M151.5,351.8v22.2h42.9v-22.2h-42.9ZM155.1,352.7c.7,0,1.4.2,2.3.6.6.3,1.1.6,1.8.7,4.5.1,3.4,4.9-1.1,4.5-1.1-.1-2-.6-3-1.1-3.1-1.7-2.4-4.6,0-4.7Z"/>
    </clipPath>
    <clipPath id="clippath-6">
      <path class="cls-15" d="M154.2,271.5v22.2h42.9v-22.2h-42.9ZM158,272.9c1.1,0,2.2,1,2.5,3.1.1,1,0,.5.2,1.4.1,1,.3,1.9.4,2.9,1.6-.8,3.3-1.3,2.8.8-.4,1.8-1.1,3.3-2.4,4.6-2.8,1.6-4.4-.4-4.8-2.9-.1-1.6-.3-3.1-.5-4.6-.1-1,0-.5-.2-1.6-.3-2.4.9-3.7,2.1-3.7h-.1ZM159.4,280.4h0c-.8.9-.7,1.1-.3.9.2-.5.5-1,.4-1h0ZM158.6,282.2h0c0,.1,0,0,0,0Z"/>
    </clipPath>
    <clipPath id="clippath-7">
      <path class="cls-15" d="M-.8,98.5v1.3c.6.4,1.3.9,2,1.2h.2c.6,0,1.2,0,1.8-.1.4-.2.8-.2,1.1,0h2.9c1.7,0,2.2-.4,1.5,2.3,0,.2,0,.4-.1.4h0c0,.2-1.6.5-1.7.5-1,.2-1.9.2-2.9.2v.7c.4.1.8.2,1.1.3,2.6.7,2,3.2-.7,2.6-.5-.1-1-.2-1.5-.4-.5.6-1.2,1.1-1.9,1.5,0,.2-.2.3-.3.5.2.1.5.2.7.4,1.9,1.1,1.3,2.9-.2,2.7v3.2c0,1.3,0,2.5.4,3.7.5,1.2,1.1,2.5.9,3.8-.3.8-.6,1.6-1.2,2.2,0,.5.6,1,.8,1.5.4.8.4,1.8.5,2.7,0,1.9.3,3.8,0,5.7-.3,1.8-.9,3.6-1.1,5.5v5.4c0,1.8,0,3.7.1,5.5,0,1.8.2,3.6.4,5.4,0,1.5,0,3-.8,4.4-.6,1.6-.4,3.4-.2,5.1.4,2.5.9,5,1.5,7.5.4,2.2.8,4.4,1.3,6.6.6,2.1-1.1,3-2.1,1.8,0,1.1.2,2.3.3,3.4h.2c0,0,0,.2,0,.3v3.4c0,1.6.2,3.3.3,4.9.2,5,.5,10,.4,15,0,3.2-.5,6.3-1.3,9.4,0,.8,0,1.6-.1,2.4.4.3.7.8.8,1.7.3,3.5.5,7,.6,10.6,0,2.8.2,5.6.2,8.4v12c.2.6.2,1.3.2,1.9.2,1.6.2,3.3.2,4.9,0,1.2,0,2-1.2,1.6,0,.7-.2,1.3-.4,2-.2,1.4-.4,2.7-.5,4.1.2,1.3.5,2.6.7,3.9.7,5,.2,10-.8,14.9,0,.2-.1.5-.2.7,0,2.8,0,5.5.4,8.3.5,3.9.8,7.7,1.1,11.6.2,3.6.3,7.2.3,10.8v.6c.4,1,.4,2,.3,2.9.4.3.7.9.7,1.7v4c0,1.6.2,3.1.4,4.7.2,1.8.8,3.5.3,5.4-.2.4-.4.7-.7.9v4c0,3.2-.4,6.5-.6,9.7,0,2.3-.5,4.6-1.6,6.6-.2.3-.4.5-.6.7.1,2.2.3,4.4.4,6.6.2,3.3.3,6.7.4,10,0,2.4.2,4.7.5,7,.3,2.4.4,4.9.3,7.3,0,2.2-.4,4.4-.7,6.5v6.3c-.1,2.5-.4,4.9-.8,7.3,0,.4-.2.9-.3,1.3.6.2,1.1.8,1.1,2v17.3c-.2,2.8-.3,5.6-.7,8.4-.3,1.6-.5,3.3-.6,4.9,0,1.3.2,2.6.2,4,.4,2.9.8,5.7,1.2,8.5.2,1.1-.2,1.8-.7,2,.2,1.6.3,3.3.4,5,0,2,0,4,.1,6v7.4c0,1.3-.7,2-1.3,2h115.9v-242.1h-.3c-1.4-.3-2.3-1.2-2.9-2.3-.4-.7-.6-1.4-.7-2.2,0-1.8.2-3.5.9-5.1.3-.8.2-.4.4-1,.3-1.1,1-1.6,1.6-1.6s.9.3,1.1.9v-33.6c-.7-.2-1-.5-1.1-.8h-2c-1.8-.1-2.3-1.4-1.6-2.2-3-1.4-.5-3.8,2-4.2.5,0,1-.3,1.5-.4-.2-.7-.4-1.3-.6-2-.3-1.3-.9-3.2.5-4.2.3-.2.7-.3,1.1-.4h.3v-80.1H-.8ZM-.8,103v.8c.3,0,.5,0,.8.1-.3-.3-.6-.6-.7-.9h-.1ZM-.8,106.5v.2s0-.1.1-.2h-.1ZM89.9,109c1.2,0,1.9,1.3,1.2,3.6-.5,1.6-1.4,3.1-2.3,4.5.3,0,.5.1.9.2,1.9.2,3.8.5,5.5,1.4,4.1,2,1.8,6.5-2.1,4.1-1.3-.8-2.9-.6-4.3-1-1-.2-2-.4-2.9-.9-1,.8-2.1,1.4-3.5,1.9-1,.3-2.2.6-3.4.7h0c-.7,0-1.2,0-1.7,0,0,.7-.3,1.5-.7,2.2-1.3,1.2-1.2,1.6-3.8.6-.4-.2-.5-.8-.8-1.1-1.3-1.9.6-1.5,2.4-1.1,0-.5-.2-.7,0-.8v-.9c-.6,0-1.2.3-1.6.9v.2s0,.2,0,.1v-.2c.2-.9,0-1.8,0-2.6,0-1.8.7-2.8,1.5-3.2v-.6c0-2.3,1.1-3.4,2.3-3.4s2.3,1.1,2.3,3.4v2.1h.3v-1c0-1.6.4-3.3.3-4.9,0-2.3,1.1-3.4,2.2-3.4s2.3,1.1,2.4,3.4v2.4h.4c.7-1.2,1.4-2.3,2-3.5.9-1.9,2.3-2.8,3.3-2.7v-.5ZM74.3,123.3c0,.8.2,1.1,1.4.7v-.5c-.9-.1-1.3-.3-1.5-.2h0ZM75.7,124v.4c1,.2,1.5.1.9-.7-.3,0-.6.2-.8.3h0ZM108.2,112.4c.7,0,1.4.7,1.6,2,.2,1.3.3,2.7.5,4,.5-.8,1.8-.8,2.6.8.5,1.2.6,2.4-.6,3.2-1.6.8,1.8,3.2-3,2.2,0-.2-.2-.4-.3-.6-.4,0-.8,0-1.1-.1-1.2-.4-2.4-.2-3.4-1.1,0-.5-.2-1-.2-1.4-1.5-1.4-.3-3.2,1.2-2.5.3-.3.5-.6.8-.8v-.2c0-1.1.5-1.7,1.1-1.9,0-.5,0-1.1-.2-1.6-.2-1.3.4-2,1.1-2h0ZM78.9,119.1v.8l.2.2v-.8s0,0-.2-.2ZM79.1,120.1h0v.2-.2ZM79.1,120.2h0c0-.1,0-.1-.2-.1v.6s0,0,.2,0c0,.2,0-.2,0-.5h0ZM110.8,120h0c0,.1,0,0,0,0ZM79.1,120.6h0c.3.2.5.2.6.1-.2,0-.4-.1-.5-.2h0ZM-.8,120.7v3.2c.3-.5.6-.9.6-1.4,0-.6-.4-1.2-.6-1.8h0ZM-.8,127.4v9.9c.2-.9.4-1.7.5-2.6.3-1.7,0-3.4,0-5,0-.9-.2-1.6-.6-2.3h.1ZM29.4,135.9c.9,0,1.9.3,2.7.6,1.2.5,2.4,1.3,3.7,1.2,2.7,0,2.7,2.6,0,2.7-1.5,0-2.9-.6-4.2-1.2.5.5.9,1,1.2,1.7,1.2,2.4-1.2,3.3-2.5,1,0-.1-.2-.3-.3-.5,0,.5.2.9.3,1.4.3,1.5.1.7.4,2.2,0,.6,0,1-.1,1.4.9,2.2-1.4,3.3-2.5,1-.8-1.5-1.6-3.1-2-4.8-.2-1.6-.1-3.1.9-4.1v-.7c.2-.3.3-.7.6-1,.6-.6,1.2-.8,1.9-.9h0ZM30,154.6c.9,0,1.7.2,2.5.3,2.7.4,2,2.8-.7,2.6-.7,0-1.6-.4-2.4-.2.6,1.2,1,2.4.8,3.8-.4,1.4-.4,2.7-.2,4.2.2.8,0,.5.3,1.1.8,2.6-1.9,3.3-2.6.7-.3-.9-.1-.4-.3-1.5-.3-1.7-.3-3.3.2-5h-.3c-1,.2-1.2-2.1-1.1-2.6v-.7c-.1-.7-.1-1.4.2-1.5h.6c.2-.2.3-.4.5-.6.7-.6,1.5-.7,2.4-.7h.1ZM-.8,157.3v1.2-1.1h0ZM-.8,171.9v3.3c.2-.1.4-.2.6-.2h.1v-.4c-.2-.9-.4-1.8-.6-2.7h-.1ZM116.5,180.4c-.7,0-1.1.1-.2.6.4.2.4.3.6.3v-.9h-.4ZM-.8,185.3v26.2c.1-2.3.2-4.6.2-6.9v-15c0-1.4-.2-2.8-.3-4.2h.1ZM113.1,188.8h-.2c0,.1,0,0,0,0h0ZM116.8,227.7v.4h0v-.4h0ZM-.7,236.7h0v.7-.7ZM-.5,258.4h-.1c.2.8.4,1.7.6,2.5,0-.3.1-.6.2-.9-.1,0-.2-.1-.3-.2-.1,0-.2-.7-.3-1.4h0ZM-.8,298.6v6.7h.1c0-.2.2-.3.2-.5,0,0,0,0,.2.1-.2-2.1-.3-4.2-.6-6.3h.1ZM-.8,305.4h0ZM107.5,318.5h1.4c2.7,0,2.7,2.7,0,2.7.2.4.3.9,0,1.6,0,.7-.2.8-.2,1,.5.2.9.9.9,1.9s0,1.2-.2,1.9h.5c.7-.2,1.3-.4,1.9-.7.4-.1.7-.2,1.1-.2,1.3,0,1.8,1.1,1,2,0,.7-.5,1.5-2,1.5h-1.7c-1,.3-2,.5-3.1.6h-.9c-2.7.3-2.9-2.4-.2-2.6h.2c-.7-1.5-.7-3.1-.3-4.6.2-.9,0-.5.3-1.4,0-.5.3-.8.5-1.1-2-.4-1.8-2.7.6-2.7h0ZM107,327.1h0c0,.1,0,0,0-.1h0ZM1.1,327.2c-.2.3-.5.7-.7,1,0,.4.1.9,0,1.2.3,0,.7,0,1-.1v-1.6c-.1,0-.2-.2-.2-.4h-.1ZM-.6,330h-.2v6.9c.3-1,.4-2.1.3-3.2v-3.7h-.2,0ZM1.4,339.7c-.4,1.4-.6,2.9-.7,4.4,0,1.7,0,3.4-.1,5.2,0,.7.2,1.5.3,2.2.2-2.8.4-5.6.5-8.4v-3.4h0ZM-.8,377.4v22c.1-.7.2-1.3.3-2v-14.2c0-1.9-.1-3.9-.2-5.8h-.1ZM25,384.5h4.2c2.7,0,2.7,2.7,0,2.7h-1.2c.9,1.1.6,3.1-1.8,4.3.5.2.9.4,1.2.7,4.1.5,4.3,4.2.8,5.1-.2.2-.4.4-.6.7-.7.6-1.5.8-2.3,1.1-1.8.5-2.7-.7-2.2-1.6-.7,0-1.4-.1-2.1-.3-.3-.1-.6-.2-.9-.3-1.2-.5-1.9-1.1-2.4-1.9-.2,0-.5-.1-.8-.2-2.7-1.1-2.5-2.6-.9-5.3.3-.6,2.2-.6,2.8-.7,1.3,0,1.9-.4,2.9-1,1.2-.6.6-.3,1.8-.9-1.1-.7-.6-2.3,1.5-2.3h0ZM26.6,404.6c.6,0,1.1,0,1.8.2,5.2,1.3,4,6.2-1.3,5.3-.1.7,0,1.4,0,2.1v.7h4.4c5.4,0,5.4,5.4,0,5.4h-4.9c-3,0-4.3-1.7-4-3.2-.5-.7-.8-1.6-.8-2.9s0-3.6.9-5.1c1.2-1.6,2.4-2.5,4.1-2.5h-.2ZM26.5,410h.3-.3ZM83.5,413.8c1.1,0,2.3,1.1,2.3,3.4v8.5c2.1-.6,3.4.3,3.7,1.4.9.5,1.5,1.9.7,3.9,0,.3-.2.6-.3.9-1.4,2.6-3.3,3.6-6.1,2.4-.4-.3-.8-.6-1.2-1-.3-.3-.5-.6-.6-.9-.6-.1-1.3-.4-2-.9-1.5-1.1-2.9-2.4-4.8-2.7-.7,0-1.4,0-2.2.2-.3.5-.6.9-1,1.4-2.2,1.8-5,.6-4.6-2.5,0-1,.8-1.5,1.4-2.1.3-.2.6-.4.9-.5.4-.9.5-1.3.8-1.6.3-1.5,1.2-2.2,2.2-2.2s2.1.9,2.3,2.7h.3c2.3.1,4.1,1.3,5.8,2.6v-9.5c0-2.3,1.1-3.4,2.3-3.4h0ZM98.5,417.6c.7,0,1.4.7,1.4,2v3.3c.2-.1.4-.2.6-.3h.3v-.3c0-1.3.7-2,1.4-2s1.4.7,1.4,2v6.6c0,2.6-2.5,2.7-2.7.3-.4,1.5-.8,3.1-1.1,4.6-.6,2-.4,3.5-3.3,2,0,0,0-1.5,0-1.6v-4.7c0-1.2.4-1.9,1-2.1v-1.9c-.5-.2-.9-.8-.9-1.9v-2.2c0-1,.4-1.7.9-1.9,0-1.4.7-2.1,1.4-2.1l-.3.2ZM68.9,427.1l-.2.2.2-.2ZM86.4,430.3h0c0,.3.3.4.3.3,0,0,0-.2,0-.3h-.1ZM96.6,434.8v.3-.3ZM-.8,461.6v18.4H.9c-.7,0-1.3-.7-1.3-2v-7.4c0-2,0-4,0-5.9,0-1,0-2-.2-3h-.1Z"/>
    </clipPath>
    <clipPath id="clippath-8">
      <path class="cls-15" d="M94.7,413.3v23.7h11.5v-23.7h-11.5ZM98.5,417.6c.7,0,1.4.7,1.4,2v3.2c.2-.1.4-.2.6-.2h.3v-.3c0-1.3.7-2,1.4-2s1.4.7,1.4,2v6.6c0,2.6-2.5,2.7-2.7.3-.4,1.5-.8,3.1-1.1,4.6-.6,2-.4,3.5-3.3,2,0,0,0-1.5,0-1.6v-4.7c0-1.2.4-1.9,1-2.1v-1.8c-.5-.2-.9-.9-.9-1.9v-2.2c0-1,.4-1.7.9-1.9,0-1.4.7-2.1,1.4-2.1h-.3ZM96.6,434.8v.3-.3Z"/>
    </clipPath>
    <clipPath id="clippath-9">
      <path class="cls-15" d="M593.9,95.1h-117.6v175.4c.4-.2.9-.4,1.4-.6.7-.1,1.3-.2,2-.2h.3v-.6c-.4-2.1-.6-4.2-.8-6.3,0-2.6-.4-5.2-.5-7.7-.2-3.6-.3-7.2-.4-10.7v-9.3c0-3.3.3-6.6.7-9.9.3-2.7.2-5.4.2-8.1s0-6.6-.1-9.8c0-2.7-.2-5.5-.4-8.2-.2-3.1-.3-6.2-.3-9.3v-9.2c-.2-2.5-.4-5-.5-7.5-.1-2.9-.2-5.7-.2-8.6s0-5.3.1-7.9c.2-2.6.7-5.1,1.2-7.6.4-1.7.5-3.5.5-5.2,0-3.8,1.9-5.7,3.8-5.7s3.1,1.3,3.6,3.8h.1c1.9.1,3.7.4,4.8,2,.1.4.3.8.4,1.2.2,1.3-.6,2.4-1,3.5-.6,1.8-1.5,3-3,3.6.8,1.6,1.4,3.3,2.1,4.8,1.3,3.5,2.5,6.4,1.6,10.2-.6,3.3-1.3,9.4-6.2,8.9.1,1.5.2,2.9.3,4.4v9.1c0,3,.1,5.9.3,8.9.2,2.9.5,5.8.4,8.7,0,3.2,0,6.5.1,9.7,0,3,.2,6.1-.2,9.1-.3,3-.7,6-.7,9v9.2c0,3.5.1,6.9.4,10.3.2,2.6.4,5.1.5,7.7.1,1.9.3,3.7.7,5.5.5,2.7.6,5.4.4,8.2v2.6c0,2.5.2,4.9.6,7.4.9,3.9,1.8,7.8,2,11.8.5,5.2.7,10.4.6,15.6s-3.7,6.7-5.9,4.8h0v1.5c-.4,6.3-6.8,6.7-7.8,2.5h-1.1v53.4c.6-.4,1.5-.7,2.5-.7h4.1c4,0,5,3,3.1,4.5,0,.5-.1,1.1-.6,1.6,1.4,1.3.8,3.8-2.6,4.7-1.4.3-2.7.7-4.1,1-1,.2-1.8.2-2.5,0v89.8h117.6v-2.9c-.2-.6-.3-1.3-.4-1.9v-.4c-1.2-.3-2-1.1-2.5-2.3,0-1.5.7-2.2,2-2.5h.2c-1.2-.4-2.4-.6-3.6-.7-2.6-.1-2.3-2.7,0-2.7h.2c.6,0,1.1,0,1.7.2-.2-.4-.4-.9-.6-1.3-.7-1.5,0-2.6.9-2.6s.8.2,1.2.7c-.2-1.8-.3-3.5-.5-5.3,0-1.1,0-2.3-.2-3.4-.6-1.6-1.1-3.2-1.6-4.8-.4-1.5.2-2.3,1-2.3s.5,0,.7.2c0-2.7,0-5.4.2-8.1.2-4.4.5-8.8.5-13.2v-5.2c0-1.3,0-2.6-.2-3.9-.3-2.8-.8-5.5-1-8.3-.3-2.5,0-5,0-7.6,0-2.4,0-4.7.3-7.1,0-1.8.5-3.5.9-5.2v-21.2c-.4.7-.9,1.1-1.6.9-.6-.1-.9-.7-1.4-1.1-.7-2.4-.2-5,.2-7.4.4-2,.6-4,1.2-6,0-.8-.2-1.9-.3-3-.2-.5-.2-1-.3-1.4-.3-3.8,0-7.5.4-11.3,0-2,0-4,.2-6,0-1.6.4-3.1.8-4.7.3-2.7.6-5.4,1-8.1v-.7c-.2-2.4,0-4.9,0-7.3v-1.2c-.4-2-.7-4-1.1-5.9-.7-3.2-1.5-6.4-1.7-9.8v-1.3c-.3-1.3-.3-2.6,0-4,0-.2,0-.4,0-.5,0-1.3,0-2.7,0-4,.2-2.6.5-5.2.7-7.7,0-1,0-2,0-3v-.8h.9c0-1.5,0-3-.2-4.4-.7-.2-1.4-.4-1.9-.9-.4-.5-.5-3.8-.4-4.2,0-3.8.9-7.6,1.6-11.3,0-1.1-.2-2.3-.2-3.4v-.8c-.5-3.8,0-7.6.3-11.3v-8.8c-.3-1.2-.6-2.3-.8-3.5-.3-1.2.2-2,.8-2.1-.5-2.2-.8-4.5-1.1-6.8-.3-2.8-.5-5.6-.6-8.4-.2-2.6,0-5.2,1-7.7.8-1.9,1-4,1.2-6.1.2-2.1.3-4.2.3-6.2s0-3.7-.8-5.4c0-.2-.2-.3-.3-.5-.9-1.4-.2-2.5.7-2.5s.4,0,.6.1c0-1,0-2,0-3,0-2.5,0-5.1,0-7.6,0-1.9.3-3.7.6-5.6,0-.3.2-.7.3-1v-6.4c.2-2,.4-4,.6-6.1v-7.9c-.5-1.6-1-3.2-1.3-4.8-.2-1.5-.3-2.9-.3-4.4-.3-1.1-.6-2.1-.8-3.2-.7-3.2-.7-6.4-.8-9.7v-7.1c0-2.6,0-5.2-.2-7.8-.9-.1-1.3-1-.8-1.8-1.7-.7-1.4-2.5.3-2.5h.4v-1.5c0-.1,0-.3,0-.3h1.1c.4,0,.6,0,1.6,0,0,0,0,.2,0,.3v1.6c.2,0,.4-.1.6,0v-2.3.2ZM519.7,135.6h0c1,0,2.2.9,2.8,2.7.4,1.3.8,2.6,1.3,3.9.7,1.6,1.1,3.2,1.2,4.9v1.8c.4,3.9-3.1,4.7-4.3,1.9h-.4c-1.2-.1-2.5-.2-3.7-.4-1.2,0-2.4.2-3.6.3-1.8,0-3.3-.4-4.4-1.9,0,0-.2-.2-.3-.4h-.3c-.5,0-1.3.3-1.8.4-.4,0-1.2.5-1.6.4-1,1.8-.8,3.1-3.3,3.7-.6-.2-1.3-.3-1.9-.6-1.4-.8-1.2-3-1.3-4.3v-4.3c0-2.3,1.1-3.4,2.3-3.4s2.3,1.1,2.3,3.4v1.5c1.4-.7,2.9-1,4.5-1.3,2.3-.4,3.8.3,5.2,2.1l.2.2c.2,0,0,0,0-.2h.3c1.4-.2,2.7-.3,4.1-.3,1.2.1,2.4.2,3.5.4-.2-.7-.4-1.4-.7-2.1-.6-1.5-1-3-1.5-4.5-.8-2.4.3-3.9,1.6-3.9h-.2ZM487.5,145h0v.3-.2h0ZM508.5,148.3h-.1c.1,0,.4.1.3,0h-.2,0ZM502.6,149.2v.4c.1.4,0,0,0-.4ZM487.3,149.3c0,.6.2.4,0,0ZM569.1,157.2h.6c5,.2,5.3,4.8,1.1,5.4.8.7,1.3,1.7,1.4,2.7,3.3.4,3.5,4.3-.9,5.5-1.1.3-2.3.6-3.4,1-4.1,1.3-5.9-1.8-3.9-3.9-.8,0-1.1-.2-1-.9v-1.3c0-1.9.6-3.1,1.4-3.6-1.8-1.4-1-4.4,2.8-4.7.6,0,1.2,0,1.8-.1h.1ZM568.1,178.4c1.6,0,3.1,1.6,2.5,3.9.7,0,1.3,0,1.8.3h0c1.3-.8,2.5-1.1,3.5-1,2.4,0,3.3,2.3.4,4.9-1.2,1.1-2.8,1.8-4.1,2.6-1,.6-.6.3-1.4.8-3.3,2.1-5.8.2-5-2.1v-.5c-.2,0-.4-.2-.5-.3-.4-.3-.7-.8-1.1-1.1-.2-2-.6-2.1.2-3.4.3-.4.7-.8.9-1.3.5-1.9,1.7-2.8,2.8-2.8h-.1ZM479.3,275.1c-.2,0-.5,0-.7.1.1.4.4-.5.4.3s-.2,1.6-.2,2.4v.5c.1,0,.3,0,.4-.1.4-.1.7-.3,1.1-.4v-2.7h-1ZM476.3,283.4v31.3h.9s.2,0,.3-.1c0-1.1-.1-2.1,0-3.2,0-3.8,2-5.7,3.9-5.7s1.5.3,2.2.9c0-2.7-.3-5.4-.5-8-.2-3.7-1-7.2-1.9-10.8-.3-1.4-.4-2.8-.6-4.2-.2,0-.3,0-.5.1-1.6.5-2.8.3-3.7-.3h0ZM566.6,406.4h.2c2.8.1,3.1,3.1,0,5,.2.3.3.6,0,.6-.7.2,2.6.2,2.7.2h.8c.2,0,2.1,0,2.2.2.8,4.7,1.1,4.4-1.4,4.7-1.2.1-2.4.2-3.7.4.5.3,1.1.7,1.5,1.2,3.2,3.2,0,6.3-3.3,3.3-.4-.3-.8-.6-1.2-.8-1.5-.9-2.1-2-2-3-3.1-.3-3.5-3.5.2-4.5-.3-.5-.7-1.1-1.1-1.6-1.6-1.2-1.3-4.1,2.1-5.1.3,0,.6-.2.9-.3.7-.2,1.3-.3,1.9-.3h0ZM563.8,425.1c1.6,0,2.5,1.1,2.2,2.7.8-.1,1.5-.3,2.3-.4h.9c4.5.1,4.9,4.8,0,5.4-1.1.1-2.2.3-3.3.6,0,0,.2.2.2.3.7,1.1.4.6.9,1.4,2.7,4.6-2,7.4-4.7,2.7-.3-.6-.2-.3-.4-.8-1-1.5-2.9-2.2-3.2-4.2-.4-2.5.2-4.8,2.3-6.5,1.1-.8,2-1.2,2.9-1.2h-.1ZM488.9,443.9c1.9,0,3.1,2,1.3,4.8-.4.7-.8,1.4-1,2.2.1.8.2,1.6.4,2.4.6,3-.9,4.7-2.4,4.5-1.3.9-2.8,1-4.4.7-3.7-.8-1-5.8.6-6.7,0-.2,0-.3.1-.5,0-.3.2-.5.3-.8,0-.7-.2-1.3-.2-2-.3-2.7.9-4,2.2-4s.7,0,1.1.3c.7-.6,1.5-.9,2.2-.9h-.2ZM518.1,447.4c1.2,0,2.2,1.1,2.1,3.4,0,1.2,0,2.4.4,3.6.7,3.1-.9,4.5-3.8,5-2.6,0-4.1-.9-5-3.1-1.4.2-2.7,0-4.1-.6,0,.6-.7-.7-.9-.4,0,0,.2,0,.3.1.1.1-.2.4-.4.5-1.5,1-3.3,1.3-5.1,1.2-1,2.1-3.4,1.9-4-.4,0,0-.1,0-.2-.1-2.5-1.8-1.7-.5-.5-4.5.2,0,.4-.1.7-.2,0-.2.1-.3.3-.3v-.5c.3-2.1,1.5-3.1,2.6-3,1.2,0,2.3,1.4,1.9,3.8v.6c.6,0,1.3-.1,1.7-.4,1.8-1.3,3.5-1.8,5.5-.7,1,.6,2,.2,3.1,0,1.3,0,2.4.3,3,1.1v-1.8c0-2.3,1.4-3.4,2.5-3.4h0ZM497.9,452h-.3c0,.2.1.5.2.8v-.8h0ZM515.8,454.7h0l.2.2v-.2h-.2ZM516.2,455.6c0,.2.2,1,0,0ZM593.8,468v.3s0-.2,0-.2h0ZM593.5,468.3h0c0,.1,0,0,0,0ZM593.6,468.8c0,.3-.2.6-.3.7,0,0,0-.1,0-.3,0-.2.2-.3.2-.5h0Z"/>
    </clipPath>
    <clipPath id="clippath-10">
      <path class="cls-15" d="M479.9,441v23.7h11.5v-23.7h-11.5ZM488.9,443.9c1.9,0,3.1,2,1.3,4.8-.4.7-.8,1.4-1,2.2.1.8.2,1.6.4,2.4.6,3-.8,4.6-2.4,4.5-1.3,1-2.8,1-4.5.7-3.7-.8-1-5.8.6-6.7,0-.2,0-.3.1-.5,0-.3.2-.6.2-.9,0-.6-.1-1.3-.2-1.9-.3-2.7.9-4,2.2-4s.7,0,1,.3c.8-.6,1.5-.9,2.2-.9h0Z"/>
    </clipPath>
    <clipPath id="clippath-11">
      <path class="cls-15" d="M476.9,146.7v90.3c1.6,0,3.1,1.6,2.4,4.2h.9c2.9,0,4.2,1.7,4,3.1.4,1.2-.4,2.6-2.5,3-.6.5-1.4.9-2.7,1.1-1.3.2-.6,0-2,.3v21.4c.2,0,.4-.2.7-.2.7-.1,1.3-.2,2-.2,1.1,0,2.2.1,3.3.4,5.2,1.4,4,6.3-1.3,5.3-.9-.2-1.9-.5-2.9-.2.1.4.4-.5.4.3s-.2,1.6-.2,2.4v.5c.1,0,.3,0,.4-.1,1.4-.5,2.8-1.2,4.3-1.7.6-.2,1.2-.3,1.7-.3,3.6,0,4,3.9-.4,5.5-1.3.5-2.5,1.1-3.8,1.5-.3,0-.6.2-.9.3-1.2.3-2.2.3-3,0v41.1h13.4v-174.9c-.8,1.6-2,2.5-4.2,2.5-2.2-.2-3.5-1-3.5-3-.8-.4-1.3-1.4-.9-2.7h-5.2ZM487.3,149.3c0,.6.2.4,0,0Z"/>
    </clipPath>
    <clipPath id="clippath-12">
      <path class="cls-15" d="M12.6,133.7v16.8h34.5v-16.8H12.6ZM29.4,135.9c.9,0,1.9.3,2.7.6,1.2.5,2.4,1.3,3.7,1.2,2.7,0,2.7,2.6,0,2.7-1.5,0-2.9-.6-4.2-1.2.5.5.9,1,1.2,1.7,1.2,2.4-1.2,3.3-2.5,1,0-.1-.2-.3-.3-.5,0,.5.2.9.3,1.4.3,1.5.1.7.4,2.2,0,.6,0,1-.1,1.4.9,2.2-1.4,3.2-2.5.9-.8-1.5-1.6-3.1-2-4.8-.2-1.6-.1-3.1.9-4,0-.2,0-.5.1-.7.2-.3.3-.7.6-1,.6-.6,1.2-.8,1.9-.9h-.2Z"/>
    </clipPath>
    <clipPath id="clippath-13">
      <path class="cls-15" d="M11.8,152.5v16.8h34.5v-16.8H11.8ZM30,154.6c.9,0,1.7.2,2.5.3,2.7.4,2,2.8-.7,2.6-.7,0-1.6-.4-2.4-.2.6,1.2,1,2.4.8,3.8-.4,1.4-.4,2.7-.2,4.2.2.8,0,.5.3,1.1.8,2.6-1.9,3.3-2.6.7-.3-.9-.1-.4-.3-1.5-.3-1.7-.3-3.3.2-5h-.3c-1,.2-1.2-2.1-1.1-2.6v-.7c-.1-.7-.1-1.4.2-1.5h.6c.2-.2.3-.4.5-.6.7-.6,1.5-.7,2.4-.7h.1Z"/>
    </clipPath>
    <clipPath id="clippath-14">
      <path class="cls-15" d="M6.8,383.1v16.8h34.5v-16.8H6.8ZM25,384.5h4.2c2.7,0,2.7,2.7,0,2.7h-1.2c.9,1.1.5,3.1-1.8,4.3.5.2.9.4,1.2.7,4.1.5,4.3,4.2.8,5.1-.2.2-.4.4-.6.6-.7.6-1.5.8-2.3,1.1-1.7.5-2.6-.6-2.2-1.6-.7,0-1.4-.2-2.1-.4-.3-.1-.6-.2-.9-.3-1.2-.5-1.9-1.1-2.4-1.8-.3,0-.5-.2-.8-.2-2.7-1.1-2.5-2.6-.9-5.3.3-.6,2.2-.6,2.8-.7,1.3,0,1.9-.4,2.9-1,1.2-.6.6-.3,1.8-.9-1.1-.7-.6-2.3,1.5-2.3h0Z"/>
    </clipPath>
    <clipPath id="clippath-15">
      <path class="cls-15" d="M7,402.5v16.8h34.5v-16.8H7ZM26.6,404.6c.6,0,1.1,0,1.8.2,5.2,1.3,4,6.2-1.3,5.3-.1.7,0,1.4,0,2.1v.7h4.3c5.4,0,5.4,5.4,0,5.4h-4.9c-3,0-4.3-1.7-4-3.2-.5-.7-.8-1.7-.8-3s0-3.6.9-5.1c1.2-1.6,2.4-2.5,4.1-2.5h-.1ZM26.5,410h.3-.3Z"/>
    </clipPath>
    <clipPath id="clippath-16">
      <path class="cls-15" d="M549.3,156.7v16.8h34.5v-16.8h-34.5ZM569.1,157.2h.6c4.9.2,5.3,4.7,1.2,5.3.8.7,1.2,1.7,1.4,2.7,3.2.4,3.4,4.3-.9,5.5-1.1.3-2.3.6-3.4,1-4.1,1.3-5.9-1.8-3.9-3.9-.8,0-1-.2-1-.9v-1.3c0-1.8.6-3.1,1.4-3.7-1.7-1.4-.9-4.3,2.9-4.7.6,0,1.2,0,1.8-.1h0Z"/>
    </clipPath>
    <clipPath id="clippath-17">
      <path class="cls-15" d="M548.7,176v16.8h34.5v-16.8h-34.5ZM568.1,178.4c1.6,0,3.1,1.6,2.5,3.9.7,0,1.3,0,1.8.3h0c1.3-.8,2.5-1.1,3.5-1,2.4,0,3.3,2.3.4,4.9-1.2,1.1-2.8,1.8-4.1,2.6-1,.6-.6.3-1.4.8-3.3,2.1-5.7.2-5.1-2.1v-.5c-.2-.1-.3-.2-.5-.3-.4-.3-.7-.8-1.1-1.1-.2-2-.6-2.1.2-3.4.3-.4.7-.8.9-1.3.5-1.9,1.7-2.8,2.8-2.8h0Z"/>
    </clipPath>
    <clipPath id="clippath-18">
      <path class="cls-15" d="M543.7,405.2v16.8h22.2c-.4-.3-.8-.6-1.2-.8-1.5-.9-2.1-2-2-3-3.1-.3-3.5-3.6.2-4.5-.3-.5-.7-1.1-1.1-1.6-1.6-1.2-1.3-4.1,2.1-5.1.3,0,.6-.2.9-.3.8-.3,1.5-.3,2.1-.3,2.8.1,3.1,3,0,5,.2.4.3.6,0,.6-.7.2,2.6.2,2.7.2h.8c.2,0,2.1,0,2.2.2.8,4.7,1.1,4.4-1.4,4.7-1.2.1-2.4.2-3.7.4.5.3,1.1.7,1.5,1.2,1.2,1.2,1.5,2.4,1.3,3.3h7.8v-16.8h-34.5,0Z"/>
    </clipPath>
    <clipPath id="clippath-19">
      <path class="cls-15" d="M544.7,424.1v16.8h34.5v-16.8h-34.5ZM563.8,425.1c1.6,0,2.5,1.1,2.2,2.7.8-.1,1.5-.3,2.3-.4h.9c4.5.1,4.9,4.8,0,5.4-1.1.1-2.2.3-3.3.6,0,0,.2.2.2.3.7,1.1.4.6.9,1.4,2.7,4.6-2,7.4-4.7,2.7-.3-.6-.2-.3-.4-.8-1-1.5-2.9-2.2-3.2-4.2-.4-2.5.2-4.8,2.3-6.5,1.1-.8,2-1.2,2.9-1.2h-.1Z"/>
    </clipPath>
    <clipPath id="clippath-20">
      <path class="cls-15" d="M72,521.3v36.8h18.4v-36.8h-18.4ZM86.6,539.4c1.1,0,2.3,1.1,2.3,3.4v8.5c.5,4.5-4.2,5-4.6.4v-2.3c-1.3.5-2.6,1-4,1.4-1.1.3-2.3.3-3.4.3s-1.1,0-1.5-.2c-1.5.3-2.9-1.3-2-4,.3-1.1.6-2.1,1-3.2.6-1.8,1.6-2.5,2.6-2.6,1.4,0,2.5,1.6,1.7,4.2,0,.4-.2.8-.4,1.2.3,0,.6,0,.9-.2,1.5-.4,2.9-1,4.4-1.5.3,0,.5,0,.8-.2v-1.9c0-2.3,1.2-3.4,2.3-3.4h-.1Z"/>
    </clipPath>
    <clipPath id="clippath-21">
      <path class="cls-15" d="M150.5,525.8v36.8h18.4v-36.8h-18.4ZM156.2,540.9c1.1,0,2.1,1.1,1.9,3.4v.5c.5,0,1.1,0,1.6.2,1.1,0,2.1.2,3.1.5-.3-2.3.8-3.6,2-3.5,1.1,0,2.3,1,2.6,3.1.2,1.2.4,2.3.5,3.5.6,3.9-2.8,4.9-4.1,2.1-.2,0-.5-.2-.7-.3-1.2-.6-2.5-.8-3.9-.9-.6,0-1.2,0-1.8-.2-.3,1.2-.8,2.1-1.7,3-1.9,1.9-1.7-1-1.7-2.9-.1,0-.3,0-.4-.2h-.6v-.8s-.2.2-.2.3c-.6.9.2-.3.1-.6,0-.2,0-.4.1-.6,0-2.6-.5-2.9.4-3v-.4c.3-2.3,1.6-3.4,2.7-3.4v.2Z"/>
    </clipPath>
    <clipPath id="clippath-22">
      <path class="cls-15" d="M203.5,526.2v36.8h18.4v-12.6c-.5.4-1.2.7-2.1.8-1.6.2-3,1-4.7,1.1-1.3,0-2.6.3-3.8.4-.4,1-1,1.9-2,2.5-.4.2-.8.3-1.2.4-.6,0-1.3,0-1.9-.4-1.9-1-1.9-3.5-1.8-5.3,0-1.8.9-2.8,1.8-3.1v-.3c.5-1.8,1.5-2.6,2.4-2.7.5-.7,1.2-1,1.8-1,1.3,0,2.4,1.4,1.9,3.9,0,.4-.2.9-.2,1.3.9,0,1.8-.2,2.7-.3,1.5-.2,2.9-.8,4.3-1,1.2-.2,2.2,0,2.8.4v-20.8h-18.4ZM206.9,551.2c-.3.2-.2.3,0,0Z"/>
    </clipPath>
    <clipPath id="clippath-23">
      <path class="cls-15" d="M255.9,525.5v36.8h18.4v-36.8h-18.4ZM260.9,542c.6,0,1.2.3,1.6.9.2,0,.3,0,.5,0,1.3,0,2.5,1.3,2.1,3.8-.2,1-.5,2-1,2.9,1-.3,2-.5,3-.8.9-.2,1.8-.3,2.7-.3,4.5-.2,4.7,4.6.1,4.6s-1.3,0-1.9.2c-1.6.3-3.2.9-4.8,1.3-1.3.3-4.3,1.1-5.3-.2-.5-.7-.6-1.6-.8-2.3.1-.5.3-1,.6-1.4v-1.3c.1-1.5.2-3,.6-4.5.5-1.9,1.6-2.8,2.6-2.8h0Z"/>
    </clipPath>
    <clipPath id="clippath-24">
      <path class="cls-15" d="M303.2,524.5v36.8h18.4v-36.8h-18.4ZM307.4,538.7c1.1,0,2.3,1.1,2.3,3.4v3.8c.1-.4.3-.9.6-1.4.4-.4.7-.8,1.1-1.1.7-.4,1.5-.5,2.2-.3v-.4c0-2.3,1.2-3.4,2.3-3.4s1.7.6,2.1,1.9h.1c.4,0,.8.2,1,.7.7.5,1.3,1.5,1.3,3.1v.5c0,1.3-.4,2.2-.9,2.7v1.5c.1,1.7,0,2.3-1.7,3.2-.6,0-1.3,0-1.9-.3-.6-.2-1-.9-1.4-1.7h-.2c-.4.3-.7.6-1.1.8-1.5.7-3.6,1.7-5.3,1.1-.6-.2-1.1-.6-1.7-.8-.3-.5-.7-1-1-1.6-.5-1.3,0-2.9-.2-4.3v-4.3c0-2.3,1.1-3.4,2.3-3.4v.3ZM312,546.8h0l-.2.3v.2s.2-.2.2-.3v-.2ZM309.7,547.9v.6h.2c0-.2-.2-.3-.2-.5h0ZM309.7,549.5h0c0,.2.1.5,0,.4v-.4h0ZM315.1,551.4c0,1.5.6,1.1,1.3.2-.3,0-.7,0-1,0h-.3Z"/>
    </clipPath>
    <clipPath id="clippath-25">
      <path class="cls-15" d="M353.5,524.4v36.8h18.4v-36.8h-18.4ZM366.5,538.7h0c.5,0,1,.2,1.4.7,1.1,0,2.2,1.2,2.2,3.4v4.8c0,.9.1,1.7.3,2.6,1,3.5-1.7,4.9-3.4,3.2-.5-.3-1-.9-1.4-1.6-.3-.5-.5-1.1-.8-1.6-.5,0-.9,0-1.3,0-.5,0-1.2,0-1.6-.2-.1,0,0-.2-.2,0-.2,0-.3.2-.5.3-1.2.8-2.5,2.3-4.1,2.1-.6,0-1.1-.4-1.7-.6-.4-.5-.8-.9-1.1-1.4-.6-1.1-.3-3.1-.4-4.3-.2-2.3,1-3.4,2.2-3.4s2.5,1.1,2.4,3.4v.4c1.8-1.4,3.4-.9,5.4-.7-.1-1.2-.2-2.3-.1-3.5,0-2.3,1.3-3.4,2.5-3.4h.2ZM358.7,547.6v.3c.1,0,0-.2,0-.3Z"/>
    </clipPath>
    <clipPath id="clippath-26">
      <path class="cls-15" d="M462.2,523.7v36.8h18.4v-10.9c0,1.2-1.3,2.1-3,1.6-.7,1.3-2.2,2.1-3.7,2.7-2.8.9-4.4,0-6.8-1.3-1.3-.7-3.8-1.1-4.1-3-.1-.8.2-1.7.3-2.5,1.6-2.4,4.1-3.3,6.8-3.5,0-.8,0-1.5-.2-2.4-.6-2.5.6-3.9,1.9-3.9h.3v-1.1c0-2.3,1.2-3.4,2.3-3.4s2.3,1.1,2.3,3.4v9.4c.1,0,.3.2.4.2,1,.6.5.3,1.5.9,1.3.8,1.9,1.8,1.9,2.6v-25.6h-18.4.1ZM466.5,547.2h0s.1,0,.2.2c0,0-.1,0-.3-.2h0Z"/>
    </clipPath>
    <clipPath id="clippath-27">
      <path class="cls-15" d="M540.7,523.5v36.8h18.4v-36.8h-18.4ZM544.9,541.7c.4,0,.8.2,1.1.4.4-.3.8-.4,1.2-.4,1.1,0,2.2,1.1,2.1,3.4v1.1c.5,0,1,0,1.5,0,.9,0,1.9-.2,2.8-.2,4.6,0,4.6,4.6,0,4.6s-1.6,0-2.4.2c-1.2,0-2.5.2-3.7,0-.5.3-1,.8-1.6.9h0c-3.8,1.8-5.8-2-2.7-3.8-.5-.8-.7-1.7-.6-2.7.2-2.3,1.3-3.4,2.4-3.4Z"/>
    </clipPath>
    <clipPath id="clippath-28">
      <path class="cls-15" d="M459.3,234.8v15.3h33.7v-15.3h-33.7ZM477,237c1.6,0,3,1.6,2.4,4.2h.9c2.9,0,4.2,1.7,4,3.1.4,1.2-.4,2.6-2.6,3-.6.5-1.4.9-2.6,1.1-1.3.2-.6,0-2,.3-2.7.3-4.2-.9-4.3-2.3-.7-.7-1-1.8-.7-3.3.1-.7.9-1.4,1.3-1.9.4-.3.6-.6.7-1.1.4-2.1,1.6-3.1,2.8-3.2h.2,0ZM475.5,241.7c-.2,0-.5,0-.7.2.3,0,.7-.1,1-.2h-.4.1Z"/>
    </clipPath>
    <clipPath id="clippath-29">
      <path class="cls-15" d="M461.1,269.2v15.3h33.7v-15.3h-33.7ZM479.6,269.8c1.1,0,2.2.1,3.3.4,5.2,1.4,4,6.3-1.3,5.3-.9-.2-1.9-.5-2.9-.2.1.4.4-.5.4.3s-.2,1.6-.2,2.4v.5h.4c1.4-.5,2.8-1.2,4.3-1.7.6-.2,1.2-.3,1.7-.3,3.6,0,4,3.9-.4,5.5-1.3.5-2.5,1.1-3.8,1.5-.3,0-.6.2-.9.3-2.9.8-4.7-.5-4.7-2.1-1.1-.4-2.1-1.8-1.9-4.1,0-.9.2-1.9.3-2.8.4-2.4,1.6-4.1,4-4.8.7-.1,1.3-.2,2-.2h-.3Z"/>
    </clipPath>
    <clipPath id="clippath-30">
      <path class="cls-15" d="M462.2,373.6v15.3h33.7v-15.3h-33.7ZM481.9,375h1c4,0,5,3,3.1,4.5,0,.5-.1,1.1-.6,1.7,1.4,1.3.8,3.8-2.6,4.7-1.4.3-2.7.7-4.1,1-3.1.6-4.7-1-4.5-2.6-.2-.1-.3-.2-.5-.3-.5-.4-.7-1.8-.9-2.5,0-.3,0-.6-.1-1-.3-2.8,1.1-4.3,2.5-4.3h.5c.6-.6,1.6-1,3-1.1h3.2Z"/>
    </clipPath>
    <clipPath id="clippath-31">
      <path class="cls-15" d="M496.9,124.5v54.4h29.1v-54.4h-29.1ZM519.7,135.6c1,0,2.2.9,2.8,2.7.4,1.3.8,2.6,1.3,3.9.7,1.6,1.1,3.2,1.2,4.9v1.8c.4,3.9-3.1,4.7-4.2,1.9,0,0-.2,0-.4-.1h0c-1.2-.1-2.5-.2-3.7-.4-1.2,0-2.4.2-3.6.3-1.8,0-3.3-.4-4.4-1.9,0-.1-.2-.2-.3-.4h-.3c-.5,0-1.3.3-1.8.4-.4,0-1.2.5-1.6.4-1,1.8-.8,3.1-3.3,3.7-.6-.2-1.3-.3-1.9-.6-1.4-.8-1.2-3-1.3-4.3v-4.3c0-2.3,1.1-3.4,2.3-3.4s2.3,1.1,2.3,3.4v1.5c1.4-.7,2.9-1,4.5-1.3,2.3-.4,3.8.3,5.2,2.1l.2.2c.2,0,0,0,0-.2h.3c1.4-.2,2.7-.3,4.1-.3,1.2.1,2.4.2,3.5.4-.2-.7-.4-1.4-.7-2.1-.6-1.5-1-3-1.5-4.5-.8-2.4.3-3.9,1.6-3.9h-.2ZM508.5,148.3h-.1c.1,0,.4.1.3,0h-.2,0ZM502.6,149.2v.4c.1.4,0,0,0-.4Z"/>
    </clipPath>
    <clipPath id="clippath-32">
      <path class="cls-15" d="M70.9,98.5v52.9h28.3v-52.9s-28.3,0-28.3,0ZM89.9,109c1.2,0,1.9,1.3,1.2,3.6-.5,1.6-1.5,3.1-2.3,4.5.3,0,.6.1.9.2,1.9.2,3.8.5,5.5,1.4,4.1,2,1.8,6.5-2.1,4.1-1.3-.8-2.9-.6-4.3-1-1-.2-2-.4-2.9-.9-1,.8-2.1,1.4-3.5,1.9-1,.3-2.2.6-3.4.7h0c-.6,0-1.2,0-1.7,0,0,.7-.3,1.5-.7,2.2-1.3,1.2-1.2,1.6-3.8.6-.4-.2-.5-.8-.8-1.1-1.3-1.9.6-1.5,2.4-1.1,0-.5-.2-.7,0-.8v-.9c-.6,0-1.2.3-1.6.9v.2s0,.2,0,.1v-.2c.2-.9,0-1.8,0-2.6,0-1.8.7-2.8,1.5-3.2v-.6c0-2.3,1.1-3.4,2.3-3.4s2.3,1.1,2.3,3.4v2.1h.3v-1c0-1.6.4-3.3.3-4.9,0-2.3,1.1-3.4,2.2-3.4s2.3,1.1,2.4,3.4v2.4h.4c.7-1.2,1.4-2.3,2-3.5.9-1.9,2.3-2.8,3.3-2.7v-.5ZM74.3,123.3c0,.8.2,1.1,1.4.7v-.5c-.9-.1-1.3-.3-1.5-.2h0ZM75.7,124v.4c.9.2,1.5.1.8-.7-.3,0-.6.2-.8.3ZM78.9,119.1v.8l.2.2v-.8s0,0-.2-.2ZM79.1,120.1h0v.2-.2ZM79.1,120.2h0c0-.1,0-.1-.2-.1v.6h.2v-.5ZM79.1,120.6h0c.3.2.5.2.6.1-.2,0-.4-.1-.5-.2h0Z"/>
    </clipPath>
    <clipPath id="clippath-33">
      <path class="cls-15" d="M102.2,109.6v23.7h11.5v-23.7h-11.5ZM108.2,112.4c.7,0,1.4.7,1.6,2,.2,1.3.3,2.7.5,4,.5-.8,1.8-.8,2.6.8.5,1.2.6,2.4-.6,3.2-1.6.8,1.8,3.2-3,2.2,0-.2-.2-.4-.3-.6-.4,0-.8,0-1.1-.1-1.2-.4-2.4-.2-3.4-1.1,0-.5-.2-1-.2-1.4-1.5-1.4-.2-3.2,1.2-2.5.3-.3.5-.6.8-.8v-.2c0-1.1.5-1.7,1.1-1.9,0-.5,0-1.1-.2-1.6-.2-1.3.4-2,1.1-2h0ZM110.8,120h0c0,.1,0,0,0,0Z"/>
    </clipPath>
    <clipPath id="clippath-34">
      <path class="cls-15" d="M480.6,134.4v26h12.2v-26h-12.2ZM485,141c.6,0,1.3.3,1.7,1,1.9,0,3.7.3,4.8,1.9.1.4.3.8.4,1.2.2,1.3-.6,2.4-1,3.5-.9,2.3-2.1,3.8-4.7,3.8-2.2-.2-3.5-1-3.5-3-1.1-.5-1.6-2.1-.2-4.1,0-.1.2-.3.3-.4v-.6c0-2.3,1.1-3.4,2.3-3.4h0ZM487.5,145h0v.3-.2h0ZM487.3,149.3c0,.6.2.4,0,0Z"/>
    </clipPath>
    <clipPath id="clippath-35">
      <path class="cls-15" d="M27.8,19.2v36.8h18.4v-19.4c-1.4,1-5,1.9-2.9,2.6.2,0,.4,0,.6.2h-.2c-.2,0-.3,0-.5-.1-.7,0-1.5,0-2.1,0-1.7,0-3.3,0-5-.2-1.1,0-2.3-.2-3.4-.4.5-.5.3-.6.2-.7,0,.5-.6.3-2.3.1-2.9.3-2.3.6-2.3-2.3s1.1-3.4,2.3-3.4,1.7.6,2.1,1.8c1.3,0,2.6.2,3.8.3,1.6.1,3.1.2,4.7.2s3,0,4.4.7c.2,0,.4.2.6.3v-16.1h-18.4v-.3Z"/>
    </clipPath>
    <clipPath id="clippath-36">
      <path class="cls-15" d="M96.8,19.7v36.8h18.4V19.7h-18.4ZM100.1,27c1.1,0,2.3,1,2.6,3.1.6-.3,1.2-.5,1.6-.6,2.4-.5,3.7.5,4.6,2.2v-.8c0-2.3,1.2-3.4,2.4-3.4s2.3,1.1,2.2,3.4c0,1.3,0,2.5,0,3.8.3,2.5-1,3.9-2.3,3.7-.5.2-1.1.3-1.5.3h-1.4c-2.1,0-4.2,0-6.3-.2-.7,0-2.5-.1-2.9-.7-1.1-1.5-1.3-2.6-.5-3.5-.5-1.3-.5-3.2-.5-4.1-.2-2.3.8-3.4,2-3.4v.2ZM102.9,32.9h0c0-.1,0,0,0,0ZM105.5,33.9h-.2c.3,0,.7.1.2,0ZM101.6,37.8c0,0-.3,0-.4.1,0,0,.2,0,.4-.1Z"/>
    </clipPath>
    <clipPath id="clippath-37">
      <path class="cls-15" d="M154,18.2v36.8h18.4V18.2h-18.4ZM156.3,29.3c1,0,2.2,1.2,3.1,3.3.3.6,0,1.5.6,1.9.2,0,.4.1.6.2.5.2,1.1.3,1.7.3,1.7.2,3.4,0,5.1-.2,4.5-.3,4.9,4.3.3,4.6-2,.1-4.1.4-6.1.1s-3.9-.8-5.3-2.3c-.9-1.4-1.3-2.9-1.4-4.6-.1-2.3.5-3.3,1.5-3.3h-.1Z"/>
    </clipPath>
    <clipPath id="clippath-38">
      <path class="cls-15" d="M292.5,17.4v36.8h18.4V17.4h-18.4ZM297.8,30.7h0c.9,0,1.7,1,1.8,3.3v.3h6.1c4.6,0,4.5,4.6,0,4.6h-5.4c-.6,0-1.3,0-1.9-.1-1.1,2.3-4.2,1.6-4.2-2.1v-1.9c0-2.3,1.1-3.4,2.3-3.4s0,0,0,0c.4-.4.9-.6,1.3-.7h0ZM299.2,35.9v.2h0v-.2Z"/>
    </clipPath>
    <clipPath id="clippath-39">
      <path class="cls-15" d="M343.7,18.3v36.8h18.4V18.3h-18.4ZM350.2,28.5c1.1,0,2.3,1.1,2.2,3.4v1.4c.6.1,1.3.2,1.9.2-.1-.4-.2-.9-.3-1.3-.6-2.3.3-3.6,1.6-3.7,1.1,0,2.4.9,3,2.9.4,1.3.6,2.6.9,3.9.6,3.6-2.2,4.8-3.7,2.8h-.4c-1,0-2-.1-3-.3-.3,2-1.3,4.1-3.7,4-.5,0-.9-.3-1.3-.5-1.1-.9-1.4-1.8-1.3-3.2,0-.3.2-.6.2-.9s-.1-.8-.2-1.2v-.7c-.4-.4-.7-.9-1-1.5-.9-2.4,0-3.8,1.5-3.8s1.1.2,1.6.6c.4-1.4,1.3-2.1,2.2-2.1h-.2ZM347.7,37.7c-.3.3-.2.6,0,0Z"/>
    </clipPath>
    <clipPath id="clippath-40">
      <path class="cls-15" d="M445,18.2v36.8h18.4V18.2h-18.4ZM451.5,30.2c1.3,0,2.5,1.4,1.9,3.9,0,.2-.1.4-.2.6h6.1c4.5-.1,4.7,4.5.1,4.6h-3.5c-1.6,0-3.2.2-4.8,0-.3.3-.5.6-.8.9-.7,0-1.5.7-2.2.4-1.4-.6-2.3-2.7-2-4.2,0-.4.3-.8.4-1.2.6-.4,1.1-1,1.8-1.2h.3c0-.3.2-.6.2-.8.5-1.9,1.6-2.8,2.6-2.9h.1ZM447.5,36.6h-.1q0,.2.1,0Z"/>
    </clipPath>
    <clipPath id="clippath-41">
      <path class="cls-15" d="M550.1,19v35.2h17.6V19h-17.6ZM556,30.6c.8,0,1.7.6,2.2,1.8,1.1-.1,2.1,0,3.2.1,1.2.2.6,0,1.9.5,4.3,1.3,2.8,6-1.4,4.4-.5-.2-.2-.1-.9-.2-.9,0-1.8-.3-2.6,0,0,.6-.3,1.2-.5,1.8-.8,1.6-2.3,3.2-4.3,2.8-.4,0-.8-.4-1.2-.5-2-2-1.3-3.9.3-5.8.5-.4.9-.8,1.4-1.1v-.2c-.2-2.3.9-3.4,2.1-3.4l-.2-.2ZM553.4,37.3c-.2.1-.3.5,0,0Z"/>
    </clipPath>
    <clipPath id="clippath-42">
      <path class="cls-15" d="M99.4,179v15.3h33.7v-15.3h-15.2c.2.1.3.3.5.4,2,1.8-4.5.1-2.2,1.6.4.2.4.4.6.3.3-.2.4-.4.4-.5,0,.1,0,.6.2,1.6.2.7.5,1.4.7,2.2,1.7-.4,3.3-.9,4.9-1.4,2.5-.9,3,1.8.4,2.7-1.4.5-2.9.9-4.4,1.3.4.3.6.7.6,1.3h1.8c2.5,0,2.7,2.3.6,2.7h0c-1.9,1.9-2.2,2-2.7.8-.2,0-.4,0-.7.1-.2.3-.6,1.1-1,1.1-1.3-.2-2-.6-2.1-1.1h-2c-1.8-.1-2.3-1.4-1.7-2.1-3.1-1.4-.5-3.9,2-4.2.5-.1,1-.3,1.5-.4-.2-.7-.4-1.3-.6-2-.3-1.3-.9-3.2.4-4.2h-16l.3-.2ZM113.1,188.8h-.2c0,.1,0,0,0,0h0Z"/>
    </clipPath>
    <clipPath id="clippath-43">
      <path class="cls-15" d="M98.6,225v15.3h33.7v-15.3h-33.7ZM115.8,225.5c.8,0,1.5.9,1,2.3h0c.4.3.8.8,1,1.5,0,.2,0,.3.2.5h1.9c2.7,0,2.6,2.2,0,2.7h-1.6c0,.7-.2,1.5-.6,2.2,0,.1,0,.2-.2.3,1.4.3,2.8.1,4.2.2,2.7.1,2.7,2.7,0,2.7s-3.4,0-5.1-.3c-1.4-.3-2.3-1.2-2.9-2.3-.4-.7-.6-1.4-.7-2.2,0-1.8.2-3.5.9-5.1.3-.8.2-.4.4-1,.3-1.1,1-1.6,1.6-1.6h-.1Z"/>
    </clipPath>
    <clipPath id="clippath-44">
      <path class="cls-15" d="M90.5,317.3v15.3h33.7v-15.3h-33.7ZM107.5,318.5h1.4c2.7,0,2.7,2.7,0,2.7.2.4.3.9,0,1.6,0,.7-.2.8-.2,1,.5.2.9.9.9,1.9s0,1.2,0,1.9h.5c.7-.2,1.3-.4,1.9-.7.4-.1.7-.2,1.1-.2,1.3,0,1.8,1.1,1,2,0,.7-.5,1.6-2,1.6h-1.7c-1,.3-2,.5-3.1.6h-.9c-2.7.3-2.9-2.4-.2-2.6h.2c-.7-1.5-.6-3.1-.3-4.6.2-.9,0-.5.3-1.4,0-.5.3-.8.4-1.1-2-.4-1.8-2.6.6-2.6h0ZM107,327.1h0c0,.1,0,0,0-.1h0Z"/>
    </clipPath>
    <clipPath id="clippath-45">
      <path class="cls-15" d="M495,427.8v46h27.6v-46h-27.6,0ZM518.1,447.4c1.2,0,2.2,1.1,2.1,3.4,0,1.2,0,2.4.4,3.6.7,3.1-.9,4.5-3.8,5-2.6,0-4.1-.9-5-3.1-1.4.2-2.7,0-4.1-.6,0,.6-.7-.7-.9-.4,0,0,.2,0,.3.1.1.1-.2.4-.4.5-1.5,1-3.3,1.3-5.1,1.2-1,2.1-3.3,1.9-4-.4,0,0-.2-.1-.3-.2-2.5-1.8-1.7-.5-.5-4.5.2,0,.4-.1.7-.2,0-.2.1-.4.3-.3v-.4c.3-2.1,1.5-3.1,2.6-3,1.2,0,2.3,1.4,1.9,3.8v.7c.6,0,1.3-.2,1.7-.5,1.8-1.3,3.5-1.8,5.5-.7,1,.6,2,.2,3.1,0,1.3,0,2.4.3,3,1.1v-1.8c0-2.3,1.4-3.4,2.5-3.4h0ZM497.9,452h-.3c0,.2,0,.6.2.9,0-.3,0-.7.1-1h0ZM515.8,454.7h0l.2.2v-.2h-.2ZM516.2,455.6c0,.2.2,1,0,0Z"/>
    </clipPath>
    <clipPath id="clippath-46">
      <path class="cls-15" d="M66.8,397.9v47.5h25.3v-47.5h-25.3ZM83.5,413.8c1.1,0,2.3,1.1,2.3,3.4v8.5c2.1-.6,3.4.3,3.7,1.5.9.5,1.5,1.9.7,3.8,0,.3-.2.6-.3.9-1.4,2.6-3.3,3.6-6.1,2.4-.4-.3-.8-.6-1.2-1-.2-.3-.4-.6-.6-.9-.6-.1-1.3-.4-2-.9-1.5-1.1-2.9-2.4-4.8-2.7-.7,0-1.4,0-2.2.2-.3.5-.6.9-1,1.4-2.2,1.8-5,.5-4.6-2.5,0-1,.8-1.5,1.4-2.1.3-.2.6-.4.9-.5.4-.9.5-1.3.8-1.6.3-1.5,1.2-2.2,2.2-2.2s2.1.9,2.3,2.7h.3c2.2.1,4.1,1.3,5.8,2.5v-9.4c0-2.3,1.1-3.4,2.3-3.4h0ZM68.9,427.1l-.2.2.2-.2ZM86.3,430.3h0c0,.3.3.4.3.4,0,0,0-.2,0-.3h0c0-.1-.2-.1-.2-.1Z"/>
    </clipPath>
    <clipPath id="clippath-47">
      <path class="cls-15" d="M215.9-1.9c0,1.8,0,3.6-.2,5.4,0,1.6-.5,3.2-1,4.7-.4,1.4-1.2,2.3-1.9,2.7v3.8c.6-.4,1.3-.7,2.1-1,.7-.3,1.2-.4,1.8-.4,2.3,0,3.2,2.1,1.5,3.7,1.3.1,2.9.4,3,1.2.1.9-.2,1.7-.6,2.6,1.5,0,2.8-.7.6,1-1.4,1.1-3,1.5-4.6,1.9-1.7.4-2.9,0-3.5-.7h-.3v13.1h59.5V-1.9h-56.4ZM215.3,16.2s0,0,.3.3c-.1-.2-.3-.3-.3-.3Z"/>
    </clipPath>
    <clipPath id="clippath-48">
      <path class="cls-15" d="M203.4,11.9v13.8h28.3v-13.8h-28.3ZM216.7,13.2c2.3,0,3.2,2.1,1.5,3.7,1.3.1,2.9.4,3,1.2.1.9-.2,1.7-.6,2.6,1.5,0,2.8-.7.6,1-1.4,1.1-3,1.5-4.6,1.9-1.7.4-2.9,0-3.5-.7-1.6-.4-2-2-.9-3.3-.4-.4-.7-.9-.9-1.5-.1-.5,0-1,0-1.6.6-1.8,2-2.3,3.5-3,.7-.3,1.2-.4,1.8-.4h0ZM215.3,16.2s0,0,.3.3c-.1-.2-.3-.3-.3-.3Z"/>
    </clipPath>
    <clipPath id="clippath-49">
      <path class="cls-15" d="M1.9,117.2v2.8c.4,1,.8,2,.6,3.1,0,.5-.3,1-.6,1.4v2.1s.1.2.2.3c.3.6.4,1.3.4,1.9h20.6v-11.6H1.9Z"/>
    </clipPath>
  </defs>
  <!-- Generator: Adobe Illustrator 28.6.0, SVG Export Plug-In . SVG Version: 1.2.0 Build 709)  -->
  <g>
    <g id="Layer_1">
      <g>
        <g id="svg1" inkscape:version="1.3.2 (091e20e, 2023-11-25, custom)" sodipodi:docname="1st_floor.svg">
          <sodipodi:namedview id="namedview1" bordercolor="#000000" borderopacity="0.25" inkscape:current-layer="layer1" inkscape:cx="440.93324" inkscape:cy="451.17349" inkscape:deskcolor="#d1d1d1" inkscape:document-units="mm" inkscape:pagecheckerboard="0" inkscape:pageopacity="0.0" inkscape:showpageshadow="2" inkscape:window-height="991" inkscape:window-maximized="1" inkscape:window-width="1920" inkscape:window-x="-9" inkscape:window-y="-9" inkscape:zoom="0.83005763" pagecolor="#ffffff"/>
          <g id="layer1" inkscape:groupmode="layer" inkscape:label="Layer 1">
            <g class="cls-59">
              <path id="rect1" class="cls-2" d="M0,36h594.5v511.8H0V36Z"/>
            </g>
            <g class="cls-36">
              <path id="rect2" class="cls-2" d="M173.2,149.4h257.4v275.8H173.2V149.4Z"/>
            </g>
            <path id="rect69-0" class="cls-2" d="M238.2,359.2h55.2v30.6h-55.2v-30.6Z"/>
            <path id="rect67" class="cls-2" d="M296.5,132.5h17.6v36h-17.6v-36Z"/>
            <g class="cls-53">
              <path id="rect69" class="cls-2" d="M409.9,285h42.1v21.5h-42.1v-21.5Z"/>
            </g>
            <g class="cls-44">
              <path id="rect69-7" class="cls-2" d="M406.1,178.9h42.1v21.5h-42.1v-21.5Z"/>
            </g>
            <g class="cls-22">
              <path id="rect69-2" class="cls-2" d="M406.9,382.1h42.1v21.5h-42.1v-21.5Z"/>
            </g>
            <g class="cls-40">
              <path id="rect69-3" class="cls-2" d="M151.9,352.1h42.1v21.5h-42.1v-21.5Z"/>
            </g>
            <g class="cls-12">
              <path id="rect69-5" class="cls-2" d="M154.6,271.9h42.1v21.5h-42.1v-21.5Z"/>
            </g>
            <path id="rect69-71" class="cls-2" d="M155.9,172.1h42.1v21.5h-42.1v-21.5Z"/>
            <path id="path69" class="cls-2" d="M272,424.5l-.8-19.2,10-.8-.8-14.6"/>
            <path id="path70" class="cls-2" d="M260.5,359.3v-11.5h31.4v-10l14.6-.8"/>
            <path id="rect70" class="cls-2" d="M307.2,322.6h13.8v23.8h-13.8v-23.8Z"/>
            <path id="path71" class="cls-2" d="M321.8,337.9c21.5,0,26.8-.8,26.8-.8l-1.5,88.1"/>
            <g class="cls-13">
              <path id="path72" class="cls-2" d="M-.8,98.8h30.6l-.8,76.6,38.3-.8v-53.6l49-.8-.8,139.4h-7.7v167.8h-43.7v-52.1s-37.5,1.5-38.3.8c-.8-.8,0,3.1-.8-.8s0,104.2,0,104.2H0"/>
            </g>
            <g class="cls-42">
              <path id="rect67-71-8" class="cls-2" d="M95.1,413.7h10.7v23h-10.7v-23Z"/>
            </g>
            <g class="cls-25">
              <path id="path72-7" class="cls-2" d="M593.9,476.2h-30.6l.8-76.6-38.3.8v53.6l-49,.8.8-139.4h7.7v-167.8h43.7v52.1s37.5-1.5,38.3-.8c.8.8,0-3.1.8.8.8,3.8,0-104.2,0-104.2h25.3"/>
            </g>
            <g class="cls-26">
              <path id="rect67-71-1" class="cls-2" d="M480.3,441.4h10.7v23h-10.7v-23Z"/>
            </g>
            <g class="cls-31">
              <path id="path99" class="cls-2" d="M477.3,324.9v-177l13-.8"/>
            </g>
            <g class="cls-46">
              <path id="rect99" class="cls-2" d="M13,134.1h33.7v16.1H13v-16.1Z"/>
            </g>
            <g class="cls-57">
              <path id="rect99-4" class="cls-2" d="M12.2,152.9h33.7v16.1H12.2v-16.1Z"/>
            </g>
            <g class="cls-47">
              <path id="rect99-1" class="cls-2" d="M7.1,383.5h33.7v16.1H7.1v-16.1Z"/>
            </g>
            <g class="cls-18">
              <path id="rect99-2" class="cls-2" d="M7.3,402.9h33.7v16.1H7.3v-16.1Z"/>
            </g>
            <g class="cls-52">
              <path id="rect99-5" class="cls-2" d="M549.7,157.1h33.7v16.1h-33.7v-16.1Z"/>
            </g>
            <g class="cls-14">
              <path id="rect99-0" class="cls-2" d="M549.1,176.3h33.7v16.1h-33.7v-16.1Z"/>
            </g>
            <g class="cls-20">
              <path id="rect99-55" class="cls-2" d="M544.1,405.5h33.7v16.1h-33.7v-16.1Z"/>
            </g>
            <g class="cls-49">
              <path id="rect99-7" class="cls-2" d="M545,424.5h33.7v16.1h-33.7v-16.1Z"/>
            </g>
            <g class="cls-41">
              <path id="rect67-6" class="cls-2" d="M72.4,521.6h17.6v36h-17.6v-36Z"/>
            </g>
            <g class="cls-11">
              <path id="rect67-7" class="cls-2" d="M150.9,526.2h17.6v36h-17.6v-36Z"/>
            </g>
            <g class="cls-23">
              <path id="rect67-4" class="cls-2" d="M203.8,526.6h17.6v36h-17.6v-36Z"/>
            </g>
            <g class="cls-24">
              <path id="rect67-74" class="cls-2" d="M256.3,525.9h17.6v36h-17.6v-36Z"/>
            </g>
            <g class="cls-58">
              <path id="rect67-2" class="cls-2" d="M303.5,524.8h17.6v36h-17.6v-36Z"/>
            </g>
            <g class="cls-29">
              <path id="rect67-9" class="cls-2" d="M353.9,524.8h17.6v36h-17.6v-36Z"/>
            </g>
            <g class="cls-45">
              <path id="rect67-3" class="cls-2" d="M462.5,524h17.6v36h-17.6v-36Z"/>
            </g>
            <g class="cls-30">
              <path id="rect67-5" class="cls-2" d="M541.1,523.9h17.6v36h-17.6v-36Z"/>
            </g>
            <g class="cls-35">
              <path id="rect100" class="cls-2" d="M459.7,235.2h32.9v14.6h-32.9v-14.6Z"/>
            </g>
            <g class="cls-54">
              <path id="rect100-6" class="cls-2" d="M461.5,269.6h32.9v14.6h-32.9v-14.6Z"/>
            </g>
            <g class="cls-48">
              <path id="rect100-5" class="cls-2" d="M462.6,374h32.9v14.6h-32.9v-14.6Z"/>
            </g>
            <g class="cls-16">
              <path id="rect101" class="cls-2" d="M497.2,124.9h28.3v53.6h-28.3v-53.6Z"/>
            </g>
            <g class="cls-50">
              <path id="rect101-1" class="cls-2" d="M71.3,98.8h27.6v52.1h-27.6s0-52.1,0-52.1Z"/>
            </g>
            <g class="cls-19">
              <path id="rect67-71" class="cls-2" d="M102.5,110h10.7v23h-10.7v-23Z"/>
            </g>
            <g class="cls-1">
              <path id="rect67-26" class="cls-2" d="M481,134.8h11.5v25.3h-11.5v-25.3Z"/>
            </g>
            <g class="cls-33">
              <path id="rect67-7-8" class="cls-2" d="M28.1,19.6h17.6v36h-17.6V19.6Z"/>
            </g>
            <g class="cls-32">
              <path id="rect67-7-4" class="cls-2" d="M97.1,20.1h17.6v36h-17.6V20.1Z"/>
            </g>
            <g class="cls-56">
              <path id="rect67-7-47" class="cls-2" d="M154.4,18.5h17.6v36h-17.6V18.5Z"/>
            </g>
            <g class="cls-10">
              <path id="rect67-7-2" class="cls-2" d="M292.9,17.8h17.6v36h-17.6V17.8Z"/>
            </g>
            <g class="cls-51">
              <path id="rect67-7-48" class="cls-2" d="M344.1,18.6h17.6v36h-17.6V18.6Z"/>
            </g>
            <g class="cls-39">
              <path id="rect67-7-85" class="cls-2" d="M445.3,18.5h17.6v36h-17.6V18.5Z"/>
            </g>
            <g class="cls-43">
              <path id="rect67-7-1" class="cls-2" d="M550.5,19.4h16.9v34.5h-16.9V19.4Z"/>
            </g>
            <g class="cls-27">
              <path id="rect100-2" class="cls-2" d="M99.8,179.4h32.9v14.6h-32.9s0-14.6,0-14.6Z"/>
            </g>
            <g class="cls-28">
              <path id="rect100-68" class="cls-2" d="M98.9,225.3h32.9v14.6h-32.9v-14.6Z"/>
            </g>
            <g class="cls-60">
              <path id="rect100-3" class="cls-2" d="M90.8,317.7h32.9v14.6h-32.9v-14.6Z"/>
            </g>
            <g class="cls-37">
              <path id="rect101-9" class="cls-2" d="M495.4,428.1h26.8v45.2h-26.8v-45.2h0Z"/>
            </g>
            <g class="cls-38">
              <path id="rect101-2" class="cls-2" d="M67.1,398.3h24.5v46.7h-24.5v-46.7Z"/>
            </g>
            <g class="cls-21">
              <path id="path103" class="cls-2" d="M216.1,36c-.8-36.8,1.5-36-.8-36.8l-2.3-.8s57.5.8,58.2.8h.8v36.8"/>
            </g>
            <g class="cls-34">
              <path id="rect103" class="cls-2" d="M203.8,12.3h27.6v13h-27.6s0-13,0-13Z"/>
            </g>
            <path id="path985" class="cls-2" d="M564.7,421.1h9"/>
            <path id="path986" class="cls-2" d="M220.5,543v5.4"/>
            <g id="text986" class="cls-17">
              <g class="cls-17">
                <g class="cls-17">
                  <text class="cls-7" transform="translate(28 10.8)"><tspan x="0" y="0">112</tspan></text>
                </g>
              </g>
              <g class="cls-17">
                <g class="cls-17">
                  <text class="cls-5" transform="translate(28 10.8)"><tspan x="0" y="0">112</tspan></text>
                </g>
              </g>
            </g>
            <g id="text987" class="cls-17">
              <g class="cls-17">
                <g class="cls-17">
                  <text class="cls-7" transform="translate(100.3 39.8)"><tspan x="0" y="0">w</tspan></text>
                </g>
              </g>
              <g class="cls-17">
                <g class="cls-17">
                  <text class="cls-5" transform="translate(100.3 39.8)"><tspan x="0" y="0">w</tspan></text>
                </g>
              </g>
            </g>
            <g id="text988" class="cls-17">
              <g class="cls-17">
                <g class="cls-17">
                  <text class="cls-7" transform="translate(158.1 39.8)"><tspan x="0" y="0">w</tspan></text>
                </g>
              </g>
              <g class="cls-17">
                <g class="cls-17">
                  <text class="cls-5" transform="translate(158.1 39.8)"><tspan x="0" y="0">w</tspan></text>
                </g>
              </g>
            </g>
            <g id="text989" class="cls-17">
              <g class="cls-17">
                <g class="cls-17">
                  <text class="cls-7" transform="translate(167.2 10.8)"><tspan x="0" y="0">Aud-2</tspan></text>
                </g>
              </g>
              <g class="cls-17">
                <g class="cls-17">
                  <text class="cls-5" transform="translate(167.2 10.8)"><tspan x="0" y="0">Aud-2</tspan></text>
                </g>
              </g>
            </g>
            <g id="text990" class="cls-17">
              <g class="cls-17">
                <g class="cls-17">
                  <text class="cls-7" transform="translate(206 180.7)"><tspan x="0" y="0">110</tspan></text>
                </g>
              </g>
              <g class="cls-17">
                <g class="cls-17">
                  <text class="cls-5" transform="translate(206 180.7)"><tspan x="0" y="0">110</tspan></text>
                </g>
              </g>
            </g>
            <g id="text991" class="cls-17">
              <g class="cls-17">
                <g class="cls-17">
                  <text class="cls-7" transform="translate(205.1 276.5)"><tspan x="0" y="0">109</tspan></text>
                </g>
              </g>
              <g class="cls-17">
                <g class="cls-17">
                  <text class="cls-5" transform="translate(205.1 276.5)"><tspan x="0" y="0">109</tspan></text>
                </g>
              </g>
            </g>
            <g id="text992" class="cls-17">
              <g class="cls-17">
                <g class="cls-17">
                  <text class="cls-7" transform="translate(199.7 352.4)"><tspan x="0" y="0">106</tspan></text>
                </g>
              </g>
              <g class="cls-17">
                <g class="cls-17">
                  <text class="cls-5" transform="translate(199.7 352.4)"><tspan x="0" y="0">106</tspan></text>
                </g>
              </g>
            </g>
            <g id="text993" class="cls-17">
              <g class="cls-17">
                <g class="cls-17">
                  <text class="cls-7" transform="translate(292.8 183.4)"><tspan x="0" y="0">113</tspan></text>
                </g>
              </g>
              <g class="cls-17">
                <g class="cls-17">
                  <text class="cls-5" transform="translate(292.8 183.4)"><tspan x="0" y="0">113</tspan></text>
                </g>
              </g>
            </g>
            <g id="text994" class="cls-17">
              <g class="cls-17">
                <g class="cls-17">
                  <text class="cls-7" transform="translate(372.3 192.5)"><tspan x="0" y="0">119</tspan></text>
                </g>
              </g>
              <g class="cls-17">
                <g class="cls-17">
                  <text class="cls-5" transform="translate(372.3 192.5)"><tspan x="0" y="0">119</tspan></text>
                </g>
              </g>
            </g>
            <g id="text995" class="cls-17">
              <g class="cls-17">
                <g class="cls-17">
                  <text class="cls-7" transform="translate(372.3 384.9)"><tspan x="0" y="0">123</tspan></text>
                </g>
              </g>
              <g class="cls-17">
                <g class="cls-17">
                  <text class="cls-5" transform="translate(372.3 384.9)"><tspan x="0" y="0">123</tspan></text>
                </g>
              </g>
            </g>
            <g id="text996" class="cls-17">
              <g class="cls-17">
                <g class="cls-17">
                  <text class="cls-7" transform="translate(290 72.3)"><tspan x="0" y="0">114</tspan></text>
                </g>
              </g>
              <g class="cls-17">
                <g class="cls-17">
                  <text class="cls-5" transform="translate(290 72.3)"><tspan x="0" y="0">114</tspan></text>
                </g>
              </g>
            </g>
            <g id="text997" class="cls-17">
              <g class="cls-17">
                <g class="cls-17">
                  <text class="cls-7" transform="translate(344.3 73.2)"><tspan x="0" y="0">115</tspan></text>
                </g>
              </g>
              <g class="cls-17">
                <g class="cls-17">
                  <text class="cls-5" transform="translate(344.3 73.2)"><tspan x="0" y="0">115</tspan></text>
                </g>
              </g>
            </g>
            <g id="text998" class="cls-17">
              <g class="cls-17">
                <g class="cls-17">
                  <text class="cls-7" transform="translate(441.8 74.1)"><tspan x="0" y="0">116</tspan></text>
                </g>
              </g>
              <g class="cls-17">
                <g class="cls-17">
                  <text class="cls-5" transform="translate(441.8 74.1)"><tspan x="0" y="0">116</tspan></text>
                </g>
              </g>
            </g>
            <g id="text999" class="cls-17">
              <g class="cls-17">
                <g class="cls-17">
                  <text class="cls-7" transform="translate(548.5 75.9)"><tspan x="0" y="0">117</tspan></text>
                </g>
              </g>
              <g class="cls-17">
                <g class="cls-17">
                  <text class="cls-5" transform="translate(548.5 75.9)"><tspan x="0" y="0">117</tspan></text>
                </g>
              </g>
            </g>
            <g id="text1000" class="cls-17">
              <g class="cls-17">
                <g class="cls-17">
                  <text class="cls-7" transform="translate(303.6 311.7)"><tspan x="0" y="0">130</tspan></text>
                </g>
              </g>
              <g class="cls-17">
                <g class="cls-17">
                  <text class="cls-5" transform="translate(303.6 311.7)"><tspan x="0" y="0">130</tspan></text>
                </g>
              </g>
            </g>
            <g id="text1001" class="cls-17">
              <g class="cls-17">
                <g class="cls-17">
                  <text class="cls-7" transform="translate(446.4 138.2)"><tspan x="0" y="0">118</tspan></text>
                </g>
              </g>
              <g class="cls-17">
                <g class="cls-17">
                  <text class="cls-5" transform="translate(446.4 138.2)"><tspan x="0" y="0">118</tspan></text>
                </g>
              </g>
            </g>
            <g id="text1002" class="cls-17">
              <g class="cls-17">
                <g class="cls-17">
                  <text class="cls-7" transform="translate(499.7 247.6)"><tspan x="0" y="0">121</tspan></text>
                </g>
              </g>
              <g class="cls-17">
                <g class="cls-17">
                  <text class="cls-5" transform="translate(499.7 247.6)"><tspan x="0" y="0">121</tspan></text>
                </g>
              </g>
            </g>
            <g id="text1003" class="cls-17">
              <g class="cls-17">
                <g class="cls-17">
                  <text class="cls-7" transform="translate(499.7 282.8)"><tspan x="0" y="0">120</tspan></text>
                </g>
              </g>
              <g class="cls-17">
                <g class="cls-17">
                  <text class="cls-5" transform="translate(499.7 282.8)"><tspan x="0" y="0">120</tspan></text>
                </g>
              </g>
            </g>
            <g id="text1004" class="cls-17">
              <g class="cls-17">
                <g class="cls-17">
                  <text class="cls-7" transform="translate(505.1 385.8)"><tspan x="0" y="0">122</tspan></text>
                </g>
              </g>
              <g class="cls-17">
                <g class="cls-17">
                  <text class="cls-5" transform="translate(505.1 385.8)"><tspan x="0" y="0">122</tspan></text>
                </g>
              </g>
            </g>
            <g id="text1005" class="cls-17">
              <g class="cls-17">
                <g class="cls-17">
                  <text class="cls-7" transform="translate(443.6 461.7)"><tspan x="0" y="0">124</tspan></text>
                </g>
              </g>
              <g class="cls-17">
                <g class="cls-17">
                  <text class="cls-5" transform="translate(443.6 461.7)"><tspan x="0" y="0">124</tspan></text>
                </g>
              </g>
            </g>
            <g id="text1006" class="cls-17">
              <g class="cls-17">
                <g class="cls-17">
                  <text class="cls-7" transform="translate(538.5 512.3)"><tspan x="0" y="0">125</tspan></text>
                </g>
              </g>
              <g class="cls-17">
                <g class="cls-17">
                  <text class="cls-5" transform="translate(538.5 512.3)"><tspan x="0" y="0">125</tspan></text>
                </g>
              </g>
            </g>
            <g id="text1007" class="cls-17">
              <g class="cls-17">
                <g class="cls-17">
                  <text class="cls-7" transform="translate(459 513.2)"><tspan x="0" y="0">126</tspan></text>
                </g>
              </g>
              <g class="cls-17">
                <g class="cls-17">
                  <text class="cls-5" transform="translate(459 513.2)"><tspan x="0" y="0">126</tspan></text>
                </g>
              </g>
            </g>
            <g id="text1008" class="cls-17">
              <g class="cls-17">
                <g class="cls-17">
                  <text class="cls-7" transform="translate(350.6 514.1)"><tspan x="0" y="0">127</tspan></text>
                </g>
              </g>
              <g class="cls-17">
                <g class="cls-17">
                  <text class="cls-5" transform="translate(350.6 514.1)"><tspan x="0" y="0">127</tspan></text>
                </g>
              </g>
            </g>
            <g id="text1009" class="cls-17">
              <g class="cls-17">
                <g class="cls-17">
                  <text class="cls-7" transform="translate(300 513.2)"><tspan x="0" y="0">128</tspan></text>
                </g>
              </g>
              <g class="cls-17">
                <g class="cls-17">
                  <text class="cls-5" transform="translate(300 513.2)"><tspan x="0" y="0">128</tspan></text>
                </g>
              </g>
            </g>
            <g id="text1010" class="cls-17">
              <g class="cls-17">
                <g class="cls-17">
                  <text class="cls-7" transform="translate(251.2 512.3)"><tspan x="0" y="0">101</tspan></text>
                </g>
              </g>
              <g class="cls-17">
                <g class="cls-17">
                  <text class="cls-5" transform="translate(251.2 512.3)"><tspan x="0" y="0">101</tspan></text>
                </g>
              </g>
            </g>
            <g id="text1011" class="cls-17">
              <g class="cls-17">
                <g class="cls-17">
                  <text class="cls-7" transform="translate(197.9 512.3)"><tspan x="0" y="0">102</tspan></text>
                </g>
              </g>
              <g class="cls-17">
                <g class="cls-17">
                  <text class="cls-5" transform="translate(197.9 512.3)"><tspan x="0" y="0">102</tspan></text>
                </g>
              </g>
            </g>
            <g id="text1012" class="cls-17">
              <g class="cls-17">
                <g class="cls-17">
                  <text class="cls-7" transform="translate(149.1 513.2)"><tspan x="0" y="0">103</tspan></text>
                </g>
              </g>
              <g class="cls-17">
                <g class="cls-17">
                  <text class="cls-5" transform="translate(149.1 513.2)"><tspan x="0" y="0">103</tspan></text>
                </g>
              </g>
            </g>
            <g id="text1013" class="cls-17">
              <g class="cls-17">
                <g class="cls-17">
                  <text class="cls-7" transform="translate(71.4 511.4)"><tspan x="0" y="0">104</tspan></text>
                </g>
              </g>
              <g class="cls-17">
                <g class="cls-17">
                  <text class="cls-5" transform="translate(71.4 511.4)"><tspan x="0" y="0">104</tspan></text>
                </g>
              </g>
            </g>
            <g id="text1014" class="cls-17">
              <g class="cls-17">
                <g class="cls-17">
                  <text class="cls-9" transform="translate(473.7 247.6) scale(.8 1)"><tspan x="0" y="0">B</tspan></text>
                </g>
              </g>
              <g class="cls-17">
                <g class="cls-17">
                  <text class="cls-6" transform="translate(473.7 247.6) scale(.8 1)"><tspan x="0" y="0">B</tspan></text>
                </g>
              </g>
            </g>
            <g id="text1015" class="cls-17">
              <g class="cls-17">
                <g class="cls-17">
                  <text class="cls-7" transform="translate(472.6 282.8)"><tspan x="0" y="0">B</tspan></text>
                </g>
              </g>
              <g class="cls-17">
                <g class="cls-17">
                  <text class="cls-5" transform="translate(472.6 282.8)"><tspan x="0" y="0">B</tspan></text>
                </g>
              </g>
            </g>
            <g id="text1016" class="cls-17">
              <g class="cls-17">
                <g class="cls-17">
                  <text class="cls-7" transform="translate(108.4 191.6)"><tspan x="0" y="0">G</tspan></text>
                </g>
              </g>
              <g class="cls-17">
                <g class="cls-17">
                  <text class="cls-5" transform="translate(108.4 191.6)"><tspan x="0" y="0">G</tspan></text>
                </g>
              </g>
            </g>
            <g id="text1017" class="cls-17">
              <g class="cls-17">
                <g class="cls-17">
                  <text class="cls-7" transform="translate(109.3 237.6)"><tspan x="0" y="0">G</tspan></text>
                </g>
              </g>
              <g class="cls-17">
                <g class="cls-17">
                  <text class="cls-5" transform="translate(109.3 237.6)"><tspan x="0" y="0">G</tspan></text>
                </g>
              </g>
            </g>
            <g id="text1019" class="cls-17">
              <g class="cls-17">
                <g class="cls-17">
                  <text class="cls-7" transform="translate(58.7 329.8)"><tspan x="0" y="0">107</tspan></text>
                </g>
              </g>
              <g class="cls-17">
                <g class="cls-17">
                  <text class="cls-5" transform="translate(58.7 329.8)"><tspan x="0" y="0">107</tspan></text>
                </g>
              </g>
            </g>
            <g id="text1020" class="cls-17">
              <g class="cls-17">
                <g class="cls-17">
                  <text class="cls-8" transform="translate(42.2 234.9) scale(1.2 1)"><tspan x="0" y="0">108-A</tspan></text>
                </g>
              </g>
              <g class="cls-17">
                <g class="cls-17">
                  <text class="cls-4" transform="translate(42.2 234.9) scale(1.2 1)"><tspan x="0" y="0">108-A</tspan></text>
                </g>
              </g>
            </g>
            <g id="text1021" class="cls-17">
              <g class="cls-17">
                <g class="cls-17">
                  <text class="cls-7" transform="translate(49.7 190.6)"><tspan x="0" y="0">108-B</tspan></text>
                </g>
              </g>
              <g class="cls-17">
                <g class="cls-17">
                  <text class="cls-5" transform="translate(49.7 190.6)"><tspan x="0" y="0">108-B</tspan></text>
                </g>
              </g>
            </g>
            <g class="cls-55">
              <g id="text1022" class="cls-17">
                <g class="cls-17">
                  <g class="cls-17">
                    <text class="cls-7" transform="translate(.9 128.3)"><tspan x="0" y="0">Lift</tspan></text>
                  </g>
                </g>
                <g class="cls-17">
                  <g class="cls-17">
                    <text class="cls-5" transform="translate(.9 128.3)"><tspan x="0" y="0">Lift</tspan></text>
                  </g>
                </g>
              </g>
            </g>
            <g id="text1023" class="cls-17">
              <g class="cls-17">
                <g class="cls-17">
                  <text class="cls-7" transform="translate(33.4 40.7)"><tspan x="0" y="0">T</tspan></text>
                </g>
              </g>
              <g class="cls-17">
                <g class="cls-17">
                  <text class="cls-5" transform="translate(33.4 40.7)"><tspan x="0" y="0">T</tspan></text>
                </g>
              </g>
            </g>
            <g id="text1024" class="cls-17">
              <g class="cls-17">
                <g class="cls-17">
                  <text class="cls-7" transform="translate(546.6 543)"><tspan x="0" y="0">T</tspan></text>
                </g>
              </g>
              <g class="cls-17">
                <g class="cls-17">
                  <text class="cls-5" transform="translate(546.6 543)"><tspan x="0" y="0">T</tspan></text>
                </g>
              </g>
            </g>
            <g id="text1025" class="cls-17">
              <g class="cls-17">
                <g class="cls-17">
                  <text class="cls-7" transform="translate(77.7 543)"><tspan x="0" y="0">T</tspan></text>
                </g>
              </g>
              <g class="cls-17">
                <g class="cls-17">
                  <text class="cls-5" transform="translate(77.7 543)"><tspan x="0" y="0">T</tspan></text>
                </g>
              </g>
            </g>
            <g id="text1026" class="cls-17">
              <g class="cls-17">
                <g class="cls-17">
                  <text class="cls-7" transform="translate(71.4 94)"><tspan x="0" y="0">Stairs</tspan></text>
                </g>
              </g>
              <g class="cls-17">
                <g class="cls-17">
                  <text class="cls-5" transform="translate(71.4 94)"><tspan x="0" y="0">Stairs</tspan></text>
                </g>
              </g>
            </g>
            <g id="text1027" class="cls-17">
              <g class="cls-17">
                <g class="cls-17">
                  <text class="cls-7" transform="translate(492.4 115.7)"><tspan x="0" y="0">Stairs</tspan></text>
                </g>
              </g>
              <g class="cls-17">
                <g class="cls-17">
                  <text class="cls-5" transform="translate(492.4 115.7)"><tspan x="0" y="0">Stairs</tspan></text>
                </g>
              </g>
            </g>
            <g id="text1028" class="cls-17">
              <g class="cls-17">
                <g class="cls-17">
                  <text class="cls-7" transform="translate(487.9 487)"><tspan x="0" y="0">Stairs</tspan></text>
                </g>
              </g>
              <g class="cls-17">
                <g class="cls-17">
                  <text class="cls-5" transform="translate(487.9 487)"><tspan x="0" y="0">Stairs</tspan></text>
                </g>
              </g>
            </g>
            <g id="text1029" class="cls-17">
              <g class="cls-17">
                <g class="cls-17">
                  <text class="cls-7" transform="translate(53.3 461.7)"><tspan x="0" y="0">Stairs</tspan></text>
                </g>
              </g>
              <g class="cls-17">
                <g class="cls-17">
                  <text class="cls-5" transform="translate(53.3 461.7)"><tspan x="0" y="0">Stairs</tspan></text>
                </g>
              </g>
            </g>
            <g id="text1030" class="cls-17">
              <g class="cls-17">
                <g class="cls-17">
                  <text class="cls-7" transform="translate(9.9 360.5)"><tspan x="0" y="0">Lift</tspan></text>
                </g>
              </g>
              <g class="cls-17">
                <g class="cls-17">
                  <text class="cls-5" transform="translate(9.9 360.5)"><tspan x="0" y="0">Lift</tspan></text>
                </g>
              </g>
            </g>
            <g id="text1031" class="cls-17">
              <g class="cls-17">
                <g class="cls-17">
                  <text class="cls-7" transform="translate(562 380.4)"><tspan x="0" y="0">Lift</tspan></text>
                </g>
              </g>
              <g class="cls-17">
                <g class="cls-17">
                  <text class="cls-5" transform="translate(562 380.4)"><tspan x="0" y="0">Lift</tspan></text>
                </g>
              </g>
            </g>
            <g id="text1032" class="cls-17">
              <g class="cls-17">
                <g class="cls-17">
                  <text class="cls-7" transform="translate(570.1 151.8)"><tspan x="0" y="0">Lift</tspan></text>
                </g>
              </g>
              <g class="cls-17">
                <g class="cls-17">
                  <text class="cls-5" transform="translate(570.1 151.8)"><tspan x="0" y="0">Lift</tspan></text>
                </g>
              </g>
            </g>
            <path id="path1075" class="cls-2" d="M114.8,178.9h8.1"/>
            <path id="path1076" class="cls-2" d="M66,410.2h25.3l-2.7-.9"/>
            <path id="path1077" class="cls-2" d="M66,427.4h26.2"/>
            <path id="path1078" class="cls-2" d="M70.5,114.8l28.9-.9h-.9"/>
            <path id="path1079" class="cls-2" d="M71.4,132.8l27.1-.9h0"/>
            <path id="path1080" class="cls-2" d="M497,142.8h27.1"/>
            <path id="path1081" class="cls-2" d="M497,163.5c28,0,27.1-.9,27.1-.9"/>
            <path id="path1082" class="cls-2" d="M495.1,445.5h27.1"/>
            <path id="path1083" class="cls-2" d="M494.2,461.7h26.2"/>
            <path id="path1084" class="cls-2" d="M7.2,391.2c34.3-.9,33.4-.9,33.4-.9h0"/>
            <path id="path1085" class="cls-2" d="M6.3,412l35.2-.9"/>
            <path id="path1086" class="cls-2" d="M543.9,413.8c30.7-.9,32.5,0,32.5,0"/>
            <path id="path1087" class="cls-2" d="M544.8,432.8h32.5"/>
            <path id="path1090" class="cls-2" d="M254.8,358.7l.9,30.7"/>
            <path id="path1091" class="cls-2" d="M274.7,358.7l.9,29.8"/>
            <g id="text1091" class="cls-17">
              <g class="cls-17">
                <g class="cls-17">
                  <text class="cls-7" transform="translate(119.3 111.1)"><tspan x="0" y="0">111</tspan></text>
                </g>
              </g>
              <g class="cls-17">
                <g class="cls-17">
                  <text class="cls-5" transform="translate(119.3 111.1)"><tspan x="0" y="0">111</tspan></text>
                </g>
              </g>
            </g>
            <g id="text1092" class="cls-17">
              <g class="cls-17">
                <g class="cls-17">
                  <text class="cls-7" transform="translate(111.1 421.1)"><tspan x="0" y="0">105</tspan></text>
                </g>
              </g>
              <g class="cls-17">
                <g class="cls-17">
                  <text class="cls-5" transform="translate(111.1 421.1)"><tspan x="0" y="0">105</tspan></text>
                </g>
              </g>
            </g>
            <g id="text1093" class="cls-17">
              <g class="cls-17">
                <g class="cls-17">
                  <text class="cls-7" transform="translate(219.6 407.5)"><tspan x="0" y="0">Stairs</tspan></text>
                </g>
              </g>
              <g class="cls-17">
                <g class="cls-17">
                  <text class="cls-5" transform="translate(219.6 407.5)"><tspan x="0" y="0">Stairs</tspan></text>
                </g>
              </g>
            </g>
            <path id="path1093" class="cls-2" d="M12.6,141h33.4"/>
            <path id="path1094" class="cls-2" d="M11.7,161.7l33.4-.9"/>
            <path id="path1095" class="cls-2" d="M549.4,165.3l32.5-.9"/>
            <path id="path1096" class="cls-2" d="M549.4,185.2l33.4-.9"/>
            <path id="path171" class="cls-2" d="M.9,480.7"/>
            <path id="path172" class="cls-2" d="M0,479.8h8.1"/>
            <path id="path173" class="cls-2" d="M2.7,121.1v4.5"/>
          </g>
        </g>
        <g id="Path">
          <polyline class="cls-3" points="28.5 154.1 58.9 154.1 58.9 72.9 37.9 74.7 37.4 33"/>
          <polyline class="cls-3" points="85.8 129.1 85.8 73.1 58.9 72.9"/>
          <polyline class="cls-3" points="109.2 37.8 108.8 72.9 85.8 73.1"/>
          <polyline class="cls-3" points="163.2 33.7 163.1 82.6 141.9 82.6 141.9 72.9 108.8 72.9 108.6 122.7"/>
          <polyline class="cls-3" points="176.9 179.7 143.9 179.7 141.9 82.6"/>
          <polyline class="cls-3" points="120 185.9 141.9 185.9 143.9 179.7"/>
          <polyline class="cls-3" points="119.1 231.5 143.9 230.6 141.9 185.9"/>
          <polyline class="cls-3" points="176.7 282.7 143.9 281.8 143.9 230.6"/>
          <polyline class="cls-3" points="107 322.4 143.9 321.4 143.9 281.8"/>
          <polyline class="cls-3" points="169.7 364.7 143.9 364.7 143.9 321.4"/>
          <polyline class="cls-3" points="101.7 421.5 100.7 466.9 141.9 466.9 143.9 457.6 143.9 364.7"/>
          <polyline class="cls-3" points="82.1 424.7 81.9 468.3 100.7 466.9"/>
          <polyline class="cls-3" points="28.5 396.8 54.9 396.8 58.9 468.3 81.9 468.3 85.2 541.6"/>
          <polyline class="cls-3" points="160.6 543.8 160 463.6 143.9 457.6"/>
          <polyline class="cls-3" points="213.1 545.4 213.8 463.6 160 463.6"/>
          <polyline class="cls-3" points="263.9 541.7 263.9 463.6 213.8 463.6"/>
          <polyline class="cls-3" points="314.4 541.7 316.7 463.6 263.9 463.6"/>
          <polyline class="cls-3" points="316.7 334.4 316 376.2 316.7 463.6 366.9 463.6 367.4 537.5"/>
          <polyline class="cls-3" points="459.4 460.5 452.8 460.5 417.2 460.7 366.9 463.6"/>
          <polyline class="cls-3" points="426.6 393.4 462.2 393.4 459.4 460.5 448.8 491.8 472.8 491.8 470.8 539.9"/>
          <polyline class="cls-3" points="484.2 450.7 484.2 493.8 472.8 491.8"/>
          <polyline class="cls-3" points="510.5 450.3 509.2 493.8 484.2 493.8"/>
          <polyline class="cls-3" points="550.2 543.9 549.6 493.8 509.2 493.8"/>
          <polyline class="cls-3" points="479.1 380.4 459.3 380.9 462.2 393.4"/>
          <polyline class="cls-3" points="549.6 493.8 551 425.1 563.8 425.1"/>
          <polyline class="cls-3" points="430.2 296.7 460.5 303.7 459.3 380.9"/>
          <polyline class="cls-3" points="479.3 277.5 454.7 276.9 460.5 303.7"/>
          <polyline class="cls-3" points="479.1 243.7 454.1 242.9 454.7 276.9"/>
          <polyline class="cls-3" points="427.2 191.9 454.1 191.9 454.1 242.9"/>
          <polyline class="cls-3" points="487.4 145.4 485.9 93.6 454.1 95.1 453.4 34"/>
          <polyline class="cls-3" points="516.6 150.4 516.6 95.1 485.9 93.6"/>
          <polyline class="cls-3" points="568 171.7 543.9 170.6 540.7 112.4 540 95.1 516.6 95.1 557 95.1 557.7 38.9"/>
          <polyline class="cls-3" points="352.9 41.8 352.1 89.7 454.1 95.1 454.1 191.9"/>
          <polyline class="cls-3" points="215.6 16.5 252.7 19 254.8 89.7 299.1 89.7 299.1 36.1"/>
          <polyline class="cls-3" points="306.7 151.9 309.9 89.7 299.1 89.7"/>
          <line class="cls-3" x1="352.1" y1="89.7" x2="309.9" y2="89.7"/>
          <line class="cls-3" x1="163.1" y1="82.6" x2="254.8" y2="89.7"/>
          <line class="cls-3" x1="260.5" y1="377.4" x2="316" y2="376.2"/>
        </g>
      </g>
    </g>
  </g>
</svg>