<?xml version='1.0' encoding='UTF-8'?>
<svg xmlns="http://www.w3.org/2000/svg" xmlns:i="http://ns.adobe.com/AdobeIllustrator/10.0/" version="1.1" viewBox="0 0 640 480">
  <defs>
    <style>
      .cls-1 {
        fill: gray;
      }

      .cls-1, .cls-2, .cls-3, .cls-4, .cls-5, .cls-6 {
        stroke: #000;
        stroke-miterlimit: 10;
      }

      .cls-7, .cls-2, .cls-3, .cls-4, .cls-5, .cls-6 {
        fill: #fff;
      }

      .cls-3 {
        stroke-width: 1.2px;
      }

      .cls-8 {
        font-size: 9px;
      }

      .cls-8, .cls-9 {
        font-family: MyriadPro-Regular, 'Myriad Pro';
      }

      .cls-4 {
        stroke-width: 1.2px;
      }

      .cls-9 {
        font-size: 8px;
      }

      .cls-5 {
        stroke-width: 1.2px;
      }

      .cls-6 {
        stroke-width: 1.2px;
      }
    </style>
  <marker id="dynamic-arrow" markerWidth="20" markerHeight="20" refX="10.0" refY="20" markerUnits="strokeWidth"><image xmlns:ns0="http://www.w3.org/1999/xlink" ns0:href="..\Assets\location_symbol-removebg.png" x="0" y="0" width="20" height="20" preserveAspectRatio="xMidYMid meet"/></marker></defs>
  <!-- Generator: Adobe Illustrator 28.6.0, SVG Export Plug-In . SVG Version: 1.2.0 Build 709)  -->
  <g>
    <g id="Layer_1">
      <path class="cls-2" d="M105.6,162.3"/>
      <path class="cls-2" d="M127.4,185.9s0-23,.7-40.5"/>
      <path class="cls-2" d="M227.7,162.3"/>
      <path class="cls-2" d="M227.7,323.8"/>
      <path class="cls-2" d="M105.4,322.9"/>
      <path class="cls-2" d="M128.1,145.5h-22.7v-7.5l.2-17.3h428.6"/>
      <path class="cls-2" d="M227.7,323.8"/>
      <path class="cls-2" d="M127.4,185.9h37v-24h63v103h-40.1l-.3,26.9h40.5s.3,14,.3,14v19.3s-61.3.9-61.9,0,0-34.4,0-34.4h-40.2v38.3h-19.2l.5,30.3,427.2.2.2-26.5-17.6-.3-.4-38.7h-34l.4,29s-3.4,1-48.9.9c-.5,0-1.5-160.9-1.5-160.9l54-1v24h32v-42h16l-.2-21.6"/>
      <path class="cls-2" d="M105.4,322.9"/>
      <path class="cls-2" d="M301.9,315.4"/>
      <path class="cls-2" d="M337.9,164.7h48.3l.5,50,.5,100.6v13.8l-66.7-1v-54.4h-18.5v41.6h-20.1v14.4h-29.2v-165h48.3s36.9,0,36.9,0Z"/>
      <path class="cls-2" d="M338.8,315.4"/>
    </g>
    <g id="Path">
      <line x1="174.2" y1="159.2" x2="174.2" y2="145.5" stroke="black" stroke-width="1" visibility="hidden"/>
      <line x1="174.2" y1="145.5" x2="142.7" y2="145.5" stroke="black" stroke-width="1" visibility="hidden"/>
      <line x1="142.7" y1="145.5" x2="142.7" y2="167.5" stroke="black" stroke-width="1" visibility="hidden"/>
      <line x1="142.7" y1="167.5" x2="133.6" y2="167.0" stroke="black" stroke-width="1" visibility="hidden"/>
      <line x1="216.7" y1="166.1" x2="216.7" y2="145.5" stroke="black" stroke-width="1" visibility="hidden"/>
      <line x1="216.7" y1="145.5" x2="174.2" y2="145.5" stroke="black" stroke-width="1" visibility="hidden"/>
      <line x1="238.9" y1="126.3" x2="238.9" y2="145.5" stroke="black" stroke-width="1" visibility="hidden"/>
      <line x1="238.9" y1="145.5" x2="216.7" y2="145.5" stroke="black" stroke-width="1" visibility="hidden"/>
      <line x1="142.7" y1="126.3" x2="142.7" y2="145.5" visibility="hidden"/>
      <line x1="224.4" y1="223.3" x2="238.9" y2="223.3" stroke="black" stroke-width="1" visibility="hidden"/>
      <line x1="238.9" y1="223.3" x2="238.9" y2="197.5" stroke="black" stroke-width="1" visibility="hidden"/>
      <line x1="224.4" y1="234.5" x2="238.9" y2="234.5" stroke="black" stroke-width="1" visibility="hidden"/>
      <line x1="238.9" y1="234.5" x2="238.9" y2="223.3" stroke="black" stroke-width="1" visibility="hidden"/>
      <line x1="224.4" y1="260.8" x2="238.9" y2="260.8" stroke="black" stroke-width="1" visibility="hidden"/>
      <line x1="238.9" y1="260.8" x2="238.9" y2="234.5" stroke="black" stroke-width="1" visibility="hidden"/>
      <line x1="183.4" y1="280.5" x2="238.9" y2="280.5" stroke="black" stroke-width="1" visibility="hidden"/>
      <line x1="238.9" y1="280.5" x2="238.9" y2="260.8" stroke="black" stroke-width="1" visibility="hidden"/>
      <line x1="238.9" y1="280.5" x2="238.9" y2="296.4" stroke="black" stroke-width="1" visibility="hidden"/>
      <line x1="238.9" y1="296.4" x2="258.8" y2="296.8" stroke="black" stroke-width="1" visibility="hidden"/>
      <line x1="221.6" y1="360.6" x2="222.4" y2="342.0" stroke="black" stroke-width="1" visibility="hidden"/>
      <line x1="222.4" y1="342.0" x2="238.9" y2="342.0" stroke="black" stroke-width="1" visibility="hidden"/>
      <line x1="238.9" y1="342.0" x2="238.9" y2="296.4" stroke="black" stroke-width="1" visibility="hidden"/>
      <line x1="214.5" y1="321.8" x2="214.5" y2="342.0" stroke="black" stroke-width="1" visibility="hidden"/>
      <line x1="214.5" y1="342.0" x2="222.4" y2="342.0" stroke="black" stroke-width="1" visibility="hidden"/>
      <line x1="175.0" y1="320.7" x2="174.2" y2="342.0" stroke="red" stroke-width="1" visibility="visible"/>
      <line x1="174.2" y1="342.0" x2="214.5" y2="342.0" stroke="black" stroke-width="1" visibility="hidden"/>
      <line x1="153.2" y1="360.6" x2="153.9" y2="342.0" stroke="red" stroke-width="1" visibility="visible"/>
      <line x1="153.9" y1="342.0" x2="174.2" y2="342.0" stroke="red" stroke-width="1" visibility="visible"/>
      <line x1="133.6" y1="312.6" x2="153.2" y2="313.1" stroke="black" stroke-width="1" visibility="hidden"/>
      <line x1="153.2" y1="313.1" x2="153.9" y2="342.0" stroke="black" stroke-width="1" visibility="hidden"/>
      <line x1="257.3" y1="360.6" x2="257.3" y2="342.0" stroke="black" stroke-width="1" visibility="hidden"/>
      <line x1="257.3" y1="342.0" x2="238.9" y2="342.0" stroke="black" stroke-width="1" visibility="hidden"/>
      <line x1="284.8" y1="360.6" x2="284.8" y2="342.0" stroke="black" stroke-width="1" visibility="hidden"/>
      <line x1="284.8" y1="342.0" x2="257.3" y2="342.0" stroke="black" stroke-width="1" visibility="hidden"/>
      <line x1="310.9" y1="271.0" x2="311.0" y2="303.7" stroke="black" stroke-width="1" visibility="hidden"/>
      <line x1="311.0" y1="303.7" x2="296.1" y2="304.2" stroke="black" stroke-width="1" visibility="hidden"/>
      <line x1="284.8" y1="342.0" x2="310.9" y2="342.0" stroke="black" stroke-width="1" visibility="hidden"/>
      <line x1="310.9" y1="342.0" x2="311.0" y2="303.7" stroke="black" stroke-width="1" visibility="hidden"/>
      <line x1="323.7" y1="360.6" x2="323.7" y2="342.0" stroke="black" stroke-width="1" visibility="hidden"/>
      <line x1="323.7" y1="342.0" x2="310.9" y2="342.0" stroke="black" stroke-width="1" visibility="hidden"/>
      <line x1="345.0" y1="360.6" x2="345.5" y2="342.0" stroke="black" stroke-width="1" visibility="hidden"/>
      <line x1="345.5" y1="342.0" x2="323.7" y2="342.0" stroke="black" stroke-width="1" visibility="hidden"/>
      <line x1="376.2" y1="360.6" x2="375.9" y2="342.0" stroke="black" stroke-width="1" visibility="hidden"/>
      <line x1="375.9" y1="342.0" x2="345.5" y2="342.0" stroke="black" stroke-width="1" visibility="hidden"/>
      <line x1="415.4" y1="360.6" x2="415.4" y2="342.0" stroke="black" stroke-width="1" visibility="hidden"/>
      <line x1="415.4" y1="342.0" x2="375.9" y2="342.0" stroke="black" stroke-width="1" visibility="hidden"/>
      <line x1="498.6" y1="360.6" x2="496.9" y2="342.0" stroke="black" stroke-width="1" visibility="hidden"/>
      <line x1="496.9" y1="342.0" x2="467.5" y2="342.0" stroke="black" stroke-width="1" visibility="hidden"/>
      <line x1="467.5" y1="342.0" x2="467.5" y2="325.5" stroke="black" stroke-width="1" visibility="hidden"/>
      <line x1="441.7" y1="319.9" x2="441.7" y2="343.0" stroke="black" stroke-width="1" visibility="hidden"/>
      <line x1="441.7" y1="343.0" x2="467.5" y2="342.0" stroke="black" stroke-width="1" visibility="hidden"/>
      <line x1="441.7" y1="343.0" x2="415.4" y2="342.0" stroke="black" stroke-width="1" visibility="hidden"/>
      <line x1="415.4" y1="342.0" x2="415.4" y2="296.4" stroke="black" stroke-width="1" visibility="hidden"/>
      <line x1="496.9" y1="342.0" x2="498.6" y2="315.4" stroke="black" stroke-width="1" visibility="hidden"/>
      <line x1="498.6" y1="315.4" x2="509.7" y2="315.8" stroke="black" stroke-width="1" visibility="hidden"/>
      <line x1="383.0" y1="197.5" x2="415.4" y2="197.5" stroke="black" stroke-width="1" visibility="hidden"/>
      <line x1="415.4" y1="197.5" x2="415.4" y2="145.5" stroke="black" stroke-width="1" visibility="hidden"/>
      <line x1="415.4" y1="145.5" x2="364.5" y2="145.5" stroke="black" stroke-width="1" visibility="hidden"/>
      <line x1="415.4" y1="197.5" x2="415.4" y2="223.3" stroke="black" stroke-width="1" visibility="hidden"/>
      <line x1="415.4" y1="223.3" x2="430.7" y2="223.3" stroke="black" stroke-width="1" visibility="hidden"/>
      <line x1="415.4" y1="223.3" x2="415.4" y2="235.6" stroke="black" stroke-width="1" visibility="hidden"/>
      <line x1="415.4" y1="235.6" x2="430.7" y2="234.5" stroke="black" stroke-width="1" visibility="hidden"/>
      <line x1="430.7" y1="260.8" x2="415.4" y2="262.6" stroke="black" stroke-width="1" visibility="hidden"/>
      <line x1="415.4" y1="262.6" x2="415.4" y2="235.6" stroke="black" stroke-width="1" visibility="hidden"/>
      <line x1="383.0" y1="296.4" x2="415.4" y2="296.4" stroke="black" stroke-width="1" visibility="hidden"/>
      <line x1="415.4" y1="296.4" x2="415.4" y2="262.6" stroke="black" stroke-width="1" visibility="hidden"/>
      <line x1="263.5" y1="126.3" x2="263.5" y2="145.5" stroke="black" stroke-width="1" visibility="hidden"/>
      <line x1="263.5" y1="145.5" x2="238.9" y2="145.5" stroke="black" stroke-width="1" visibility="hidden"/>
      <line x1="238.9" y1="145.5" x2="238.9" y2="197.5" stroke="black" stroke-width="1" visibility="hidden"/>
      <line x1="238.9" y1="197.5" x2="257.6" y2="197.5" stroke="black" stroke-width="1" visibility="hidden"/>
      <line x1="284.4" y1="123.9" x2="284.4" y2="145.5" stroke="black" stroke-width="1" visibility="hidden"/>
      <line x1="284.4" y1="145.5" x2="263.5" y2="145.5" stroke="black" stroke-width="1" visibility="hidden"/>
      <line x1="305.7" y1="168.4" x2="305.7" y2="145.5" stroke="black" stroke-width="1" visibility="hidden"/>
      <line x1="305.7" y1="145.5" x2="284.4" y2="145.5" stroke="black" stroke-width="1" visibility="hidden"/>
      <line x1="284.4" y1="145.5" x2="334.2" y2="145.5" stroke="black" stroke-width="1" visibility="hidden"/>
      <line x1="334.2" y1="145.5" x2="334.2" y2="123.9" stroke="black" stroke-width="1" visibility="hidden"/>
      <line x1="337.9" y1="164.7" x2="337.9" y2="145.5" stroke="black" stroke-width="1" visibility="hidden"/>
      <line x1="337.9" y1="145.5" x2="334.2" y2="145.5" stroke="black" stroke-width="1" visibility="hidden"/>
      <line x1="364.5" y1="123.9" x2="364.5" y2="145.5" stroke="black" stroke-width="1" visibility="hidden"/>
      <line x1="364.5" y1="145.5" x2="337.9" y2="145.5" stroke="black" stroke-width="1" visibility="hidden"/>
      <line x1="438.7" y1="165.9" x2="438.7" y2="145.5" stroke="black" stroke-width="1" visibility="hidden"/>
      <line x1="438.7" y1="145.5" x2="415.4" y2="145.5" stroke="black" stroke-width="1" visibility="hidden"/>
      <line x1="415.4" y1="145.5" x2="415.4" y2="123.6" stroke="black" stroke-width="1" visibility="hidden"/>
      <line x1="463.5" y1="168.4" x2="463.7" y2="144.8" stroke="black" stroke-width="1" visibility="hidden"/>
      <line x1="463.7" y1="144.8" x2="438.7" y2="145.5" stroke="black" stroke-width="1" visibility="hidden"/>
      <line x1="498.6" y1="123.6" x2="498.6" y2="144.8" stroke="black" stroke-width="1" visibility="hidden"/>
      <line x1="498.6" y1="144.8" x2="463.7" y2="144.8" stroke="black" stroke-width="1" visibility="hidden"/>
    </g>
    <g id="Layer_3">
      <path class="cls-2" d="M189.5,123.6"/>
      <path class="cls-2" d="M394.3,316"/>
      <rect class="cls-2" x="138.9" y="116.8" width="7.5" height="13.6"/>
      <rect class="cls-2" x="235.2" y="117.1" width="7.5" height="13.6"/>
      <rect class="cls-2" x="260" y="117.1" width="7.5" height="13.6"/>
      <rect class="cls-2" x="280.6" y="117.1" width="7.5" height="13.6"/>
      <rect class="cls-2" x="330.4" y="117.1" width="7.5" height="13.6"/>
      <rect class="cls-2" x="360.8" y="117.1" width="7.5" height="13.6"/>
      <rect class="cls-2" x="319.9" y="353.8" width="7.5" height="13.6"/>
      <rect class="cls-2" x="411.6" y="116.8" width="7.5" height="13.6"/>
      <rect class="cls-2" x="494.9" y="116.8" width="7.5" height="13.6"/>
      <rect class="cls-2" x="149.5" y="353.8" width="7.5" height="13.6"/>
      <rect class="cls-2" x="302" y="158.9" width="7.5" height="13.6"/>
      <rect class="cls-2" x="217.9" y="353.8" width="7.5" height="13.6"/>
      <rect class="cls-2" x="253.6" y="353.8" width="7.5" height="13.6"/>
      <rect class="cls-2" x="341.3" y="353.8" width="7.5" height="13.6"/>
      <rect class="cls-2" x="372.4" y="353.8" width="7.5" height="13.6"/>
      <rect class="cls-2" x="411.6" y="353.8" width="7.5" height="13.6"/>
      <rect class="cls-2" x="494.9" y="353.8" width="7.5" height="13.6"/>
      <text class="cls-9" transform="translate(208.1 311.6)">
        <tspan x="0" y="0">204</tspan>
      </text>
      <text class="cls-9" transform="translate(209.7 376.5)">
        <tspan x="0" y="0">202 (B)</tspan>
      </text>
      <text class="cls-9" transform="translate(244.2 377.5)">
        <tspan x="0" y="0">202 (A)</tspan>
      </text>
      <text class="cls-9" transform="translate(278.1 376.7)">
        <tspan x="0" y="0">201</tspan>
      </text>
      <text class="cls-9" transform="translate(316.2 377.5)">
        <tspan x="0" y="0">231</tspan>
      </text>
      <text class="cls-9" transform="translate(338.8 378.6)">
        <tspan x="0" y="0">230</tspan>
      </text>
      <text class="cls-9" transform="translate(369 376.6)">
        <tspan x="0" y="0">229</tspan>
      </text>
      <text class="cls-9" transform="translate(409 378.4)">
        <tspan x="0" y="0">228</tspan>
      </text>
      <text class="cls-9" transform="translate(232.1 114.4)">
        <tspan x="0" y="0">212</tspan>
      </text>
      <text class="cls-9" transform="translate(257.3 114.4)">
        <tspan x="0" y="0">213</tspan>
      </text>
      <text class="cls-9" transform="translate(278.5 114.5)">
        <tspan x="0" y="0">214</tspan>
      </text>
      <text class="cls-9" transform="translate(299.3 179.9)">
        <tspan x="0" y="0">215</tspan>
      </text>
      <text class="cls-9" transform="translate(328.2 114.5)">
        <tspan x="0" y="0">216</tspan>
      </text>
      <text class="cls-9" transform="translate(357.1 114.6)">
        <tspan x="0" y="0">217</tspan>
      </text>
      <text class="cls-9" transform="translate(409.7 114.2)">
        <tspan x="0" y="0">218</tspan>
      </text>
      <text class="cls-9" transform="translate(492.5 114.2)">
        <tspan x="0" y="0">219</tspan>
      </text>
      <text class="cls-9" transform="translate(434 181.4)">
        <tspan x="0" y="0">220</tspan>
      </text>
      <rect class="cls-4" x="210.8" y="314.9" width="7.5" height="13.6"/>
      <rect class="cls-2" x="255.5" y="289.7" width="6.5" height="14.3" transform="translate(555.6 38.1) rotate(90)"/>
      <rect class="cls-2" x="180.2" y="275.4" width="6.5" height="10.2" transform="translate(463.9 97.1) rotate(90)"/>
      <rect class="cls-2" x="218.5" y="257.7" width="11.9" height="6.1"/>
      <rect class="cls-2" x="218.5" y="231.5" width="11.9" height="6.1"/>
      <rect class="cls-2" x="218.5" y="220.2" width="11.9" height="6.1"/>
      <rect class="cls-2" x="251.6" y="194.4" width="11.9" height="6.1"/>
      <rect class="cls-5" x="209.9" y="162.3" width="13.6" height="7.5" transform="translate(382.7 -50.6) rotate(90)"/>
      <rect class="cls-2" x="379.8" y="289.3" width="6.5" height="14.3" transform="translate(679.5 -86.6) rotate(90)"/>
      <rect class="cls-2" x="377.1" y="194.4" width="11.9" height="6.1"/>
      <rect class="cls-2" x="424.8" y="257.7" width="11.9" height="6.1"/>
      <rect class="cls-2" x="424.8" y="231.5" width="11.9" height="6.1"/>
      <rect class="cls-2" x="424.8" y="220.2" width="11.9" height="6.1"/>
      <rect class="cls-6" x="431.9" y="162.2" width="13.6" height="7.5" transform="translate(604.7 -272.8) rotate(90)"/>
      <rect class="cls-3" x="434.9" y="316.2" width="13.6" height="7.5" transform="translate(761.7 -121.8) rotate(90)"/>
      <text class="cls-9" transform="translate(189.6 225.9)">
        <tspan x="0" y="0">208 (B)</tspan>
      </text>
      <text class="cls-9" transform="translate(270.6 199.6)">
        <tspan x="0" y="0">209</tspan>
      </text>
      <text class="cls-9" transform="translate(189.5 236.8)">
        <tspan x="0" y="0">208 (A)</tspan>
      </text>
      <text class="cls-9" transform="translate(205.2 262.6)">
        <tspan x="0" y="0">207</tspan>
      </text>
      <text class="cls-9" transform="translate(162.2 282.7)">
        <tspan x="0" y="0">206</tspan>
      </text>
      <text class="cls-9" transform="translate(254.6 290.1)">
        <tspan x="0" y="0">205</tspan>
      </text>
      <text class="cls-9" transform="translate(146.4 376.5)">
        <tspan x="0" y="0">203</tspan>
      </text>
      <text class="cls-9" transform="translate(210.4 180.5)">
        <tspan x="0" y="0">210</tspan>
      </text>
      <text class="cls-9" transform="translate(136.6 114.2)">
        <tspan x="0" y="0">211</tspan>
      </text>
      <text class="cls-9" transform="translate(435 307.2)">
        <tspan x="0" y="0">226</tspan>
      </text>
      <text class="cls-9" transform="translate(439.8 225.9)">
        <tspan x="0" y="0">222</tspan>
      </text>
      <text class="cls-9" transform="translate(440.1 236.8)">
        <tspan x="0" y="0">223</tspan>
      </text>
      <text class="cls-9" transform="translate(439.8 262.7)">
        <tspan x="0" y="0">224</tspan>
      </text>
      <text class="cls-9" transform="translate(361.8 300.2)">
        <tspan x="0" y="0">225</tspan>
      </text>
      <text class="cls-9" transform="translate(492.8 378.4)">
        <tspan x="0" y="0">227</tspan>
      </text>
      <text class="cls-9" transform="translate(360.9 199.6)">
        <tspan x="0" y="0">221</tspan>
      </text>
      <rect class="cls-2" x="334.2" y="157.9" width="7.5" height="13.6"/>
      <rect class="cls-2" x="281.1" y="353.8" width="7.5" height="13.6"/>
      <text class="cls-9" transform="translate(319.2 179.7)">
        <tspan x="0" y="0">Library 2nd</tspan>
        <tspan x="0" y="9.6">Floor Back Door</tspan>
      </text>
      <rect class="cls-2" x="307.1" y="264.2" width="7.5" height="13.6"/>
      <text class="cls-9" transform="translate(290.8 251.6)">
        <tspan x="0" y="0">Library 2nd</tspan>
        <tspan x="0" y="9.6">Floor Front Door</tspan>
      </text>
    </g>
    <g id="Layer_2">
      <g>
        <rect class="cls-2" x="168.5" y="307.2" width="13" height="25"/>
        <rect class="cls-2" x="168.5" y="311.2" width="13" height="17"/>
        <rect class="cls-2" x="168.5" y="316.2" width="13" height="9"/>
        <rect class="cls-2" x="168.5" y="318.2" width="13" height="5"/>
      </g>
      <text class="cls-8" transform="translate(168.5 303.5)">
        <tspan x="0" y="0">Stairs</tspan>
      </text>
      <g>
        <rect class="cls-2" x="461" y="311.8" width="13" height="25"/>
        <rect class="cls-2" x="461" y="315.8" width="13" height="17"/>
        <line x1="461.0" y1="329.8" x2="461.0" y2="320.8" stroke="black" stroke-width="1"/>
        <line x1="461.0" y1="320.8" x2="474.0" y2="320.8" stroke="black" stroke-width="1"/>
        <line x1="474.0" y1="320.8" x2="474.0" y2="329.8" stroke="black" stroke-width="1"/>
        <path class="cls-2" d="M474,327.8v-5h-13v5l12.5.4"/>
      </g>
      <text class="cls-8" transform="translate(454.5 306.4)">
        <tspan x="0" y="0">Stairs</tspan>
      </text>
      <text class="cls-8" transform="translate(165.5 194.1)">
        <tspan x="0" y="0">Stairs</tspan>
      </text>
      <g>
        <rect class="cls-2" x="168" y="158.5" width="13" height="25"/>
        <line class="cls-2" x1="168" y1="167.5" x2="181" y2="167.5"/>
        <path class="cls-2" d="M168,174.5l12.5.4"/>
        <path d="M168,179.1l13-.5-13,.5Z"/>
        <path d="M181,171.2h-12.5,12.5Z"/>
        <path d="M181,163h-12.5,12.5Z"/>
      </g>
      <text class="cls-8" transform="translate(454.5 191.5)">
        <tspan x="0" y="0">Stairs</tspan>
      </text>
      <g>
        <path class="cls-2" d="M460,165.3"/>
        <path class="cls-2" d="M470,155.9v25h-13v-25l12.5.3"/>
        <line class="cls-2" x1="457" y1="164.9" x2="470" y2="164.9"/>
        <path class="cls-2" d="M457,171.9l12.5.4"/>
        <path d="M457,176.5l13-.5-13,.5Z"/>
        <path d="M470,168.6h-12.5,12.5Z"/>
        <path d="M470,160.4h-12.5,12.5Z"/>
      </g>
      <text class="cls-8" transform="translate(520.4 318)">
        <tspan x="0" y="0">Lift</tspan>
      </text>
      <text class="cls-8" transform="translate(103.1 312.6)">
        <tspan x="0" y="0">Lift</tspan>
      </text>
      <polygon class="cls-7" points="117.3 303.7 117.3 300.9 117.3 298 121.8 298 121.8 300.9 121.8 303.7 117.3 303.7"/>
      <path d="M133.6,253.9"/>
      <path d="M122.5,240.1"/>
      <polygon class="cls-1" points="114.5 306.4 114.5 301.5 114.5 296.7 132 296.7 132 301.5 132 306.4 114.5 306.4"/>
      <path class="cls-2" d="M131.7,301.5h-17.5"/>
      <polygon class="cls-7" points="117 322.5 117 319.6 117 316.8 121.5 316.8 121.5 319.6 121.5 322.5 117 322.5"/>
      <polygon class="cls-1" points="114.1 325.2 114.1 320.3 114.1 315.4 131.6 315.4 131.6 320.3 131.6 325.2 114.1 325.2"/>
      <path class="cls-2" d="M131.3,320.3c-11.3,0-17.5,0-17.5,0"/>
      <polygon class="cls-7" points="487 303.5 487 300.6 487 297.8 491.5 297.8 491.5 300.6 491.5 303.5 487 303.5"/>
      <polygon class="cls-1" points="505.1 306.2 505.1 301.3 505.1 296.4 522.6 296.4 522.6 301.3 522.6 306.2 505.1 306.2"/>
      <path class="cls-2" d="M523.3,301.3c-11.3,0-17.5,0-17.5,0"/>
      <polygon class="cls-1" points="504.6 329.2 504.6 324.3 504.6 319.4 522.1 319.4 522.1 324.3 522.1 329.2 504.6 329.2"/>
      <path class="cls-2" d="M522.8,324.3c-11.3,0-17.5,0-17.5,0"/>
      <text class="cls-8" transform="translate(221.4 220.4) rotate(90)">
        <tspan x="0" y="0">B</tspan>
      </text>
      <text class="cls-8" transform="translate(221.6 231.1) rotate(90)">
        <tspan x="0" y="0">B</tspan>
      </text>
      <text class="cls-8" transform="translate(434.9 238.4) rotate(-90)">
        <tspan x="0" y="0">G</tspan>
      </text>
      <text class="cls-8" transform="translate(140.4 123.1)">
        <tspan x="0" y="0">T</tspan>
      </text>
      <text class="cls-8" transform="translate(496.9 364.3)">
        <tspan x="0" y="0">T</tspan>
      </text>
      <text class="cls-8" transform="translate(150.5 364.2)">
        <tspan x="0" y="0">T</tspan>
      </text>
      <text class="cls-8" transform="translate(278.8 293.7)">
        <tspan x="0" y="0">Stairs</tspan>
      </text>
      <g>
        <g>
          <rect class="cls-7" x="287.3" y="297" width="26" height="13"/>
          <path d="M312.8,297.5v12h-25v-12h25M313.8,296.5h-27v14h27v-14h0Z"/>
        </g>
        <line x1="309.3" y1="310.5" x2="309.3" y2="297.5" stroke="black" stroke-width="1"/>
        <line x1="309.3" y1="297.5" x2="305.7" y2="297.3" stroke="black" stroke-width="1"/>
        <line x1="305.7" y1="297.3" x2="305.7" y2="310.5" stroke="black" stroke-width="1"/>
        <line class="cls-2" x1="292.3" y1="297.5" x2="292.3" y2="311"/>
        <line class="cls-2" x1="286.8" y1="310.5" x2="313.8" y2="310.5"/>
        <line class="cls-2" x1="296.1" y1="297.1" x2="296.1" y2="310.5"/>
        <line class="cls-2" x1="301" y1="297.1" x2="301.1" y2="310.5"/>
      </g>
      <text class="cls-8" transform="translate(219.8 363.6)">
        <tspan x="0" y="0">T</tspan>
      </text>
      <text class="cls-8" transform="translate(255.6 363.6)">
        <tspan x="0" y="0">T</tspan>
      </text>
      <g>
        <text class="cls-8" transform="translate(104.8 167)">
          <tspan x="0" y="0">Lift</tspan>
        </text>
        <polygon class="cls-1" points="116.2 160.8 116.2 155.9 116.2 151 133.6 151 133.6 155.9 133.6 160.8 116.2 160.8"/>
        <path class="cls-2" d="M133.4,155.9h-17.5"/>
        <polygon class="cls-1" points="115.8 179.6 115.8 174.7 115.8 169.8 133.3 169.8 133.3 174.7 133.3 179.6 115.8 179.6"/>
        <path class="cls-2" d="M133,174.7c-11.3,0-17.5,0-17.5,0"/>
      </g>
    </g>
  </g>
<line x1="174.2" y1="342.0" x2="175.0" y2="320.7" stroke="red" stroke-width="0.8" marker-end="url(#dynamic-arrow)"/></svg>
